<svg width="295" height="370" viewBox="0 0 295 370" fill="none" xmlns="http://www.w3.org/2000/svg">
<path d="M262.524 152.799L264.506 153.462C264.843 153.575 265.198 153.62 265.553 153.595C265.907 153.569 266.253 153.474 266.57 153.315C266.888 153.155 267.171 152.935 267.402 152.665C267.634 152.396 267.811 152.084 267.921 151.746L294.217 72.7271C294.415 72.13 294.495 71.4996 294.45 70.8719C294.405 70.2442 294.237 69.6314 293.955 69.0687C293.673 68.506 293.283 68.0043 292.808 67.5922C292.332 67.1802 291.78 66.8659 291.183 66.6672L262.524 152.799Z" fill="#E0E0E0"/>
<path d="M185.022 308.334L207.156 315.703L269.397 128.642C270.372 125.711 270.146 122.514 268.767 119.749C267.389 116.985 264.971 114.88 262.044 113.895C259.109 112.921 255.907 113.152 253.142 114.537C250.377 115.922 248.274 118.347 247.296 121.281L185.022 308.334Z" fill="#F5F5F5"/>
<path d="M220.918 200.474L235.367 230.915L232.059 240.846L217.428 210.961L220.918 200.474Z" fill="white"/>
<path d="M215.438 216.929L229.887 247.37L228.312 252.103L213.681 222.218L215.438 216.929Z" fill="white"/>
<path d="M245.224 122.201L269.969 130.441L290.428 68.9469C290.968 67.32 291.182 65.6026 291.057 63.8931C290.932 62.1835 290.472 60.5153 289.702 58.9839C288.932 57.4525 287.868 56.0879 286.57 54.9682C285.272 53.8484 283.766 52.9956 282.138 52.4583C280.512 51.9175 278.794 51.703 277.084 51.8272C275.374 51.9513 273.706 52.4116 272.174 53.1817C270.642 53.9518 269.277 55.0165 268.158 56.3149C267.038 57.6133 266.186 59.1199 265.65 60.7482L245.224 122.201Z" fill="#E0E0E0"/>
<path d="M262.922 151.605C262.815 151.564 268.874 133.086 276.443 110.33C284.012 87.5742 290.246 69.1458 290.354 69.179C290.461 69.2122 284.401 87.6986 276.833 110.463C269.264 133.227 263.03 151.638 262.922 151.605Z" fill="#EBEBEB"/>
<path d="M197.264 324.214L187.825 321.074C186.156 320.519 184.776 319.324 183.989 317.751C183.201 316.178 183.07 314.357 183.626 312.688L185.065 308.362L207.121 315.699L205.698 319.978C205.427 320.813 204.993 321.586 204.421 322.252C203.849 322.918 203.151 323.464 202.366 323.858C201.582 324.252 200.727 324.487 199.851 324.548C198.975 324.609 198.096 324.496 197.264 324.214Z" fill="#E0E0E0"/>
<path d="M265.069 128.808C265.177 128.808 251.407 170.514 234.314 221.879C217.22 273.243 203.276 314.866 203.185 314.833C203.094 314.8 216.847 273.127 233.94 221.746C251.034 170.365 264.961 128.775 265.069 128.808Z" fill="#E0E0E0"/>
<path d="M257.849 126.404C257.957 126.446 244.187 168.119 227.093 219.475C210 270.83 196.064 312.462 195.957 312.429C195.849 312.396 209.618 270.731 226.712 219.35C243.806 167.97 257.741 126.371 257.849 126.404Z" fill="#E0E0E0"/>
<path d="M250.636 124.008C250.744 124.008 236.966 165.715 219.881 217.079C202.796 268.443 188.844 310.058 188.736 310.025C188.628 309.992 202.398 268.327 219.491 216.946C236.585 165.565 250.529 123.967 250.636 124.008Z" fill="#E0E0E0"/>
<path d="M225.435 310.622L35.0004 313.474C33.8974 313.49 32.802 313.288 31.7772 312.88C30.7524 312.472 29.8184 311.865 29.0288 311.095C28.2392 310.324 27.6096 309.406 27.1762 308.391C26.7428 307.377 26.5141 306.287 26.5033 305.184L22.3584 27.8707C22.3251 25.6514 23.1744 23.5097 24.7196 21.9164C26.2647 20.3231 28.3793 19.4084 30.5985 19.3735L221.042 16.5218C222.144 16.5065 223.239 16.709 224.263 17.1177C225.286 17.5264 226.219 18.1333 227.008 18.9035C227.797 19.6738 228.426 20.5922 228.859 21.6061C229.291 22.6199 229.52 23.7093 229.531 24.8117L233.676 302.125C233.709 304.344 232.86 306.486 231.314 308.079C229.769 309.672 227.655 310.587 225.435 310.622Z" fill="#E0E0E0"/>
<path d="M225.436 310.622L226.074 310.572C226.707 310.505 227.332 310.375 227.939 310.182C228.927 309.841 229.845 309.324 230.65 308.657C231.764 307.723 232.62 306.518 233.137 305.159C233.442 304.343 233.613 303.484 233.643 302.614C233.643 301.702 233.643 300.732 233.643 299.721C233.609 297.692 233.574 295.482 233.535 293.089C233.46 288.281 233.369 282.726 233.27 276.509L231.612 170.631C231.272 148.248 230.899 123.801 230.493 97.5221C230.294 84.3744 230.089 70.7956 229.879 56.7857C229.774 49.789 229.666 42.6901 229.556 35.489C229.495 31.8911 229.434 28.2685 229.373 24.6209C229.292 22.8189 228.619 21.094 227.458 19.7133C226.278 18.3317 224.676 17.3763 222.899 16.9942C222.002 16.8347 221.09 16.779 220.18 16.8284H217.395L211.799 16.9196L200.516 17.0854L177.487 17.4087L130.152 18.1217L30.5987 19.6138C28.4977 19.6384 26.4872 20.4726 24.9861 21.9428C23.485 23.413 22.6091 25.4058 22.5409 27.5058C22.5409 31.7171 22.657 35.9615 22.7067 40.1644C22.8283 48.587 22.9527 56.9515 23.0798 65.2579C23.3285 81.8708 23.5717 98.224 23.8093 114.317C24.2901 146.482 24.7461 177.511 25.1854 207.065C25.6248 236.618 26.0144 264.704 26.4289 290.991C26.4731 294.274 26.5201 297.532 26.5698 300.765C26.5698 302.373 26.5698 303.99 26.661 305.573C26.7442 307.144 27.2829 308.656 28.2112 309.925C29.1283 311.183 30.3809 312.157 31.8256 312.736C32.5447 313.013 33.2973 313.194 34.0639 313.275C34.8183 313.333 35.6058 313.275 36.385 313.275L45.62 313.142L80.711 312.628L186.606 311.127L215.388 310.73L222.849 310.638H225.403L222.849 310.696L215.388 310.829L186.606 311.318L80.7359 312.976L45.6531 313.515L36.4099 313.656C35.639 313.656 34.8597 313.697 34.0556 313.656C33.2607 313.574 32.4801 313.387 31.7344 313.1C30.2321 312.498 28.9284 311.487 27.9708 310.182C26.9947 308.867 26.419 307.299 26.3128 305.664C26.2548 304.006 26.2548 302.448 26.2217 300.831C26.1719 297.609 26.1222 294.354 26.0724 291.066C25.6745 264.779 25.2435 236.693 24.8041 207.139C24.3647 177.586 23.8922 146.557 23.4031 114.392C23.1599 98.3097 22.914 81.9565 22.6653 65.3325C22.5382 57.0426 22.4138 48.6782 22.2922 40.2391C22.2342 36.0195 22.143 31.8083 22.1182 27.5555C22.1905 25.3513 23.1096 23.2598 24.6845 21.7158C26.2593 20.1719 28.3686 19.2943 30.5738 19.2657L130.127 17.7818L177.487 17.0274L200.442 16.6875L211.724 16.5217L217.312 16.4388H220.097C221.035 16.3854 221.975 16.4439 222.899 16.6129C224.754 16.9884 226.431 17.9715 227.665 19.4067C228.899 20.8419 229.62 22.6475 229.713 24.538C229.774 28.1856 229.832 31.811 229.887 35.4143C229.992 42.5989 230.097 49.7006 230.202 56.7193C230.412 70.7127 230.611 84.2887 230.799 97.4475C231.189 123.726 231.545 148.215 231.869 170.564C232.515 215.263 233.029 251.44 233.394 276.443C233.477 282.693 233.551 288.247 233.618 293.022C233.651 295.426 233.681 297.637 233.709 299.654C233.709 300.674 233.759 301.636 233.709 302.564C233.674 303.44 233.498 304.305 233.187 305.126C232.747 306.304 232.048 307.368 231.141 308.239C230.234 309.11 229.142 309.766 227.948 310.158C227.342 310.354 226.716 310.479 226.082 310.531L225.436 310.622Z" fill="#263238"/>
<g opacity="0.3">
<path d="M46.1756 305.996L219.882 302.448L221.374 268.857L215.745 248.688L44.1777 278.134L46.1756 305.996Z" fill="black"/>
</g>
<path d="M225.436 310.622L226.074 310.572C226.707 310.505 227.332 310.375 227.939 310.182C228.927 309.841 229.845 309.324 230.65 308.657C231.764 307.723 232.62 306.518 233.137 305.159C233.442 304.343 233.613 303.484 233.643 302.614C233.643 301.702 233.643 300.732 233.643 299.721C233.609 297.692 233.574 295.482 233.535 293.089C233.46 288.281 233.369 282.726 233.27 276.509L231.612 170.631C231.272 148.248 230.899 123.801 230.493 97.5221C230.294 84.3744 230.089 70.7956 229.879 56.7857C229.774 49.789 229.666 42.6901 229.556 35.489C229.495 31.8911 229.434 28.2685 229.373 24.6209C229.292 22.8189 228.619 21.094 227.458 19.7133C226.278 18.3317 224.676 17.3763 222.899 16.9942C222.002 16.8347 221.09 16.779 220.18 16.8284H217.395L211.799 16.9196L200.516 17.0854L177.487 17.4087L130.152 18.1217L30.5987 19.6138C28.4977 19.6384 26.4872 20.4726 24.9861 21.9428C23.485 23.413 22.6091 25.4058 22.5409 27.5058C22.5409 31.7171 22.657 35.9615 22.7067 40.1644C22.8283 48.587 22.9527 56.9515 23.0798 65.2579C23.3285 81.8708 23.5717 98.224 23.8093 114.317C24.2901 146.482 24.7461 177.511 25.1854 207.065C25.6248 236.618 26.0144 264.704 26.4289 290.991C26.4731 294.274 26.5201 297.532 26.5698 300.765C26.5698 302.373 26.5698 303.99 26.661 305.573C26.7442 307.144 27.2829 308.656 28.2112 309.925C29.1283 311.183 30.3809 312.157 31.8256 312.736C32.5447 313.013 33.2973 313.194 34.0639 313.275C34.8183 313.333 35.6058 313.275 36.385 313.275L45.62 313.142L80.711 312.628L186.606 311.127L215.388 310.73L222.849 310.638H225.403L222.849 310.696L215.388 310.829L186.606 311.318L80.7359 312.976L45.6531 313.515L36.4099 313.656C35.639 313.656 34.8597 313.697 34.0556 313.656C33.2607 313.574 32.4801 313.387 31.7344 313.1C30.2321 312.498 28.9284 311.487 27.9708 310.182C26.9947 308.867 26.419 307.299 26.3128 305.664C26.2548 304.006 26.2548 302.448 26.2217 300.831C26.1719 297.609 26.1222 294.354 26.0724 291.066C25.6745 264.779 25.2435 236.693 24.8041 207.139C24.3647 177.586 23.8922 146.557 23.4031 114.392C23.1599 98.3097 22.914 81.9565 22.6653 65.3325C22.5382 57.0426 22.4138 48.6782 22.2922 40.2391C22.2342 36.0195 22.143 31.8083 22.1182 27.5555C22.1905 25.3513 23.1096 23.2598 24.6845 21.7158C26.2593 20.1719 28.3686 19.2943 30.5738 19.2657L130.127 17.7818L177.487 17.0274L200.442 16.6875L211.724 16.5217L217.312 16.4388H220.097C221.035 16.3854 221.975 16.4439 222.899 16.6129C224.754 16.9884 226.431 17.9715 227.665 19.4067C228.899 20.8419 229.62 22.6475 229.713 24.538C229.774 28.1856 229.832 31.811 229.887 35.4143C229.992 42.5989 230.097 49.7006 230.202 56.7193C230.412 70.7127 230.611 84.2887 230.799 97.4475C231.189 123.726 231.545 148.215 231.869 170.564C232.515 215.263 233.029 251.44 233.394 276.443C233.477 282.693 233.551 288.247 233.618 293.022C233.651 295.426 233.681 297.637 233.709 299.654C233.709 300.674 233.759 301.636 233.709 302.564C233.674 303.44 233.498 304.305 233.187 305.126C232.747 306.304 232.048 307.368 231.141 308.239C230.234 309.11 229.142 309.766 227.948 310.158C227.342 310.354 226.716 310.479 226.082 310.531L225.436 310.622Z" fill="#263238"/>
<g opacity="0.3">
<path d="M46.1756 305.996L219.882 302.448L221.374 268.857L215.745 248.688L44.1777 278.134L46.1756 305.996Z" fill="black"/>
</g>
<path d="M219.105 28.4217L32.9023 31.2168L36.9301 299.538L223.133 296.743L219.105 28.4217Z" fill="white"/>
<path d="M223.081 296.769C223.081 295.219 221.365 186.796 218.895 28.4426L219.069 28.6167L32.9196 31.4187L33.1103 31.228C34.6025 131.992 35.9869 225.087 37.0894 299.547L36.9319 299.397L223.081 296.769L36.9071 299.712H36.7579V299.563C35.6304 225.095 34.2294 132 32.7041 31.2363V31.0374H32.9113L219.094 28.2686H219.268V28.4426C221.539 186.796 223.081 295.219 223.081 296.769Z" fill="#263238"/>
<path d="M85.2597 96.0999L44.5361 96.7112L44.6655 105.332L85.3891 104.72L85.2597 96.0999Z" fill="#E0E0E0"/>
<path d="M171.533 76.0059L89.9033 77.2312L90.0327 85.8517L171.662 84.6264L171.533 76.0059Z" fill="#F5F5F5"/>
<path d="M82.6882 77.1568L43.8545 77.7397L43.9839 86.3603L82.8176 85.7773L82.6882 77.1568Z" fill="#F5F5F5"/>
<path d="M205.736 75.4677L176.194 75.9111L176.324 84.5316L205.866 84.0882L205.736 75.4677Z" fill="#F5F5F5"/>
<path d="M198.84 221.125L146.329 221.913L146.477 231.735L198.987 230.947L198.84 221.125Z" fill="#E0E0E0"/>
<path d="M205.761 115.909L44.6816 118.327L44.8291 128.149L205.908 125.731L205.761 115.909Z" fill="#E0E0E0"/>
<path d="M203.07 138.341C203.07 138.457 168.368 139.079 125.559 139.718C82.7502 140.356 48.0322 140.779 48.0322 140.663C48.0322 140.547 82.7337 139.925 125.551 139.286C168.368 138.648 203.07 138.225 203.07 138.341Z" fill="#263238"/>
<path d="M169.479 67.7864C169.479 67.9108 150.014 68.3004 126.007 68.6154C101.999 68.9304 82.5347 69.1708 82.5264 69.0465C82.5181 68.9221 101.991 68.5408 125.999 68.2175C150.006 67.8942 169.471 67.6704 169.479 67.7864Z" fill="#263238"/>
<path d="M203.186 146.863C203.186 146.988 168.476 147.601 125.675 148.24C82.8748 148.878 48.165 149.301 48.165 149.185C48.165 149.069 82.8582 148.447 125.684 147.808C168.509 147.17 203.186 146.747 203.186 146.863Z" fill="#263238"/>
<path d="M203.326 155.394C203.326 155.51 168.625 156.131 125.816 156.77C83.0071 157.408 48.2891 157.831 48.2891 157.715C48.2891 157.599 82.9905 156.977 125.808 156.339C168.625 155.7 203.326 155.278 203.326 155.394Z" fill="#263238"/>
<path d="M117.568 165.201C117.568 165.325 102.091 165.648 82.9994 165.938C63.9078 166.229 48.4224 166.353 48.4141 166.237C48.4058 166.121 63.8913 165.789 82.9911 165.507C102.091 165.226 117.56 165.085 117.568 165.201Z" fill="#263238"/>
<path d="M203.583 172.446C203.583 172.562 168.873 173.184 126.073 173.822C83.2722 174.46 48.5459 174.883 48.5459 174.767C48.5459 174.651 83.239 174.029 126.065 173.391C168.89 172.753 203.583 172.322 203.583 172.446Z" fill="#263238"/>
<path d="M203.708 180.968C203.708 181.092 169.007 181.706 126.198 182.344C83.3889 182.983 48.6709 183.405 48.6709 183.289C48.6709 183.173 83.3723 182.552 126.19 181.913C169.007 181.275 203.708 180.852 203.708 180.968Z" fill="#263238"/>
<path d="M173.044 189.954C173.044 190.079 145.232 190.593 110.928 191.098C76.6245 191.604 48.8037 191.927 48.754 191.819C48.7042 191.712 76.5665 191.181 110.878 190.667C145.19 190.153 173.044 189.838 173.044 189.954Z" fill="#263238"/>
<path d="M203.965 198.02C203.965 198.145 169.264 198.758 126.455 199.397C83.6457 200.035 48.9277 200.458 48.9277 200.342C48.9277 200.226 83.6292 199.604 126.446 198.965C169.264 198.327 203.965 197.904 203.965 198.02Z" fill="#263238"/>
<path d="M204.097 206.551C204.097 206.667 169.388 207.28 126.579 207.927C83.7698 208.573 49.0518 208.988 49.0518 208.872C49.0518 208.756 83.7532 208.134 126.57 207.496C169.388 206.857 204.089 206.426 204.097 206.551Z" fill="#263238"/>
<path d="M87.7523 11.2231L172.739 9.94739C174.13 9.9265 175.473 10.4593 176.472 11.4285C177.471 12.3977 178.044 13.724 178.064 15.1155L178.401 37.562L82.9294 38.9951L82.5924 16.5487C82.5716 15.1585 83.1032 13.8169 84.0706 12.8184C85.0381 11.82 86.3622 11.2462 87.7523 11.2231Z" fill="#263238"/>
<path d="M142.247 0L117.949 0.364755L121.099 21.1558L139.403 20.8739L142.247 0Z" fill="#263238"/>
<path d="M171.858 9.97269C171.858 10.0887 153.231 10.4535 130.251 10.8017C107.272 11.1499 88.6445 11.3322 88.6445 11.2162C88.6445 11.1001 107.264 10.7436 130.251 10.3872C153.239 10.0307 171.85 9.86492 171.858 9.97269Z" fill="#455A64"/>
<path d="M84.9967 34.5024C84.889 34.5024 84.7398 30.5896 84.6651 25.7566C84.5905 20.9236 84.6403 17.0273 84.7315 17.0273C84.8227 17.0273 84.9967 20.9402 85.0631 25.7732C85.1294 30.6062 85.1045 34.5024 84.9967 34.5024Z" fill="#455A64"/>
<path d="M175.216 31.1202C174.97 28.4832 174.862 25.8351 174.892 23.1868C174.787 20.5371 174.815 17.8838 174.975 15.2368C175.083 15.2368 175.232 18.7932 175.299 23.1785C175.365 27.5639 175.324 31.1202 175.216 31.1202Z" fill="#455A64"/>
<path d="M170.664 34.834C170.664 34.9418 151.548 35.3231 127.963 35.663C104.379 36.0029 85.2539 36.2184 85.2539 36.1024C85.2539 35.9863 104.321 35.6215 127.955 35.2734C151.59 34.9252 170.664 34.7262 170.664 34.834Z" fill="#455A64"/>
<g opacity="0.3">
<path d="M178.109 17.8066L182.237 29.4705L182.32 35.2071L177.86 35.2734L178.109 17.8066Z" fill="black"/>
</g>
<path d="M90.2607 63.1937C89.3905 62.7731 88.6596 62.1113 88.155 61.287C87.6188 60.4474 87.3313 59.473 87.3261 58.4767C87.2939 57.4873 87.5379 56.5085 88.0307 55.6499C88.5193 54.8168 89.2277 54.1343 90.0783 53.6769C90.9933 53.1944 92.0117 52.9413 93.0461 52.9391C93.9771 52.9145 94.9031 53.0839 95.7651 53.4365C96.5477 53.7667 97.2327 54.2919 97.7547 54.9618L95.5662 56.968C95.3038 56.6035 94.9591 56.3062 94.56 56.1002C94.161 55.8942 93.719 55.7854 93.2699 55.7825C92.9416 55.7752 92.6154 55.8371 92.3126 55.9642C92.0097 56.0913 91.7371 56.2808 91.5124 56.5203C91.0555 57.0467 90.8233 57.7313 90.8658 58.427C90.8448 59.1234 91.0944 59.8008 91.5622 60.3171C91.7964 60.5496 92.0768 60.7302 92.3852 60.8473C92.6937 60.9644 93.0234 61.0154 93.3528 60.9969C93.8006 60.98 94.238 60.8579 94.6298 60.6404C95.0216 60.423 95.3566 60.1162 95.6076 59.7451L97.8542 61.6932C97.3488 62.3715 96.682 62.9129 95.9144 63.2683C95.0149 63.6578 94.0431 63.8525 93.063 63.8396C92.0828 63.8268 91.1165 63.6066 90.2275 63.1937H90.2607Z" fill="#C53030"/>
<path d="M101.145 63.0281C100.273 62.5975 99.5358 61.935 99.015 61.1131C98.6186 60.4923 98.3549 59.7963 98.2405 59.0687C98.1262 58.3411 98.1636 57.5977 98.3505 56.8853C98.5373 56.1728 98.8696 55.5068 99.3263 54.929C99.7831 54.3512 100.354 53.8741 101.005 53.5279C101.938 53.0525 102.968 52.7971 104.016 52.7813C105.063 52.7655 106.1 52.9897 107.048 53.4367C107.932 53.8638 108.676 54.5331 109.194 55.3667C109.712 56.2003 109.982 57.1639 109.974 58.1453C110.009 59.1254 109.766 60.0954 109.273 60.9433C108.781 61.7912 108.058 62.4823 107.189 62.9369C106.255 63.4122 105.225 63.6676 104.178 63.6834C103.13 63.6992 102.093 63.4751 101.145 63.0281ZM105.29 60.5411C105.644 60.3139 105.93 59.9961 106.119 59.6209C106.327 59.1897 106.426 58.7146 106.41 58.2365C106.41 57.758 106.296 57.2862 106.078 56.8604C105.883 56.4956 105.598 56.1873 105.249 55.9651C104.887 55.7564 104.473 55.6531 104.055 55.6666C103.64 55.661 103.232 55.7731 102.878 55.99C102.523 56.215 102.236 56.5333 102.049 56.9101C101.851 57.3431 101.752 57.8148 101.759 58.2909C101.766 58.7671 101.879 59.2356 102.091 59.6624C102.28 60.0306 102.567 60.3401 102.92 60.5577C103.283 60.7652 103.695 60.8712 104.113 60.8644C104.54 60.8569 104.956 60.7306 105.315 60.4996L105.29 60.5411Z" fill="#C53030"/>
<path d="M121.456 52.7568L121.613 63.1855H118.72L114.691 58.51L114.766 63.2435L111.334 63.2933L111.168 52.9143L114.053 52.8646L118.082 57.5401L118.015 52.8066L121.456 52.7568Z" fill="#C53030"/>
<path d="M124.673 63.0859C123.959 62.946 123.273 62.6912 122.642 62.3315L123.736 59.7533C124.259 60.0451 124.815 60.2706 125.394 60.4248C125.975 60.5802 126.574 60.6583 127.176 60.6569C127.529 60.6721 127.88 60.6186 128.212 60.4994C128.301 60.4673 128.378 60.4089 128.433 60.3318C128.488 60.2548 128.518 60.1629 128.519 60.0683C128.519 59.8528 128.378 59.687 128.105 59.5875C127.665 59.4359 127.213 59.3222 126.753 59.2476C126.069 59.1212 125.393 58.9495 124.731 58.7337C124.19 58.5482 123.705 58.2288 123.321 57.8052C122.895 57.3081 122.67 56.6692 122.691 56.0146C122.677 55.3769 122.862 54.7507 123.222 54.224C123.631 53.6349 124.209 53.1839 124.88 52.9308C125.721 52.5852 126.623 52.4132 127.533 52.4251C128.24 52.4164 128.945 52.4831 129.638 52.624C130.28 52.7523 130.9 52.9728 131.479 53.2789L130.459 55.8405C129.557 55.3725 128.557 55.1226 127.541 55.111C126.637 55.111 126.19 55.3514 126.198 55.7825C126.198 55.9897 126.339 56.1472 126.604 56.2467C127.04 56.3878 127.486 56.4931 127.939 56.5617C128.622 56.6722 129.296 56.8357 129.953 57.0508C130.501 57.2324 130.994 57.5489 131.387 57.971C131.818 58.4622 132.044 59.1004 132.017 59.7533C132.031 60.3871 131.849 61.0096 131.495 61.5357C131.079 62.1181 130.503 62.5673 129.837 62.8289C128.996 63.1736 128.094 63.3456 127.184 63.3346C126.34 63.3512 125.497 63.2677 124.673 63.0859Z" fill="#C53030"/>
<path d="M141.725 60.2259V62.8786L133.062 63.0113L132.904 52.5826L141.377 52.4583V55.111L136.403 55.1856V56.4042L140.813 56.3379V58.8746L136.403 58.9409V60.3088L141.725 60.2259Z" fill="#C53030"/>
<path d="M153.239 52.2842L153.389 62.7046L150.504 62.746L146.467 58.0705L146.541 62.8123L143.117 62.8621L142.96 52.4334H145.845L149.882 57.1089L149.807 52.3754L153.239 52.2842Z" fill="#C53030"/>
<path d="M157.235 54.9453L154.184 54.995L154.143 52.2676L163.767 52.1267V54.8541L160.716 54.8955L160.907 62.6217L157.392 62.6714L157.235 54.9453Z" fill="#C53030"/>
<g opacity="0.3">
<path d="M67.5381 257.55L68.2759 267.597C68.2759 267.597 90.6586 267.921 100.938 266.296L100.689 272.613L123.072 253.795L93.2284 252.617L67.5381 257.55Z" fill="black"/>
</g>
<path d="M64.1398 265.392L62.7969 238.409C76.5747 241.493 90.7089 243.134 107.048 241.725L108.192 264.563C93.5523 265.931 78.8378 266.603 64.1398 265.392Z" fill="#C53030"/>
<path d="M102.206 252.974L102.148 235.416L113.182 244.154L124.208 252.891L113.24 261.712L102.273 270.524L102.206 252.974Z" fill="#C53030"/>
<path d="M194.423 243.142C194.423 243.142 194.572 243.142 194.863 243.192L196.139 243.383C197.778 243.626 199.4 243.969 200.997 244.411C202.138 244.743 203.248 245.176 204.313 245.704C205.607 246.332 206.787 247.173 207.803 248.191C208.996 249.347 209.901 250.767 210.448 252.336C211.051 254.118 211.001 256.058 210.307 257.807C209.487 259.688 208.21 261.335 206.593 262.599C204.872 263.968 202.997 265.131 201.005 266.064C196.684 268.239 192.135 269.932 187.443 271.112C176.642 273.812 165.338 273.769 154.557 270.988C153.123 270.615 151.73 270.159 150.338 269.736C148.959 269.277 147.62 268.706 146.334 268.028C145.047 267.363 143.856 266.526 142.794 265.541C141.743 264.569 140.91 263.385 140.348 262.068C139.82 260.754 139.618 259.332 139.76 257.923C139.902 256.556 140.296 255.227 140.92 254.002C142.172 251.656 144.015 249.678 146.267 248.265C148.36 246.925 150.582 245.798 152.899 244.9C155.129 243.955 157.359 243.242 159.531 242.545C163.572 241.361 167.712 240.543 171.9 240.1C177.972 239.433 184.106 239.586 190.137 240.556C191.207 240.697 192.143 240.921 192.956 241.07C193.768 241.219 194.456 241.393 195.003 241.534L196.255 241.849C196.537 241.915 196.678 241.965 196.678 241.965C196.678 241.965 196.529 241.965 196.247 241.89L194.987 241.617C194.431 241.493 193.752 241.335 192.931 241.194C192.11 241.053 191.182 240.854 190.112 240.722C187.527 240.343 184.923 240.102 182.312 240C178.855 239.885 175.395 240.021 171.958 240.407C167.791 240.865 163.673 241.697 159.655 242.894C157.406 243.564 155.192 244.35 153.024 245.248C150.723 246.128 148.518 247.239 146.441 248.564C144.252 249.942 142.46 251.868 141.244 254.151C140.603 255.322 140.221 256.618 140.125 257.95C140.029 259.281 140.221 260.618 140.688 261.869C141.232 263.127 142.034 264.257 143.043 265.185C144.083 266.124 145.239 266.927 146.483 267.573C147.754 268.224 149.073 268.779 150.429 269.231C151.805 269.662 153.198 270.059 154.615 270.474C165.329 273.238 176.563 273.289 187.302 270.623C191.968 269.47 196.492 267.802 200.79 265.649C202.765 264.738 204.624 263.595 206.327 262.242C207.912 261.027 209.166 259.434 209.975 257.608C210.649 255.922 210.705 254.051 210.133 252.327C209.611 250.794 208.74 249.403 207.588 248.265C205.698 246.462 203.387 245.162 200.864 244.485C199.279 244.024 197.668 243.653 196.04 243.374L194.771 243.142H194.423Z" fill="#263238"/>
<path d="M246.003 327.376C246.003 327.376 241.676 297.64 242.04 280.331C242.405 263.021 242.04 243.565 242.04 243.565H244.038C244.038 243.565 242.687 277.91 244.154 298.626C245.622 319.343 249.493 327.376 249.493 327.376H246.028" fill="#263238"/>
<path d="M258.893 210.107C258.581 209.05 257.943 208.119 257.069 207.446C255.809 206.617 254.151 206.973 252.742 207.446C246.715 209.568 241.377 220.801 238.939 226.712L246.939 253.645C261.372 240.29 263.867 222.732 258.893 210.107Z" fill="#455A64"/>
<path d="M256.606 208.523C256.583 208.647 256.544 208.767 256.49 208.88L256.1 209.858C255.752 210.687 255.271 211.939 254.666 213.472C253.489 216.531 251.988 220.809 250.654 225.625C249.319 230.442 248.399 234.885 247.827 238.118C247.545 239.727 247.329 241.036 247.188 241.948C247.122 242.371 247.064 242.711 247.023 242.993C247.008 243.114 246.98 243.234 246.94 243.349C246.925 243.228 246.925 243.106 246.94 242.984C246.94 242.703 247.006 242.354 247.047 241.932C247.147 241.011 247.329 239.702 247.578 238.077C248.932 229.614 251.232 221.331 254.434 213.381C255.056 211.864 255.578 210.637 255.967 209.808L256.415 208.847C256.47 208.734 256.534 208.626 256.606 208.523Z" fill="#263238"/>
<path d="M243.383 260.145C235.922 256 231.471 248.207 231.064 239.66C230.774 233.675 232.615 227.814 234.695 222.202C234.813 221.694 235.106 221.244 235.524 220.933C235.863 220.81 236.228 220.775 236.584 220.83C236.941 220.885 237.278 221.029 237.564 221.248C243.01 224.349 246.31 230.268 248.067 236.278C249.326 240.269 249.747 244.477 249.302 248.638C248.616 253.013 246.534 257.049 243.367 260.145" fill="#455A64"/>
<path d="M243.383 260.145C243.372 260.023 243.372 259.901 243.383 259.78C243.383 259.506 243.383 259.166 243.383 258.744C243.383 257.848 243.383 256.547 243.275 254.947C243.06 250.778 242.595 246.626 241.883 242.512C241.054 237.687 240.042 233.393 239.296 230.243C238.932 228.709 238.633 227.458 238.409 226.546L238.185 225.534C238.154 225.418 238.132 225.298 238.119 225.178C238.178 225.284 238.22 225.399 238.243 225.518C238.326 225.783 238.418 226.106 238.534 226.513C238.782 227.342 239.122 228.627 239.528 230.185C240.357 233.294 241.377 237.646 242.206 242.454C242.911 246.585 243.329 250.759 243.458 254.947C243.499 256.555 243.499 257.857 243.458 258.76V259.788C243.45 259.91 243.425 260.03 243.383 260.145Z" fill="#263238"/>
<g opacity="0.3">
<path d="M243.383 260.145C235.922 256 231.471 248.207 231.064 239.66C230.774 233.675 232.615 227.814 234.695 222.202C234.813 221.694 235.106 221.244 235.524 220.933C235.863 220.81 236.228 220.775 236.584 220.83C236.941 220.885 237.278 221.029 237.564 221.248C243.01 224.349 246.31 230.268 248.067 236.278C249.326 240.269 249.747 244.477 249.302 248.638C248.616 253.013 246.534 257.049 243.367 260.145" fill="black"/>
</g>
<path d="M251.839 305.648C259.217 307.264 265.293 312.47 272.406 314.999C277.115 316.657 282.437 317.262 286.2 320.553C285.297 318.281 283.158 316.764 281.086 315.463C275.227 311.803 268.972 308.819 262.442 306.568C259.126 305.407 255.462 304.446 252.046 305.399" fill="#455A64"/>
<path d="M241.178 312.213C231.943 312.072 222.211 304.205 212.992 303.733C222.617 300.624 236.395 303.169 241.178 312.213Z" fill="#455A64"/>
<path d="M244.784 290.054C249.476 288.396 254.624 288.289 259.557 289.051C264.462 289.958 269.284 291.269 273.973 292.972C273.5 289.764 270.906 287.352 268.46 285.221C266.669 283.559 264.726 282.069 262.657 280.77C260.576 279.474 258.17 278.796 255.718 278.813C254.246 278.91 252.809 279.302 251.492 279.965C250.174 280.629 249.004 281.551 248.05 282.676C246.176 284.712 245.012 287.301 244.734 290.054" fill="#455A64"/>
<path d="M225.825 279.858C220.022 274.884 211.202 275.381 203.559 275.547C215.843 281.413 227.427 288.643 238.094 297.101C238.401 291.663 233.17 286.125 225.825 279.858Z" fill="#455A64"/>
<g opacity="0.3">
<path d="M225.825 279.858C220.022 274.884 211.202 275.381 203.559 275.547C215.843 281.413 227.427 288.643 238.094 297.101C238.401 291.663 233.17 286.125 225.825 279.858Z" fill="black"/>
</g>
<path d="M247.404 273.002C250.24 271.034 253.228 269.296 256.341 267.804C259.408 266.42 262.259 264.198 265.219 262.598C269.049 260.526 272.373 257.624 275.888 255.063C279.403 252.501 283.274 250.172 287.577 249.492C284.033 248.858 280.389 249.068 276.941 250.105C273.506 251.141 270.158 252.444 266.927 254.002C262.392 256.041 257.808 258.147 254.069 261.463C250.33 264.779 247.006 268.053 247.437 273.01" fill="#455A64"/>
<path d="M272.24 312.213C272.24 312.213 272.132 312.213 271.95 312.089L271.121 311.675C270.425 311.301 269.463 310.754 268.17 310.124C267.548 309.793 266.86 309.453 266.114 309.096C265.368 308.74 264.564 308.367 263.71 308.002C261.875 307.178 259.972 306.515 258.023 306.021C256.09 305.482 254.053 305.431 252.096 305.872C251.249 306.056 250.417 306.306 249.609 306.618C248.905 306.905 248.228 307.255 247.586 307.662C246.65 308.247 245.794 308.952 245.041 309.76C244.502 310.34 244.212 310.688 244.212 310.671C244.256 310.574 244.311 310.482 244.378 310.398C244.55 310.148 244.736 309.907 244.933 309.677C245.656 308.828 246.493 308.083 247.42 307.463C248.067 307.035 248.753 306.669 249.468 306.369C250.291 306.021 251.142 305.744 252.013 305.54C254.014 305.073 256.1 305.116 258.081 305.664C260.051 306.163 261.971 306.84 263.817 307.687C264.646 308.068 265.475 308.441 266.213 308.823C266.951 309.204 267.647 309.544 268.261 309.884C269.513 310.547 270.491 311.127 271.171 311.542L271.95 312.014C272.055 312.068 272.152 312.135 272.24 312.213Z" fill="#263238"/>
<path d="M234.29 307.637C234.487 307.671 234.679 307.729 234.862 307.811C235.379 307.994 235.884 308.213 236.37 308.466C239.625 310.111 242.312 312.692 244.088 315.877C244.355 316.355 244.593 316.847 244.801 317.353C244.897 317.531 244.961 317.725 244.992 317.925C244.942 317.925 244.594 317.171 243.889 315.993C242.962 314.478 241.848 313.085 240.573 311.848C239.283 310.614 237.84 309.549 236.279 308.682C235.061 308.002 234.265 307.695 234.29 307.637Z" fill="#263238"/>
<path d="M213.847 279.394C213.982 279.421 214.115 279.46 214.245 279.51L215.347 279.908L217.096 280.546C217.776 280.803 218.522 281.176 219.359 281.549C223.692 283.551 227.735 286.127 231.38 289.209C233.375 290.919 235.25 292.763 236.992 294.73C238.403 296.341 239.731 298.024 240.971 299.77C242.024 301.271 242.828 302.514 243.375 303.376L244.005 304.363C244.084 304.476 244.153 304.595 244.213 304.719C244.114 304.625 244.028 304.52 243.956 304.404C243.79 304.189 243.558 303.866 243.267 303.443C242.687 302.614 241.858 301.379 240.781 299.911C239.703 298.444 238.36 296.736 236.768 294.937C235.018 292.999 233.149 291.172 231.173 289.466C227.541 286.409 223.538 283.821 219.26 281.765C218.431 281.383 217.701 280.994 217.03 280.728L215.306 280.032L214.22 279.584C214.09 279.533 213.965 279.469 213.847 279.394Z" fill="#263238"/>
<path d="M258.645 284.865C258.395 284.867 258.144 284.842 257.899 284.79L257.07 284.633C256.739 284.567 256.357 284.567 255.934 284.525C253.742 284.332 251.54 284.766 249.584 285.777C248.516 286.333 247.542 287.055 246.699 287.916C245.998 288.61 245.375 289.38 244.843 290.212C244.36 290.989 243.936 291.801 243.574 292.641C243.597 292.393 243.659 292.149 243.757 291.92C243.992 291.281 244.289 290.668 244.644 290.088C245.158 289.22 245.776 288.418 246.484 287.7C247.689 286.433 249.173 285.465 250.818 284.874C252.463 284.282 254.224 284.083 255.959 284.293C256.382 284.351 256.788 284.368 257.103 284.451L257.932 284.658C258.178 284.696 258.417 284.766 258.645 284.865Z" fill="#263238"/>
<path d="M267.929 256.066C267.821 256.149 267.704 256.221 267.581 256.281L266.553 256.837C265.658 257.318 264.365 258.031 262.798 258.959C261.231 259.888 259.399 261.04 257.443 262.441C255.312 263.922 253.315 265.586 251.474 267.415C250.524 268.356 249.702 269.418 249.028 270.573C248.423 271.734 247.843 272.861 247.312 273.939C246.354 275.841 245.497 277.792 244.743 279.783C244.246 281.139 243.831 282.523 243.499 283.928C243.259 284.915 243.176 285.478 243.143 285.47C243.142 285.334 243.155 285.197 243.184 285.064C243.184 284.79 243.267 284.401 243.375 283.903C243.658 282.495 244.043 281.11 244.527 279.758C245.245 277.749 246.075 275.781 247.014 273.864C247.545 272.778 248.117 271.651 248.713 270.482C249.397 269.298 250.234 268.208 251.2 267.241C253.055 265.386 255.075 263.704 257.235 262.217C259.208 260.824 261.065 259.689 262.649 258.777C264.232 257.865 265.542 257.193 266.462 256.746L267.515 256.24C267.644 256.163 267.784 256.105 267.929 256.066Z" fill="#263238"/>
<path d="M242.031 284.036C241.938 283.784 241.874 283.523 241.841 283.257L241.443 281.118C240.993 278.776 240.409 276.462 239.694 274.188C238.946 271.927 238.066 269.713 237.057 267.556C236.701 266.768 236.394 266.105 236.154 265.583C236.033 265.343 235.933 265.093 235.855 264.837C236.02 265.049 236.159 265.28 236.27 265.525C236.519 265.972 236.859 266.636 237.265 267.456C239.445 271.74 240.931 276.343 241.667 281.093C241.816 282.005 241.915 282.751 241.973 283.249C242.016 283.509 242.036 283.772 242.031 284.036Z" fill="#263238"/>
<path d="M241.36 263.013C241.065 259.524 240.042 256.135 238.359 253.065C236.079 248.831 232.899 245.148 229.044 242.274C225.189 239.4 220.751 237.404 216.043 236.427L236.701 267.216L239.371 272.712C241.186 269.703 241.592 266.503 241.36 263.013Z" fill="#455A64"/>
<path d="M270.997 323.695H222.957V332.209H270.997V323.695Z" fill="#C53030"/>
<path d="M226.547 330.526L230.634 356.945H262.525L267.408 330.526H226.547Z" fill="#C53030"/>
<path d="M270.964 332.225C270.964 332.316 260.129 332.391 246.766 332.391C233.402 332.391 222.567 332.316 222.567 332.225C222.567 332.134 233.402 332.051 246.766 332.051C260.129 332.051 270.964 332.126 270.964 332.225Z" fill="#263238"/>
<path d="M60.7136 37.3753L59.0556 31.3983C61.623 27.1271 62.4993 22.0498 61.512 17.1651C60.5246 12.2805 57.7452 7.94203 53.7205 5.00327C49.6957 2.06452 44.717 0.738181 39.7637 1.28516C34.8103 1.83213 30.2409 4.21283 26.9544 7.95893C23.6678 11.705 21.9019 16.5454 22.0042 21.5278C22.1065 26.5102 24.0694 31.274 27.5069 34.8821C30.9444 38.4902 35.6077 40.6814 40.5793 41.0247C45.5509 41.368 50.471 39.8384 54.3718 36.737L60.7136 37.3753Z" fill="white"/>
<path d="M60.7132 37.3754L60.2821 37.3174L59.0552 37.1765L54.3714 36.6542L54.4294 36.8034C54.4385 36.7949 54.4457 36.7846 54.4506 36.7732C54.4555 36.7618 54.458 36.7495 54.458 36.7371C54.458 36.7247 54.4555 36.7124 54.4506 36.701C54.4457 36.6896 54.4385 36.6793 54.4294 36.6708C54.4125 36.6587 54.3922 36.6521 54.3714 36.6521C54.3506 36.6521 54.3303 36.6587 54.3134 36.6708C51.7229 38.6806 48.6758 40.019 45.4432 40.567C43.3545 40.9119 41.2233 40.9119 39.1346 40.567C35.6455 40.0364 32.3634 38.5768 29.6324 36.3414C26.9014 34.106 24.822 31.1771 23.6123 27.8616C22.4026 24.5462 22.1071 20.9664 22.7568 17.4975C23.4065 14.0285 24.9774 10.7983 27.305 8.14532L28.1339 7.25002L29.021 6.42103C29.6171 5.88908 30.2426 5.39092 30.8945 4.92885C33.9725 2.775 37.605 1.55168 41.3589 1.40469C45.1128 1.25771 48.8298 2.19328 52.0668 4.09987C54.321 5.42229 56.2908 7.17832 57.8623 9.26649C59.4338 11.3547 60.576 13.7336 61.2227 16.2657C61.8694 18.7979 62.0079 21.4332 61.6302 24.0192C61.2525 26.6052 60.366 29.0907 59.022 31.3321V31.4067L60.2655 35.8086C60.4064 36.2977 60.5142 36.6791 60.5971 36.9527C60.68 37.2262 60.7215 37.3589 60.7215 37.3589C60.7215 37.3589 60.7215 37.2345 60.6303 36.9858C60.5391 36.7371 60.4728 36.3309 60.3484 35.8501C60.0831 34.8056 59.6935 33.3051 59.1961 31.357V31.4316C60.9306 28.6066 61.9283 25.3913 62.0976 22.0806C62.3506 16.9286 60.6144 11.8763 57.2478 7.96821C53.8812 4.06009 49.1417 1.59494 44.0091 1.08235C40.9132 0.80363 37.7945 1.23457 34.8902 2.34241C33.3854 2.91538 31.9549 3.66685 30.6292 4.58068C29.9647 5.0518 29.328 5.5611 28.7225 6.10602L27.8106 6.935L26.9816 7.85518C25.0222 10.0998 23.5871 12.7526 22.7805 15.6209C21.974 18.4892 21.8162 21.5012 22.3187 24.4381C22.8211 27.375 23.9712 30.1632 25.6854 32.6002C27.3996 35.0373 29.6349 37.0621 32.2291 38.5277C35.6838 40.484 39.6447 41.3621 43.6025 41.0489C47.5602 40.7357 51.3338 39.2456 54.4377 36.7703L54.3051 36.6459C54.2963 36.6537 54.2892 36.6633 54.2844 36.674C54.2795 36.6847 54.277 36.6963 54.277 36.7081C54.277 36.7199 54.2795 36.7315 54.2844 36.7422C54.2892 36.7529 54.2963 36.7625 54.3051 36.7703L59.0718 37.1848L60.2738 37.2842L60.7132 37.3754Z" fill="#263238"/>
<path d="M41.6967 30.7187L31.2432 23.7303L33.6804 20.0828L40.6936 24.7666L49.4146 13.2271L52.9212 15.8715L41.6967 30.7187Z" fill="#C53030"/>
<path d="M65.2888 330.962L64.0868 347.434C64.0868 347.434 81.3629 354.116 81.4541 357.183L47.6396 356.122L48.4023 330.424L65.2888 330.962Z" fill="#263238"/>
<path d="M53.6829 345.718C53.3625 345.79 53.0811 345.98 52.895 346.251C52.709 346.522 52.6321 346.853 52.6798 347.177C52.766 347.499 52.9698 347.776 53.2508 347.954C53.5318 348.132 53.8695 348.198 54.1969 348.139C54.3773 348.121 54.5515 348.064 54.7077 347.971C54.8638 347.879 54.998 347.754 55.101 347.605C55.2041 347.456 55.2735 347.286 55.3044 347.107C55.3354 346.929 55.3272 346.745 55.2803 346.57C55.2335 346.395 55.1492 346.232 55.0332 346.093C54.9172 345.954 54.7723 345.841 54.6086 345.763C54.4448 345.685 54.2661 345.644 54.0848 345.642C53.9035 345.64 53.724 345.677 53.5586 345.752" fill="#E0E0E0"/>
<path d="M47.665 356.122L47.8806 353.552L80.2111 355.542C80.2111 355.542 81.695 356.205 81.4877 357.2L47.665 356.122Z" fill="#455A64"/>
<path d="M64.6593 347.285C64.6593 347.443 63.8303 347.484 63.0013 347.965C62.1723 348.446 61.7164 349.084 61.5672 349.018C61.418 348.951 61.6915 348.056 62.7112 347.492C63.7308 346.929 64.7008 347.144 64.6593 347.285Z" fill="white"/>
<path d="M68.1575 348.786C68.1575 348.935 67.4694 349.184 66.8892 349.822C66.3089 350.46 66.1182 351.165 65.9524 351.148C65.7866 351.132 65.712 350.253 66.4581 349.49C67.2042 348.728 68.1658 348.636 68.1575 348.786Z" fill="white"/>
<path d="M70.0392 352.864C69.8817 352.864 69.6827 352.101 70.1387 351.264C70.5946 350.427 71.3739 350.104 71.4402 350.236C71.5065 350.369 71.0091 350.808 70.6526 351.505C70.2962 352.201 70.1967 352.856 70.0392 352.864Z" fill="white"/>
<path d="M64.4606 343.505C64.386 343.646 63.6316 343.405 62.7031 343.439C61.7747 343.472 61.0452 343.72 60.954 343.588C60.8628 343.455 61.5923 342.916 62.6865 342.891C63.7808 342.867 64.5849 343.381 64.4606 343.505Z" fill="white"/>
<path d="M24.9591 330.697L23.9643 350.643L27.9849 366.634C28.0472 366.913 28.0507 367.201 27.9952 367.481C27.9397 367.762 27.8265 368.027 27.6627 368.261C27.4989 368.495 27.2882 368.692 27.0439 368.84C26.7997 368.988 26.5272 369.084 26.244 369.121C25.9062 369.176 25.5602 369.154 25.2325 369.055C24.9048 368.955 24.6042 368.782 24.3539 368.549C21.2121 365.556 9.70571 354.456 9.86322 353.022C10.0456 351.364 9.44043 331.916 9.44043 331.916L24.9591 330.697Z" fill="#263238"/>
<path d="M26.2358 369.129L9.88817 351.679V352.508C9.86485 353.247 10.1226 353.966 10.6094 354.522C11.8943 356.039 15.5502 360.184 24.2877 368.557C24.5447 368.799 24.855 368.976 25.1935 369.076C25.5319 369.175 25.889 369.193 26.2358 369.129Z" fill="#455A64"/>
<g opacity="0.6">
<path d="M14.3892 345.345C14.649 345.525 14.8277 345.8 14.8866 346.11C14.9456 346.42 14.8801 346.741 14.7042 347.003C14.5082 347.242 14.2345 347.403 13.9312 347.459C13.6279 347.515 13.3145 347.462 13.0463 347.31C12.7789 347.121 12.5956 346.835 12.5353 346.514C12.4749 346.192 12.5422 345.859 12.723 345.586C12.9529 345.344 13.2643 345.197 13.5968 345.173C13.9293 345.148 14.2591 345.248 14.5219 345.453" fill="white"/>
</g>
<path d="M21.6346 360.292C22.1635 359.674 22.8049 359.162 23.5247 358.783C24.3074 358.51 25.1331 358.381 25.9619 358.402C25.9619 358.352 25.7215 358.195 25.2324 358.112C24.5865 358.032 23.9309 358.126 23.334 358.385C22.7454 358.635 22.2416 359.05 21.8833 359.579C21.6263 359.985 21.5848 360.275 21.6346 360.292Z" fill="white"/>
<path d="M23.0685 363.003C23.6825 362.691 24.3136 362.415 24.9586 362.174C25.6421 362.065 26.3313 361.996 27.0228 361.967C26.6989 361.765 26.3331 361.641 25.9536 361.604C25.5741 361.566 25.1911 361.617 24.8342 361.751C23.5908 362.083 22.9607 362.945 23.0685 363.003Z" fill="white"/>
<path d="M18.9238 356.802C19.8321 356.257 20.7766 355.775 21.7507 355.36C22.7849 355.079 23.8375 354.871 24.9008 354.738C23.8031 354.437 22.6366 354.51 21.5849 354.945C20.5098 355.238 19.5694 355.894 18.9238 356.802Z" fill="white"/>
<path d="M18.6914 350.717C18.7494 350.833 19.9266 350.402 21.4436 350.386C22.9607 350.369 24.1544 350.742 24.2042 350.618C23.3539 350.16 22.4002 349.929 21.4348 349.946C20.4693 349.964 19.5246 350.229 18.6914 350.717Z" fill="white"/>
<path d="M18.8657 344.856C19.7939 344.593 20.7528 344.454 21.7174 344.442C22.6719 344.558 23.6061 344.804 24.4945 345.171C24.4945 345.13 24.3039 344.873 23.8231 344.591C23.1788 344.244 22.4659 344.043 21.7351 344.003C21.0043 343.962 20.2736 344.084 19.5952 344.359C19.0564 344.583 18.7994 344.807 18.8657 344.856Z" fill="white"/>
<path d="M21.676 343.323C21.7309 343.074 21.7309 342.817 21.676 342.568C21.6261 341.871 21.4283 341.193 21.0957 340.579C20.8984 340.108 20.5518 339.714 20.1092 339.46C19.9487 339.387 19.7703 339.363 19.5963 339.391C19.4223 339.419 19.2604 339.498 19.131 339.617C18.8982 339.857 18.77 340.179 18.7745 340.512C18.8187 341.201 19.1036 341.853 19.5794 342.353C20.0552 342.853 20.6917 343.17 21.3775 343.248C22.063 343.338 22.7598 343.229 23.3855 342.935C24.0113 342.641 24.5399 342.175 24.909 341.59C24.9926 341.446 25.0434 341.285 25.0577 341.119C25.0721 340.952 25.0496 340.785 24.9919 340.629C24.9123 340.468 24.7828 340.338 24.6229 340.257C24.463 340.176 24.2813 340.15 24.1049 340.181C23.5898 340.271 23.107 340.494 22.7039 340.827C22.1236 341.242 21.6212 341.755 21.22 342.345C21.0545 342.544 20.9381 342.78 20.8802 343.033C21.4506 342.284 22.1295 341.624 22.8946 341.076C23.2614 340.802 23.6872 340.617 24.1381 340.537C24.2333 340.523 24.3307 340.538 24.4168 340.581C24.503 340.624 24.5736 340.693 24.6189 340.778C24.6495 340.885 24.6564 340.998 24.6392 341.108C24.6221 341.218 24.5812 341.323 24.5194 341.416C24.1814 341.904 23.7155 342.289 23.1729 342.528C22.6302 342.768 22.032 342.854 21.4439 342.776C20.8648 342.704 20.3273 342.437 19.9192 342.02C19.5112 341.603 19.2566 341.06 19.1973 340.479C19.1911 340.249 19.2709 340.024 19.4211 339.849C19.4913 339.782 19.5798 339.736 19.6756 339.719C19.7714 339.701 19.8703 339.712 19.96 339.75C20.3466 339.965 20.6566 340.295 20.847 340.695C21.282 341.513 21.563 342.403 21.676 343.323Z" fill="white"/>
<path d="M74.8558 196.269C76.7616 203.022 77.6007 210.031 77.3428 217.043C77.1687 221.486 66.5659 344.583 66.5659 344.583L45.2526 345.412L46.3884 230.033L44.6558 230.456C44.6558 230.456 35.081 279.996 34.4675 287.988C33.9121 295.167 26.2854 347.451 26.2854 347.451L6.7959 348.396L10.1118 279.491L14.5884 213.329L16.5116 194.047L74.8558 196.269Z" fill="#263238"/>
<path d="M47.25 223.517C47.25 223.517 47.2915 223.575 47.3909 223.658C47.5541 223.762 47.7334 223.838 47.9215 223.882C48.2722 223.936 48.6305 223.915 48.9723 223.819C49.314 223.723 49.6313 223.555 49.9028 223.327C50.6704 222.603 51.1203 221.604 51.1545 220.55C51.2623 219.397 51.2374 218.162 51.2706 216.852C51.2706 214.241 51.3203 211.878 51.2706 210.171C51.3027 209.247 51.2694 208.321 51.1711 207.402C51.0383 208.316 50.9746 209.239 50.9804 210.162C50.9224 211.878 50.8644 214.241 50.8229 216.844C50.8229 218.146 50.8229 219.406 50.7483 220.508C50.7389 221.478 50.3559 222.408 49.6789 223.103C49.4438 223.323 49.1652 223.491 48.8611 223.597C48.5569 223.702 48.234 223.743 47.9132 223.716C47.687 223.669 47.4651 223.602 47.25 223.517Z" fill="#455A64"/>
<path d="M15.7402 212.368C15.9253 212.468 16.1278 212.533 16.3371 212.558C16.8824 212.678 17.4372 212.75 17.9951 212.774C19.8872 212.853 21.7717 212.49 23.4987 211.713C25.2257 210.935 26.7474 209.766 27.9429 208.297C28.3033 207.854 28.6277 207.383 28.9128 206.888C29.0283 206.709 29.115 206.513 29.1698 206.308C29.1035 206.308 28.6642 207.054 27.7191 208.107C26.5066 209.479 25.0166 210.579 23.3475 211.334C21.6784 212.089 19.8682 212.48 18.0365 212.484C16.619 212.484 15.7485 212.301 15.7402 212.368Z" fill="#455A64"/>
<path d="M68.4306 204.906C68.4551 205.625 68.5893 206.335 68.8285 207.012C69.8598 210.36 71.9665 213.274 74.8221 215.302C75.3854 215.743 76.0149 216.093 76.6873 216.338C72.5727 213.722 69.6086 209.638 68.3975 204.915L68.4306 204.906Z" fill="#455A64"/>
<path d="M63.2995 72.3182C64.2642 72.4087 65.228 72.1366 66.0028 71.5548C66.7777 70.9731 67.3079 70.1235 67.4902 69.1719C67.6724 68.2203 67.4936 67.2349 66.9885 66.408C66.4834 65.5812 65.6884 64.9722 64.7586 64.6998C65.3395 64.0757 65.7089 63.2842 65.8142 62.438C65.9194 61.5918 65.7551 60.734 65.3446 59.9866C64.9342 59.2391 64.2985 58.6402 63.528 58.2749C62.7575 57.9096 61.8914 57.7965 61.053 57.9519C60.9956 57.115 60.7226 56.3073 60.2604 55.6073C59.7982 54.9073 59.1627 54.3389 58.4156 53.9575C57.6686 53.576 56.8355 53.3945 55.9975 53.4306C55.1594 53.4667 54.345 53.7191 53.6335 54.1634C52.6751 53.4097 51.4912 53 50.272 53C49.0527 53 47.8689 53.4097 46.9104 54.1634C46.0973 54.0435 45.2671 54.1849 44.5396 54.5673C43.812 54.9497 43.2247 55.5532 42.8623 56.2909C42.4999 57.0286 42.3812 57.8624 42.5232 58.6719C42.6652 59.4815 43.0607 60.225 43.6525 60.7953" fill="#263238"/>
<path d="M46.1726 58.0596H47.0016C51.1578 57.9608 55.1995 59.4271 58.3256 62.1678C61.4517 64.9085 63.434 68.7236 63.8798 72.8571C64.7087 80.8319 65.5377 89.6523 65.5958 93.9382C65.6952 102.817 56.8499 104.417 56.8499 104.417L57.8281 115.061L36.2745 114.912L33.4393 76.2808C32.4445 67.079 36.9459 58.8223 46.1726 58.0596Z" fill="#AE7461"/>
<path d="M56.9245 104.4C52.801 104.504 48.7347 103.419 45.2109 101.275C45.2109 101.275 48.1041 107.6 56.9411 106.588L56.9245 104.4Z" fill="#6F4439"/>
<path d="M60.5473 81.6443C60.5586 81.9744 60.4398 82.2958 60.2166 82.5392C59.9933 82.7826 59.6834 82.9286 59.3535 82.9458C59.1925 82.9629 59.0297 82.9476 58.8748 82.9006C58.7198 82.8537 58.5758 82.7761 58.4514 82.6725C58.3269 82.569 58.2245 82.4415 58.1502 82.2976C58.0759 82.1537 58.0313 81.9964 58.0189 81.835C58.0117 81.5051 58.1316 81.1852 58.3538 80.9414C58.576 80.6975 58.8835 80.5485 59.2126 80.5252C59.3741 80.5092 59.5371 80.5257 59.6921 80.5736C59.8471 80.6215 59.9909 80.6999 60.1153 80.8041C60.2396 80.9084 60.3418 81.0364 60.416 81.1806C60.4902 81.3249 60.5348 81.4826 60.5473 81.6443Z" fill="#263238"/>
<path d="M62.0815 77.2425C61.924 77.4083 60.9458 76.7285 59.5945 76.7616C58.2433 76.7948 57.2485 77.5077 57.1075 77.3419C56.9666 77.1761 57.1904 76.9689 57.6132 76.6373C58.1968 76.2181 58.8928 75.9842 59.6111 75.9658C60.3211 75.9466 61.0185 76.1558 61.6007 76.5627C61.9737 76.8694 62.1561 77.1679 62.0815 77.2425Z" fill="#263238"/>
<path d="M48.0878 81.6442C48.0991 81.9752 47.9806 82.2974 47.7576 82.5422C47.5345 82.7869 47.2246 82.9347 46.894 82.954C46.7332 82.97 46.5708 82.9538 46.4164 82.9064C46.2619 82.859 46.1183 82.7814 45.9941 82.678C45.8699 82.5746 45.7675 82.4476 45.6929 82.3043C45.6182 82.161 45.5728 82.0042 45.5593 81.8432C45.548 81.5122 45.6665 81.19 45.8895 80.9452C46.1126 80.7005 46.4225 80.5527 46.7531 80.5334C46.9141 80.5163 47.0769 80.5316 47.2319 80.5786C47.3868 80.6255 47.5308 80.7031 47.6553 80.8067C47.7797 80.9102 47.8821 81.0377 47.9564 81.1816C48.0307 81.3255 48.0754 81.4828 48.0878 81.6442Z" fill="#263238"/>
<path d="M48.7093 77.8228C48.56 77.9885 47.5735 77.3005 46.2223 77.3419C44.871 77.3834 43.8763 78.0797 43.7353 77.9139C43.5944 77.7481 43.8099 77.5409 44.241 77.2176C44.8178 76.7914 45.5135 76.5566 46.2306 76.5461C46.9419 76.5273 47.641 76.7332 48.2284 77.1347C48.6015 77.4497 48.7507 77.7481 48.7093 77.8228Z" fill="#263238"/>
<path d="M53.8741 87.8204C54.5855 87.5707 55.3271 87.4173 56.0792 87.3644C56.4273 87.323 56.7507 87.2401 56.8087 87.008C56.8271 86.6474 56.7377 86.2895 56.5517 85.98L55.4574 83.3521C53.9321 79.6051 52.8212 76.5296 52.9705 76.4632C53.1197 76.3969 54.4792 79.3896 56.0046 83.1366L57.0491 85.7811C57.279 86.1946 57.3554 86.6762 57.2646 87.1406C57.2206 87.2658 57.1472 87.3785 57.0505 87.4694C56.9539 87.5603 56.8368 87.6266 56.7092 87.6629C56.5177 87.7195 56.3201 87.7529 56.1206 87.7623C55.3771 87.8748 54.6224 87.8943 53.8741 87.8204Z" fill="#263238"/>
<path d="M49.7371 72.5255C49.563 72.8736 48.3858 72.5255 46.9434 72.5255C45.501 72.5255 44.2989 72.7824 44.158 72.426C44.0917 72.2602 44.3404 71.9369 44.8543 71.6467C45.5153 71.298 46.2543 71.1239 47.0014 71.141C47.7424 71.1519 48.4679 71.3547 49.107 71.7296C49.5879 72.0529 49.8117 72.3762 49.7371 72.5255Z" fill="#263238"/>
<path d="M61.9733 71.6137C61.6997 71.937 60.564 71.6137 59.2127 71.6137C57.8615 71.6137 56.7258 71.8872 56.4439 71.5639C56.3196 71.4147 56.4937 71.0997 56.991 70.793C57.673 70.4074 58.4461 70.2127 59.2293 70.2292C60.0079 70.2157 60.7757 70.4134 61.451 70.8012C61.9733 71.1494 62.1308 71.4644 61.9733 71.6137Z" fill="#263238"/>
<path d="M62.9352 68.8034C62.9352 68.8034 60.4482 63.2989 57.7457 62.072C54.4297 60.5799 53.1531 64.1694 50.0361 63.3818C46.9191 62.5943 43.7855 61.1602 40.6851 63.6305C37.2863 66.3247 38.9525 68.1237 38.8365 72.0696C38.3557 88.0525 35.5205 92.6451 34.534 85.1428C34.4263 84.3138 32.1217 83.7169 31.6989 80.2435C31.1518 75.7421 30.8699 70.2956 31.7735 67.0377C32.6025 64.3186 34.0532 62.4119 36.7474 60.2897C41.0333 56.9738 47.0186 56.7251 51.0889 57.0318C55.1593 57.3385 63.1341 61.8316 62.9352 68.8034Z" fill="#263238"/>
<path d="M35.097 84.8857C35.0774 84.5599 34.9922 84.2416 34.8465 83.9496C34.7007 83.6577 34.4975 83.3982 34.2489 83.1868C34.0004 82.9754 33.7116 82.8164 33.4001 82.7195C33.0885 82.6225 32.7606 82.5895 32.4359 82.6225C30.778 82.8215 28.9708 83.808 29.12 87.2234C29.4599 93.2916 35.4783 91.6999 35.4783 91.5258C35.4783 91.3518 35.2628 87.4472 35.097 84.8857Z" fill="#AE7461"/>
<path d="M34.0699 89.3125C34.0699 89.3125 33.9704 89.3954 33.7963 89.4865C33.6699 89.5539 33.5308 89.5938 33.388 89.6038C33.2452 89.6138 33.1018 89.5936 32.9673 89.5446C32.5619 89.3193 32.2238 88.9902 31.9878 88.591C31.7518 88.1918 31.6263 87.7369 31.6243 87.2731C31.5795 86.7529 31.6502 86.2292 31.8316 85.7395C31.8818 85.5511 31.9765 85.3774 32.1078 85.2331C32.2391 85.0889 32.4031 84.9783 32.586 84.9105C32.7056 84.8722 32.8349 84.8769 32.9515 84.9239C33.0681 84.9708 33.1646 85.057 33.2243 85.1675C33.3155 85.3333 33.2823 85.4577 33.3155 85.466C33.3486 85.4742 33.4398 85.3499 33.3735 85.1095C33.3371 84.9576 33.2455 84.8246 33.1165 84.7364C33.0312 84.6787 32.9351 84.6387 32.834 84.6188C32.7329 84.5989 32.6288 84.5994 32.5279 84.6204C32.2804 84.6817 32.0532 84.8064 31.8685 84.9823C31.6839 85.1582 31.5483 85.3792 31.4751 85.6235C31.2455 86.1617 31.1515 86.7481 31.2016 87.3312C31.3093 88.5498 32.0305 89.6606 32.8595 89.8181C33.0243 89.8579 33.1961 89.8592 33.3614 89.8218C33.5267 89.7844 33.6812 89.7094 33.8129 89.6026C34.0699 89.4617 34.0947 89.329 34.0699 89.3125Z" fill="#6F4439"/>
<path d="M34.9321 73.1224C35.6907 73.7065 36.5821 74.0938 37.5268 74.2498C38.0008 74.3107 38.4808 74.1983 38.8784 73.9332C39.276 73.6681 39.5644 73.2683 39.6905 72.8074C39.7568 72.3763 39.6407 71.8955 39.906 71.5556C40.1713 71.2157 40.8428 71.2654 41.3567 71.3069C43.1225 71.4561 45.1369 69.4582 45.5514 67.7257C45.7891 68.0485 46.141 68.2685 46.5353 68.3409C46.9296 68.4133 47.3367 68.3326 47.6736 68.1153C48.2239 67.7549 48.7088 67.3036 49.1078 66.7806C49.3351 66.4443 49.6413 66.1687 49.9997 65.9779C50.3581 65.7872 50.7577 65.6871 51.1637 65.6864C51.5939 65.8262 52.0391 65.9152 52.49 65.9516C53.319 65.8604 53.6506 64.9154 53.7501 64.1196C53.8496 63.3237 53.9242 62.4036 54.5791 61.9559C55.234 61.5083 56.005 61.7569 56.7428 61.8481C57.4806 61.9393 58.4007 61.7404 58.5914 61.0192C58.6187 60.826 58.6063 60.6294 58.5549 60.4413C58.5036 60.2531 58.4145 60.0774 58.293 59.9249C57.7832 59.2016 57.0438 58.672 56.195 58.4222C55.3461 58.1723 54.4377 58.217 53.6175 58.5488C53.2994 57.5435 52.6899 56.6553 51.8664 55.997C51.0428 55.3386 50.0422 54.9398 48.9915 54.8509C47.9409 54.7621 46.8876 54.9874 45.9652 55.4982C45.0427 56.0089 44.2928 56.7822 43.8105 57.7198C43.1522 57.1496 42.3658 56.7469 41.5183 56.5461C40.6709 56.3452 39.7874 56.3522 38.9432 56.5663C38.099 56.7804 37.319 57.1953 36.6697 57.7758C36.0204 58.3562 35.521 59.085 35.2139 59.9C34.4661 59.7224 33.6825 59.7685 32.9606 60.0326C32.2388 60.2967 31.6105 60.7672 31.1538 61.3855C30.6971 62.0038 30.4323 62.7427 30.3921 63.5103C30.352 64.2779 30.5384 65.0404 30.9281 65.7029C30.371 65.9982 29.8979 66.4298 29.5528 66.9575C29.2078 67.4852 29.0022 68.0917 28.9551 68.7204C28.9551 69.9722 30.2151 71.2074 31.442 70.8344C31.1952 71.3374 31.1523 71.9165 31.3224 72.4504C31.4925 72.9844 31.8624 73.4319 32.3548 73.6995C32.8471 73.9671 33.4239 74.034 33.9644 73.8863C34.505 73.7386 34.9675 73.3876 35.2554 72.9068" fill="#263238"/>
<path d="M54.1312 60.3228C54.1312 60.3228 54.1312 60.3228 54.1312 60.4305C54.1312 60.5383 54.1312 60.6212 54.1312 60.7621C54.0601 61.1738 53.9229 61.5713 53.725 61.9393C53.4016 62.5213 52.9511 63.0228 52.4069 63.4066C51.6847 63.9289 50.811 64.1998 49.92 64.1775L50.0194 64.0366C50.2045 64.5796 50.1748 65.1728 49.9365 65.6946C49.6769 66.2459 49.3391 66.7568 48.9335 67.2116C48.735 67.4693 48.513 67.708 48.2703 67.9246C47.9868 68.1231 47.6599 68.251 47.3169 68.2976C46.9603 68.3594 46.5939 68.3327 46.2499 68.22C45.9059 68.1073 45.5949 67.9119 45.344 67.651L45.5678 67.5764C45.5 68.2093 45.3006 68.8209 44.9822 69.372C44.6638 69.9231 44.2336 70.4015 43.7191 70.7763C43.1516 71.2169 42.4563 71.4613 41.7379 71.4726C41.0628 71.463 40.3949 71.3338 39.7649 71.0913L39.9224 71.0167C39.6284 71.7584 39.1522 72.4142 38.538 72.9234C38.2557 73.1781 37.9204 73.3667 37.5562 73.4757C37.192 73.5847 36.8081 73.6112 36.4323 73.5534C35.7934 73.4276 35.2045 73.1196 34.7367 72.6665C34.269 72.2135 33.9423 71.6347 33.7962 71.0001L33.9371 71.0582C33.3049 71.4121 32.5703 71.538 31.8563 71.4146C31.3258 71.3281 30.8232 71.118 30.389 70.8012C30.1155 70.6012 29.8797 70.3542 29.6927 70.0717C29.6266 69.977 29.5736 69.8738 29.5352 69.7649C29.7751 70.1383 30.0847 70.462 30.447 70.7183C30.8757 71.0103 31.3669 71.1977 31.8812 71.2654C32.5558 71.3712 33.2464 71.2425 33.8376 70.9006L33.9537 70.8343V70.9587C34.0946 71.5511 34.4047 72.0899 34.8463 72.5093C35.2878 72.9288 35.8417 73.2109 36.4406 73.3213C36.7822 73.3729 37.1311 73.3468 37.4612 73.2449C37.7914 73.143 38.0942 72.9679 38.3473 72.7327C38.9236 72.2451 39.3731 71.625 39.6571 70.9255V70.8095L39.7732 70.8509C40.3785 71.0769 41.0173 71.2001 41.6632 71.2157C42.3252 71.1961 42.9638 70.9668 43.487 70.5608C43.9852 70.2153 44.405 69.7688 44.7193 69.2503C45.0335 68.7318 45.235 68.153 45.3108 67.5515V67.2614L45.5097 67.4769C45.8439 67.8141 46.2855 68.0236 46.758 68.069C47.2305 68.1144 47.704 67.9929 48.0962 67.7256C48.3241 67.5219 48.5323 67.2971 48.7179 67.0541C49.1164 66.6235 49.4463 66.1342 49.6961 65.6034C49.9288 65.1308 49.9646 64.5853 49.7956 64.0864L49.7376 63.9371H49.8951C50.7376 63.9696 51.5675 63.725 52.2577 63.2408C52.7923 62.8796 53.2398 62.4038 53.5675 61.8481C53.8445 61.3772 54.0354 60.8606 54.1312 60.3228Z" fill="#455A64"/>
<path d="M54.2384 92.1558C54.2384 91.932 52.7213 92.2802 51.3618 91.2605C50.0023 90.2408 49.795 88.616 49.5878 88.6492C49.3805 88.6823 49.3805 89.072 49.5215 89.7435C49.7167 90.6172 50.2125 91.3947 50.9224 91.9403C51.6015 92.4634 52.459 92.6986 53.3099 92.5952C53.9482 92.504 54.2715 92.2553 54.2384 92.1558Z" fill="#263238"/>
<path d="M76.248 165.952L76.1651 163.946L72.186 115.036C70.9923 114.729 60.0579 112.383 60.0579 112.383L57.571 106.754L49.8779 111.728L35.2297 105.478L33.2319 110.974L17.1246 118.029L16.7516 118.808L19.6365 162.885L14.6211 190.922L15.7402 199.344L54.2799 205.296C56.2151 205.496 58.1687 205.42 60.0828 205.072L77.5661 201.848L79.4977 196.874L76.248 165.952Z" fill="#455A64"/>
<path d="M20.3415 117.125C20.3415 117.125 8.03102 118.534 5.60209 133.871C3.57936 146.645 -2.05776 175.32 0.785672 180.103C8.545 193.127 19.3882 182.781 19.3882 182.781L20.4244 164.676L21.9995 138.844L20.3415 117.125Z" fill="#455A64"/>
<path d="M72.0126 115.061C72.0126 115.061 83.6184 115.89 86.2214 128.573C87.1333 133 89.2887 172.286 89.2887 172.286L86.122 206.482L71.2002 205.28L70.0645 144.647L72.0126 115.061Z" fill="#455A64"/>
<path d="M14.9443 189.081C14.9522 188.943 14.9772 188.807 15.0189 188.675C15.1018 188.376 15.2013 187.995 15.3257 187.523C15.6241 186.47 16.0303 185.036 16.5277 183.237C17.6054 179.548 19.081 174.458 20.7804 168.613V168.696C20.6229 166.64 20.5317 164.477 20.4488 162.247C20.1753 154.587 20.0426 147.657 19.9017 142.641C19.8271 140.154 19.769 138.156 19.7276 136.697C19.7276 136.034 19.7276 135.495 19.6696 135.089C19.6554 134.899 19.6554 134.707 19.6696 134.517C19.7154 134.702 19.7432 134.891 19.7525 135.081C19.7525 135.446 19.8354 135.993 19.8851 136.689C19.9846 138.09 20.0924 140.121 20.1918 142.633C20.4157 147.648 20.598 154.579 20.8716 162.23C20.9545 164.452 21.0457 166.624 21.1866 168.663V168.738C19.4292 174.541 17.8707 179.631 16.793 183.311L15.4666 187.564C15.3174 188.028 15.193 188.393 15.0936 188.7C15.0561 188.831 15.0062 188.959 14.9443 189.081Z" fill="#263238"/>
<path d="M77.1442 131.234C77.2603 131.234 77.1442 136.863 76.8458 143.785C76.5473 150.707 76.2406 156.328 76.1246 156.32C76.0085 156.311 76.1245 150.699 76.4147 143.769C76.7048 136.838 77.0199 131.234 77.1442 131.234Z" fill="#263238"/>
<path d="M49.8952 111.72C49.8952 111.761 49.3397 112.416 48.5356 113.668C47.4488 115.338 46.482 117.084 45.6425 118.891L45.543 119.123L45.344 118.99L42.9648 117.415C40.3701 115.699 38.0406 114.099 36.3329 112.972L34.3599 111.587C34.1102 111.429 33.8794 111.243 33.6719 111.032C33.951 111.136 34.2156 111.275 34.4594 111.446C34.9485 111.745 35.6449 112.176 36.4987 112.723C38.223 113.809 40.5773 115.343 43.1306 117.059L45.5015 118.634L45.1948 118.725C46.0546 116.901 47.0784 115.158 48.2538 113.519C48.5932 113.041 48.9614 112.584 49.3563 112.151C49.5118 111.98 49.6937 111.834 49.8952 111.72Z" fill="#263238"/>
<path d="M50.9066 115.135C50.9152 115.215 50.9152 115.296 50.9066 115.376C50.9066 115.558 50.9066 115.782 50.9066 116.072C50.9066 116.719 50.9729 117.614 51.0227 118.75C51.1138 121.079 51.205 124.453 51.2962 128.615C51.4703 136.946 51.5532 148.461 51.346 161.169C51.1387 173.878 50.6662 185.392 50.2185 193.715C49.9947 197.86 49.7875 201.234 49.6217 203.564C49.5388 204.699 49.4724 205.595 49.4227 206.233C49.4227 206.523 49.373 206.747 49.3564 206.929C49.365 207.009 49.365 207.09 49.3564 207.17C49.3474 207.09 49.3474 207.009 49.3564 206.929C49.3564 206.747 49.3564 206.515 49.3564 206.233C49.3564 205.586 49.4227 204.691 49.4724 203.547C49.5802 201.193 49.7377 197.835 49.9284 193.699C50.3014 185.409 50.7574 173.878 50.9315 161.161C51.1056 148.444 51.1055 136.946 51.0061 128.623C50.948 124.478 50.8983 121.162 50.8651 118.758C50.8651 117.614 50.8651 116.719 50.8651 116.072V115.376C50.8717 115.295 50.8856 115.214 50.9066 115.135Z" fill="#263238"/>
<path d="M58.5576 138.745C58.864 138.726 59.1714 138.726 59.4778 138.745L62.1637 138.695L71.8712 138.596H72.0701V138.795C71.896 142.558 71.6971 146.977 71.4898 151.677V151.818L71.3489 151.868L64.5097 154.355H64.4351H64.3522L58.8395 151.868L58.7317 151.818V151.702C58.6737 147.847 58.6239 144.622 58.5908 142.301C58.5908 141.224 58.5908 140.353 58.5908 139.707C58.5719 139.411 58.5719 139.115 58.5908 138.82C58.5908 138.82 58.5908 139.168 58.6571 139.781C58.7234 140.395 58.7234 141.323 58.7731 142.417C58.856 144.705 58.9638 147.889 59.0965 151.694L58.9887 151.528L64.5263 154.015H64.3688L71.208 151.528L71.0588 151.719C71.2992 147.018 71.5147 142.6 71.6971 138.844L71.8877 139.043L62.2881 138.844L59.5607 138.795C58.9224 138.77 58.5742 138.762 58.5576 138.745Z" fill="#263238"/>
<path d="M59.8013 112.856C59.4881 113.43 59.0851 113.951 58.6075 114.398C58.1213 114.913 57.6036 115.397 57.0573 115.848C56.7506 116.105 56.419 116.362 56.0625 116.611C55.8759 116.754 55.6761 116.879 55.4657 116.984C55.3362 117.046 55.1946 117.078 55.0512 117.078C54.9077 117.078 54.7661 117.046 54.6367 116.984C54.2501 116.727 53.8917 116.429 53.5673 116.097C53.2523 115.799 52.9538 115.509 52.6803 115.218C52.1249 114.646 51.6523 114.108 51.271 113.643C50.8289 113.161 50.4551 112.62 50.1602 112.035C50.6413 112.469 51.0901 112.937 51.5031 113.436C51.9093 113.876 52.3984 114.389 52.9621 114.945C53.2357 115.218 53.5424 115.5 53.8574 115.774C54.1593 116.074 54.4835 116.352 54.8274 116.603C55.1258 116.777 55.4657 116.528 55.8221 116.28C56.1786 116.031 56.5102 115.799 56.8169 115.558C57.4387 115.078 57.9609 114.605 58.4003 114.199C58.8383 113.722 59.3062 113.273 59.8013 112.856Z" fill="#263238"/>
<path d="M9.14143 166.251C9.14143 166.251 7.96427 165.364 4.54055 166.632C1.11683 167.901 1.2246 177.467 1.2246 177.467C1.2246 177.467 0.975905 182.441 8.45337 183.701C15.9308 184.961 19.3794 179.904 19.3794 179.904L22.9026 172.302L9.14143 166.251Z" fill="#AE7461"/>
<path d="M21.2617 164.668C21.7053 164.318 22.2323 164.091 22.7906 164.008C23.3489 163.925 23.9192 163.99 24.445 164.195C26.2522 164.916 25.3238 167.934 25.3238 167.934L22.7124 166.657L21.2617 164.668Z" fill="#AE7461"/>
<path d="M10.3022 158.947C15.0606 162.993 31.5077 177.135 31.5077 177.135L34.5003 178.072L33.3729 175.154L12.441 156.502C12.1164 156.222 11.6959 156.078 11.2678 156.101C10.8396 156.124 10.4371 156.313 10.1447 156.626C9.86097 156.956 9.71848 157.385 9.74795 157.819C9.77742 158.253 9.97648 158.659 10.3022 158.947Z" fill="#C53030"/>
<path d="M21.643 167.411C21.8432 167.153 21.9626 166.841 21.9862 166.515C22.0098 166.189 21.9366 165.864 21.7757 165.579C21.1871 164.634 20.2918 164.626 19.2887 164.584C16.3388 164.798 13.4026 165.172 10.4931 165.704C8.73568 166.077 6.29845 168.191 7.17718 170.396L7.93156 171.291C7.93156 171.291 6.0166 173.662 7.17718 175.32L8.53672 176.306C8.53672 176.306 7.91498 179.423 9.36571 180.178C10.3601 180.612 11.4763 180.68 12.5159 180.368C13.6497 180.865 14.8758 181.117 16.1137 181.106C17.9706 181.032 24.7932 175.428 25.2325 174.905C25.4898 174.588 25.6403 174.198 25.6626 173.79C25.6849 173.382 25.5779 172.977 25.3569 172.634C25.594 172.02 25.594 171.341 25.3569 170.727C25.2941 170.444 25.1385 170.19 24.9147 170.005C24.6909 169.82 24.4118 169.716 24.1217 169.708C24.139 169.111 23.9518 168.526 23.5911 168.05C23.0055 167.677 22.3356 167.458 21.643 167.411Z" fill="#AE7461"/>
<path d="M21.6433 167.412C21.7286 167.4 21.815 167.4 21.9003 167.412C22.148 167.434 22.3943 167.47 22.6381 167.519C23.0559 167.586 23.4418 167.784 23.7407 168.083C24.0579 168.561 24.2174 169.126 24.1966 169.7L24.0806 169.592C24.3884 169.601 24.6852 169.708 24.9282 169.897C25.1711 170.087 25.3475 170.348 25.4318 170.645C25.6858 171.298 25.6858 172.022 25.4318 172.676V172.535C25.601 172.794 25.7116 173.087 25.756 173.393C25.8004 173.7 25.7774 174.012 25.6888 174.309C25.5899 174.626 25.4099 174.912 25.1665 175.138C24.9344 175.362 24.7023 175.569 24.4536 175.784C23.4671 176.613 22.3894 177.484 21.2206 178.354C20.0013 179.285 18.7095 180.117 17.3575 180.841C17.1753 180.942 16.9837 181.026 16.7855 181.09C16.5826 181.178 16.3673 181.234 16.1472 181.256C15.7241 181.287 15.2989 181.273 14.8788 181.214C14.0213 181.1 13.1841 180.865 12.3918 180.518H12.5411C11.7163 180.761 10.8432 180.79 10.0044 180.601C9.54808 180.508 9.12797 180.287 8.79403 179.962C8.50033 179.6 8.31115 179.164 8.2469 178.702C8.12986 177.876 8.14946 177.036 8.30493 176.215L8.38783 176.431L7.02829 175.444C6.81067 175.106 6.67358 174.723 6.62759 174.323C6.5816 173.923 6.62793 173.519 6.76301 173.14C6.98019 172.431 7.31967 171.767 7.76609 171.175V171.44L7.01171 170.545C6.87387 170.184 6.81088 169.799 6.82655 169.412C6.84223 169.026 6.93624 168.647 7.1029 168.299C7.41729 167.65 7.87682 167.083 8.44586 166.641C8.974 166.206 9.58238 165.879 10.2365 165.679C10.8914 165.513 11.5048 165.439 12.11 165.339C14.5223 164.983 16.6528 164.734 18.4352 164.593C18.8601 164.56 19.2869 164.56 19.7118 164.593C20.0978 164.606 20.4801 164.673 20.8475 164.792C21.1404 164.896 21.4036 165.069 21.6145 165.297C21.8253 165.526 21.9775 165.802 22.0578 166.102C22.1435 166.479 22.0874 166.874 21.9003 167.213C21.776 167.436 21.6848 167.528 21.6765 167.519C21.6682 167.511 21.7428 167.412 21.8423 167.179C21.9821 166.849 22.0112 166.483 21.9252 166.135C21.8411 165.864 21.6934 165.617 21.4943 165.415C21.2953 165.214 21.0508 165.062 20.7812 164.974C20.4302 164.876 20.068 164.823 19.7035 164.817C19.2884 164.797 18.8723 164.814 18.46 164.867C16.6943 165.041 14.5638 165.322 12.1597 165.696C11.5711 165.803 10.9328 165.886 10.3442 166.044C9.73832 166.239 9.17548 166.548 8.68627 166.956C8.16604 167.365 7.74872 167.89 7.46765 168.489C7.32579 168.791 7.24608 169.118 7.23326 169.452C7.22044 169.785 7.27478 170.117 7.39305 170.429V170.371C7.64174 170.669 7.89873 170.96 8.14742 171.266L8.25519 171.391L8.15571 171.523C7.73609 172.071 7.41619 172.688 7.21067 173.347C7.09657 173.665 7.05594 174.005 7.09183 174.341C7.12772 174.677 7.2392 175 7.41792 175.287L7.36817 175.237L8.6614 176.149L8.76916 176.232V176.365C8.62419 177.136 8.60738 177.926 8.71943 178.702C8.76514 179.085 8.91738 179.447 9.15879 179.747C9.43068 180.01 9.77349 180.189 10.1453 180.261C10.9106 180.427 11.7052 180.402 12.4582 180.186H12.5328H12.6074C13.3618 180.512 14.1564 180.735 14.97 180.849C15.3627 180.903 15.7596 180.92 16.1554 180.899C16.3375 180.875 16.5157 180.827 16.686 180.758C16.8687 180.695 17.0461 180.617 17.2166 180.526C18.5516 179.8 19.8268 178.968 21.0299 178.039C22.1988 177.21 23.2847 176.331 24.2712 175.552C24.7603 175.121 25.2743 174.773 25.4235 174.242C25.5022 173.99 25.5252 173.724 25.4908 173.462C25.4565 173.2 25.3656 172.949 25.2246 172.725V172.651V172.576C25.7054 171.399 25.1251 169.807 24.1303 169.824H24.0142V169.716C24.0484 169.188 23.9212 168.662 23.6495 168.207C23.3775 167.927 23.0284 167.734 22.6464 167.652C21.9915 167.461 21.6351 167.436 21.6433 167.412Z" fill="#6F4439"/>
<path d="M21.643 167.411C21.643 167.527 19.1975 167.9 16.238 168.729C14.47 169.307 12.664 169.762 10.833 170.089C11.313 169.82 11.8257 169.614 12.3583 169.476C13.3117 169.152 14.6381 168.721 16.1302 168.315C17.9127 167.741 19.7707 167.437 21.643 167.411Z" fill="#6F4439"/>
<path d="M24.0885 169.691C23.5779 170.09 23.0212 170.427 22.4305 170.694C21.3777 171.266 19.8938 172.021 18.2193 172.767C16.787 173.408 15.317 173.962 13.8173 174.425C13.2057 174.651 12.5678 174.798 11.9189 174.864C12.4963 174.569 13.0982 174.325 13.7178 174.134C14.837 173.712 16.3706 173.098 18.0452 172.352C21.3528 170.868 24.0305 169.575 24.0885 169.691Z" fill="#6F4439"/>
<path d="M25.3242 172.617C24.9074 173.014 24.4488 173.364 23.9563 173.662C23.1273 174.259 21.8839 175.096 20.5243 175.967C19.3686 176.727 18.1608 177.406 16.9099 177.998C16.3911 178.277 15.8316 178.472 15.252 178.578C15.7202 178.257 16.2169 177.979 16.7358 177.749C17.656 177.243 18.9078 176.497 20.259 175.627C23.0113 173.828 25.2495 172.493 25.3242 172.617Z" fill="#6F4439"/>
<path d="M97.0232 213.155H54.5127C54.0517 213.185 53.5976 213.032 53.2485 212.729C52.8995 212.427 52.6835 211.999 52.6475 211.539V157.986C52.6601 157.754 52.7186 157.527 52.8193 157.318C52.9201 157.109 53.0613 156.923 53.2347 156.768C53.4081 156.614 53.6103 156.496 53.8297 156.42C54.049 156.345 54.2811 156.313 54.5127 156.328H97.0149C97.2464 156.313 97.4786 156.345 97.6979 156.42C97.9173 156.496 98.1195 156.614 98.2929 156.768C98.4663 156.923 98.6074 157.109 98.7082 157.318C98.809 157.527 98.8674 157.754 98.8801 157.986V211.539C98.844 211.998 98.6292 212.424 98.282 212.726C97.9348 213.029 97.4827 213.183 97.0232 213.155Z" fill="#E0E0E0"/>
<path d="M97.0232 213.155H97.1641C97.3036 213.142 97.4421 213.12 97.5786 213.089C97.7966 213.024 98.0034 212.926 98.192 212.799C98.4368 212.629 98.6315 212.397 98.7558 212.127C98.8263 211.973 98.8657 211.807 98.8718 211.638C98.8718 211.464 98.8718 211.273 98.8718 211.083C98.8718 210.693 98.8718 210.254 98.8718 209.798V206.589C98.8718 201.756 98.8718 194.776 98.8718 186.138V172.004C98.8718 169.467 98.8718 166.839 98.8718 164.137V157.911C98.8546 157.554 98.7072 157.214 98.4573 156.958C98.1853 156.681 97.8355 156.493 97.4543 156.419C97.2503 156.398 97.0447 156.398 96.8408 156.419H54.5127C54.0553 156.412 53.6096 156.564 53.2526 156.85C53.0887 156.977 52.9537 157.137 52.8565 157.32C52.7593 157.503 52.7022 157.704 52.6889 157.911C52.6889 158.74 52.6889 159.569 52.6889 160.357V192.588C52.6889 198.3 52.6889 203.721 52.6889 208.795V210.685C52.6889 211 52.6889 211.306 52.6889 211.613C52.7061 211.918 52.8225 212.209 53.0205 212.442C53.2398 212.701 53.5269 212.893 53.8495 212.997C54.0099 213.055 54.1771 213.091 54.3469 213.105C54.5127 213.105 54.6868 213.105 54.8609 213.105C54.6868 213.105 54.5127 213.105 54.3386 213.105C54.1635 213.09 53.991 213.054 53.8246 212.997C53.5016 212.881 53.2155 212.681 52.9956 212.417C52.7859 212.174 52.6634 211.868 52.6475 211.547C52.6475 211.232 52.6475 210.925 52.6475 210.61V174.673C52.6475 171.565 52.6475 168.406 52.6475 165.198V160.348C52.6475 159.519 52.6475 158.69 52.6475 157.903C52.6624 157.686 52.7225 157.474 52.8238 157.281C52.9252 157.089 53.0656 156.919 53.236 156.784C53.6137 156.486 54.0814 156.325 54.5624 156.328H96.8408C97.0517 156.317 97.2632 156.331 97.4708 156.369C97.8701 156.443 98.2373 156.637 98.5236 156.925C98.7829 157.197 98.9359 157.553 98.9547 157.928V172.021C98.9547 177.094 98.9547 181.828 98.9547 186.113C98.9547 194.751 98.9547 201.732 98.9547 206.565V209.773C98.9547 210.237 98.9547 210.668 98.9547 211.058C98.9547 211.248 98.9547 211.439 98.9547 211.613C98.9409 211.785 98.8989 211.953 98.8304 212.11C98.7015 212.38 98.5043 212.612 98.2584 212.782C98.0698 212.907 97.8628 213.002 97.6449 213.064C97.5074 213.104 97.3653 213.126 97.2221 213.13L97.0232 213.155Z" fill="#263238"/>
<g opacity="0.3">
<path d="M57.041 211.746L95.8128 211.563L96.2522 205.081L95.0667 201.168L56.6846 206.357L57.041 211.746Z" fill="black"/>
</g>
<path d="M97.0232 213.155H97.1641C97.3036 213.142 97.4421 213.12 97.5786 213.089C97.7966 213.024 98.0034 212.926 98.192 212.799C98.4368 212.629 98.6315 212.397 98.7558 212.127C98.8263 211.973 98.8657 211.807 98.8718 211.638C98.8718 211.464 98.8718 211.273 98.8718 211.083C98.8718 210.693 98.8718 210.254 98.8718 209.798V206.589C98.8718 201.756 98.8718 194.776 98.8718 186.138V172.004C98.8718 169.467 98.8718 166.839 98.8718 164.137V157.911C98.8546 157.554 98.7072 157.214 98.4573 156.958C98.1853 156.681 97.8355 156.493 97.4543 156.419C97.2503 156.398 97.0447 156.398 96.8408 156.419H54.5127C54.0553 156.412 53.6096 156.564 53.2526 156.85C53.0887 156.977 52.9537 157.137 52.8565 157.32C52.7593 157.503 52.7022 157.704 52.6889 157.911C52.6889 158.74 52.6889 159.569 52.6889 160.357V192.588C52.6889 198.3 52.6889 203.721 52.6889 208.795V210.685C52.6889 211 52.6889 211.306 52.6889 211.613C52.7061 211.918 52.8225 212.209 53.0205 212.442C53.2398 212.701 53.5269 212.893 53.8495 212.997C54.0099 213.055 54.1771 213.091 54.3469 213.105C54.5127 213.105 54.6868 213.105 54.8609 213.105C54.6868 213.105 54.5127 213.105 54.3386 213.105C54.1635 213.09 53.991 213.054 53.8246 212.997C53.5016 212.881 53.2155 212.681 52.9956 212.417C52.7859 212.174 52.6634 211.868 52.6475 211.547C52.6475 211.232 52.6475 210.925 52.6475 210.61V174.673C52.6475 171.565 52.6475 168.406 52.6475 165.198V160.348C52.6475 159.519 52.6475 158.69 52.6475 157.903C52.6624 157.686 52.7225 157.474 52.8238 157.281C52.9252 157.089 53.0656 156.919 53.236 156.784C53.6137 156.486 54.0814 156.325 54.5624 156.328H96.8408C97.0517 156.317 97.2632 156.331 97.4708 156.369C97.8701 156.443 98.2373 156.637 98.5236 156.925C98.7829 157.197 98.9359 157.553 98.9547 157.928V172.021C98.9547 177.094 98.9547 181.828 98.9547 186.113C98.9547 194.751 98.9547 201.732 98.9547 206.565V209.773C98.9547 210.237 98.9547 210.668 98.9547 211.058C98.9547 211.248 98.9547 211.439 98.9547 211.613C98.9409 211.785 98.8989 211.953 98.8304 212.11C98.7015 212.38 98.5043 212.612 98.2584 212.782C98.0698 212.907 97.8628 213.002 97.6449 213.064C97.5074 213.104 97.3653 213.126 97.2221 213.13L97.0232 213.155Z" fill="#263238"/>
<g opacity="0.3">
<path d="M57.041 211.746L95.8128 211.563L96.2522 205.081L95.0667 201.168L56.6846 206.357L57.041 211.746Z" fill="black"/>
</g>
<path d="M96.5503 158.657H54.9932V210.477H96.5503V158.657Z" fill="white"/>
<path d="M96.5503 210.469C96.5503 210.171 96.5503 189.239 96.5089 158.657H96.5503H54.9932C54.9932 178.114 54.9932 196.094 54.9932 210.469C54.9932 196.094 54.9932 178.139 54.9932 158.657V158.616H96.6249C96.5669 189.239 96.5503 210.179 96.5503 210.469Z" fill="#263238"/>
<path d="M66.4578 172.667H57.3721V174.483H66.4578V172.667Z" fill="#E0E0E0"/>
<path d="M85.7734 168.713H67.5605V170.528H85.7734V168.713Z" fill="#F5F5F5"/>
<path d="M65.9442 168.68H57.2812V170.495H65.9442V168.68Z" fill="#F5F5F5"/>
<path d="M93.4088 168.705H86.8184V170.52H93.4088V168.705Z" fill="#F5F5F5"/>
<path d="M69.0529 198.847H57.3311V200.911H69.0529V198.847Z" fill="#E0E0E0"/>
<path d="M93.276 177.21H57.3311V179.274H93.276V177.21Z" fill="#E0E0E0"/>
<path d="M92.6454 181.952C92.6454 182.076 84.9027 182.167 75.3444 182.167C65.7862 182.167 58.0518 182.076 58.0518 181.952C58.0518 181.828 65.7945 181.736 75.3444 181.736C84.8944 181.736 92.6454 181.794 92.6454 181.952Z" fill="#263238"/>
<path d="M92.6454 183.709C92.6454 183.825 84.9027 183.925 75.3444 183.925C65.7862 183.925 58.0518 183.825 58.0518 183.709C58.0518 183.593 65.7945 183.494 75.3444 183.494C84.8944 183.494 92.6454 183.61 92.6454 183.709Z" fill="#263238"/>
<path d="M92.6454 185.5C92.6454 185.616 84.9027 185.715 75.3444 185.715C65.7862 185.715 58.0518 185.616 58.0518 185.5C58.0518 185.384 65.7945 185.284 75.3444 185.284C84.8944 185.284 92.6454 185.384 92.6454 185.5Z" fill="#263238"/>
<path d="M73.4382 187.29C70.8718 187.509 68.295 187.581 65.7203 187.506C63.1485 187.581 60.5744 187.509 58.0107 187.29C60.5747 187.077 63.1485 187.005 65.7203 187.075C68.295 187.005 70.8715 187.077 73.4382 187.29Z" fill="#263238"/>
<path d="M92.6454 189.081C92.6454 189.206 84.9027 189.297 75.3444 189.297C65.7862 189.297 58.0518 189.206 58.0518 189.081C58.0518 188.957 65.7945 188.866 75.3444 188.866C84.8944 188.866 92.6454 188.965 92.6454 189.081Z" fill="#263238"/>
<path d="M92.6454 190.88C92.6454 190.996 84.9027 191.096 75.3444 191.096C65.7862 191.096 58.0518 190.996 58.0518 190.88C58.0518 190.764 65.7945 190.665 75.3444 190.665C84.8944 190.665 92.6454 190.756 92.6454 190.88Z" fill="#263238"/>
<path d="M85.7321 192.671C85.7321 192.787 79.523 192.886 71.8714 192.886C64.2199 192.886 58.0107 192.787 58.0107 192.671C58.0107 192.555 64.2116 192.455 71.8714 192.455C79.5313 192.455 85.7321 192.546 85.7321 192.671Z" fill="#263238"/>
<path d="M92.6454 194.461C92.6454 194.586 84.9027 194.677 75.3444 194.677C65.7862 194.677 58.0518 194.586 58.0518 194.461C58.0518 194.337 65.7945 194.246 75.3444 194.246C84.8944 194.246 92.6454 194.387 92.6454 194.461Z" fill="#263238"/>
<path d="M92.6454 196.252C92.6454 196.376 84.9027 196.467 75.3444 196.467C65.7862 196.467 58.0518 196.376 58.0518 196.252C58.0518 196.128 65.7945 196.036 75.3444 196.036C84.8944 196.036 92.6454 196.136 92.6454 196.252Z" fill="#263238"/>
<path d="M67.9751 154.836H85.5911C86.0814 154.836 86.5516 155.03 86.8983 155.377C87.245 155.724 87.4397 156.194 87.4397 156.684V160.664H66.1182V156.684C66.1182 156.441 66.1663 156.2 66.2597 155.975C66.3531 155.75 66.49 155.546 66.6625 155.374C66.8351 155.202 67.0399 155.066 67.2651 154.974C67.4904 154.882 67.7316 154.835 67.9751 154.836Z" fill="#263238"/>
<path d="M79.4977 152.639H74.0762L74.7062 157.024H78.7931L79.4977 152.639Z" fill="#263238"/>
<path d="M86.0723 154.836C86.0723 154.836 81.9273 154.877 76.7876 154.877C71.6479 154.877 67.5029 154.877 67.5029 154.836C67.5029 154.794 71.6479 154.786 76.7876 154.786C81.9273 154.786 86.0723 154.811 86.0723 154.836Z" fill="#455A64"/>
<path d="M66.6069 159.719C66.6069 159.719 66.5654 158.89 66.5654 157.878C66.5654 156.867 66.5654 156.038 66.6069 156.038C66.6483 156.038 66.6069 156.867 66.6069 157.878C66.6069 158.89 66.6318 159.719 66.6069 159.719Z" fill="#455A64"/>
<path d="M86.7521 159.279C86.6868 158.175 86.6868 157.067 86.7521 155.963C86.8066 157.068 86.8066 158.174 86.7521 159.279Z" fill="#455A64"/>
<path d="M85.7239 160.05C85.7239 160.05 81.4547 160.1 76.1906 160.1C70.9265 160.1 66.6572 160.1 66.6572 160.05C66.6572 160 70.9265 160.009 76.1906 160.009C81.4547 160.009 85.7239 160.033 85.7239 160.05Z" fill="#455A64"/>
<g opacity="0.3">
<path d="M87.4393 156.494L88.318 158.964V160.166H87.3232L87.4393 156.494Z" fill="black"/>
</g>
<path d="M66.0518 166.483C65.8104 166.364 65.6067 166.18 65.4632 165.952C65.3138 165.726 65.2358 165.461 65.2394 165.19C65.2357 164.916 65.3136 164.648 65.4632 164.419C65.6072 164.193 65.811 164.013 66.0518 163.896C66.3092 163.768 66.5933 163.703 66.8808 163.706C67.1385 163.7 67.3948 163.745 67.6352 163.838C67.8487 163.93 68.0386 164.069 68.1906 164.245L67.6434 164.709C67.5569 164.603 67.4481 164.518 67.3249 164.459C67.2017 164.401 67.067 164.37 66.9305 164.369C66.7769 164.363 66.6248 164.401 66.4911 164.477C66.364 164.536 66.2594 164.635 66.1927 164.759C66.1182 164.89 66.081 165.039 66.085 165.19C66.0825 165.338 66.1197 165.484 66.1927 165.612C66.2589 165.738 66.3634 165.84 66.4911 165.903C66.6818 165.997 66.8984 166.025 67.1069 165.983C67.3154 165.941 67.5041 165.831 67.6434 165.67L68.1906 166.135C68.0404 166.31 67.8498 166.447 67.6352 166.533C67.3953 166.629 67.139 166.676 66.8808 166.674C66.5937 166.672 66.3105 166.607 66.0518 166.483Z" fill="#263238"/>
<path d="M69.1934 166.483C68.9492 166.361 68.7406 166.179 68.5883 165.952C68.4475 165.723 68.373 165.459 68.373 165.19C68.373 164.92 68.4475 164.656 68.5883 164.427C68.7382 164.199 68.9474 164.015 69.1934 163.896C69.4635 163.771 69.7578 163.706 70.0556 163.706C70.3534 163.706 70.6476 163.771 70.9177 163.896C71.1637 164.015 71.3729 164.199 71.5229 164.427C71.6636 164.656 71.7381 164.92 71.7381 165.19C71.7381 165.459 71.6636 165.723 71.5229 165.952C71.3705 166.179 71.162 166.361 70.9177 166.483C70.6476 166.608 70.3534 166.673 70.0556 166.673C69.7578 166.673 69.4635 166.608 69.1934 166.483ZM70.4701 165.903C70.5943 165.835 70.6975 165.735 70.7685 165.612C70.8346 165.484 70.8692 165.342 70.8692 165.198C70.8692 165.054 70.8346 164.912 70.7685 164.783C70.6973 164.663 70.5939 164.566 70.4701 164.502C70.344 164.429 70.2011 164.39 70.0556 164.39C69.91 164.39 69.7671 164.429 69.6411 164.502C69.5172 164.566 69.4138 164.663 69.3426 164.783C69.2765 164.912 69.242 165.054 69.242 165.198C69.242 165.342 69.2765 165.484 69.3426 165.612C69.4136 165.735 69.5169 165.835 69.6411 165.903C69.7694 165.968 69.9115 166.002 70.0556 166.002C70.1997 166.002 70.3417 165.968 70.4701 165.903Z" fill="#263238"/>
<path d="M75.071 163.764V166.616H74.4078L73.0731 165.09V166.616H72.2441V163.764H72.9571L74.2917 165.281V163.764H75.071Z" fill="#263238"/>
<path d="M76.0657 166.583C75.8659 166.542 75.6749 166.467 75.502 166.359L75.7838 165.762C75.9282 165.852 76.0844 165.922 76.248 165.969C76.4207 166.018 76.5992 166.043 76.7786 166.044C77.1102 166.044 77.276 165.969 77.276 165.812C77.2743 165.77 77.2599 165.731 77.2346 165.698C77.2094 165.665 77.1746 165.641 77.135 165.629C76.9872 165.574 76.8346 165.532 76.6791 165.505C76.4711 165.479 76.2658 165.435 76.0657 165.372C75.9139 165.326 75.7786 165.236 75.676 165.115C75.5619 164.985 75.5025 164.816 75.5102 164.643C75.5072 164.476 75.5597 164.312 75.6595 164.178C75.7768 164.025 75.9347 163.907 76.1154 163.839C76.3651 163.749 76.6294 163.707 76.8946 163.714C77.0923 163.713 77.2896 163.732 77.4832 163.772C77.6607 163.809 77.8314 163.873 77.9889 163.963L77.7236 164.543C77.4688 164.404 77.1848 164.328 76.8946 164.319C76.7659 164.311 76.6373 164.337 76.5216 164.394C76.4879 164.412 76.4594 164.438 76.4391 164.47C76.4187 164.502 76.4071 164.538 76.4055 164.576C76.4063 164.617 76.4206 164.656 76.4461 164.688C76.4717 164.719 76.507 164.741 76.5465 164.75C76.6916 164.804 76.8415 164.843 76.9941 164.867C77.1873 164.906 77.3783 164.956 77.5661 165.016C77.7139 165.071 77.8471 165.159 77.9557 165.273C78.0153 165.336 78.0614 165.41 78.0914 165.491C78.1213 165.572 78.1344 165.659 78.1298 165.745C78.1253 165.912 78.0704 166.074 77.9723 166.21C77.8539 166.36 77.6961 166.475 77.5164 166.541C77.2836 166.63 77.0358 166.672 76.7869 166.665C76.5439 166.669 76.3015 166.641 76.0657 166.583Z" fill="#263238"/>
<path d="M80.9157 165.994V166.616H78.4785V163.764H80.8577V164.386H79.3241V164.866H80.6753V165.472H79.3241V165.994H80.9157Z" fill="#263238"/>
<path d="M84.2731 163.764V166.616H83.5684L82.2255 165.09V166.616H81.3965V163.764H82.1011L83.4358 165.281V163.764H84.2731Z" fill="#263238"/>
<path d="M85.5247 164.402H84.5879V163.764H87.307V164.402H86.3785V166.616H85.5495L85.5247 164.402Z" fill="#263238"/>
<path d="M83.3861 214.398L82.4162 212.856C82.4162 212.856 82.0432 208.977 80.2608 208.902C78.4785 208.828 78.1552 210.975 78.1552 210.975C78.1031 210.524 77.8991 210.104 77.5766 209.785C77.2542 209.465 76.8325 209.265 76.3812 209.217C74.7647 209.043 74.7232 211.132 74.7232 211.132C74.7232 211.132 74.574 208.745 73.2725 208.935C72.8676 209.019 72.4862 209.191 72.1553 209.439C71.8243 209.687 71.552 210.005 71.3575 210.369C71.3575 210.369 71.3575 208.421 70.7026 208.206C70.3501 208.099 69.9722 208.113 69.6284 208.245C69.2847 208.377 68.9947 208.62 68.8042 208.935C68.2405 209.698 68.4892 213.312 68.4892 213.312C68.5057 213.695 68.6543 214.061 68.9097 214.346C69.1651 214.632 69.5116 214.82 69.8902 214.879L70.9928 214.689C70.9928 214.689 70.686 218.195 73.1564 218.535C75.6268 218.875 75.5356 217.789 75.5356 217.789C75.8683 218.229 76.3157 218.57 76.8289 218.773C77.3421 218.976 77.9013 219.034 78.4454 218.941C80.2608 218.568 80.0287 217.466 80.0287 217.466C80.0287 217.466 81.9603 218.295 82.8224 217.665C83.6846 217.035 83.3861 214.398 83.3861 214.398Z" fill="#AE7461"/>
<path d="M70.9508 214.796C70.717 214.001 70.6464 213.167 70.7433 212.343C70.8402 211.52 71.1025 210.724 71.5145 210.005C71.4514 210.807 71.3379 211.604 71.1747 212.392C71.1517 213.198 71.0769 214.001 70.9508 214.796Z" fill="#6F4439"/>
<path d="M75.6354 217.905C75.0432 216.827 74.7058 215.627 74.6489 214.399C74.4579 213.185 74.5257 211.945 74.8479 210.759C74.9805 210.759 74.8479 212.417 75.08 214.357C75.3121 216.297 75.7598 217.864 75.6354 217.905Z" fill="#6F4439"/>
<path d="M80.1532 217.516C80.1118 217.516 79.8299 217.259 79.5232 216.687C79.1612 215.952 78.8831 215.179 78.6942 214.382C78.3446 213.277 78.1684 212.125 78.1719 210.967C78.586 212.041 78.8996 213.151 79.1087 214.283C79.305 215.057 79.543 215.821 79.8216 216.571C80.0206 217.143 80.2112 217.474 80.1532 217.516Z" fill="#6F4439"/>
</svg>
