<svg width="416" height="406" viewBox="0 0 416 406" fill="none" xmlns="http://www.w3.org/2000/svg">
<path d="M133.886 0H130.079V17.0482H133.886V0Z" fill="#E0E0E0"/>
<path d="M123.459 6.62034V10.4277L140.507 10.4277V6.62034L123.459 6.62034Z" fill="#E0E0E0"/>
<path d="M226.895 83.9775H221.062V110.119H226.895V83.9775Z" fill="#E0E0E0"/>
<path d="M210.902 94.1367V99.9688H237.043V94.1367H210.902Z" fill="#E0E0E0"/>
<path d="M296.825 7.875H293.018V24.9232H296.825V7.875Z" fill="#E0E0E0"/>
<path d="M286.388 14.4856V18.293H303.436V14.4856H286.388Z" fill="#E0E0E0"/>
<path d="M384.055 39.3818H378.223V65.5229H384.055V39.3818Z" fill="#E0E0E0"/>
<path d="M368.063 49.5318V55.3638H394.205V49.5318H368.063Z" fill="#E0E0E0"/>
<path d="M413.358 166.504H294.917V385.604H413.358V166.504Z" fill="#F5F5F5"/>
<path d="M399.785 378.329H405.671V253.939H399.785V378.329Z" fill="#E0E0E0"/>
<path d="M389.232 378.329H395.118V253.939H389.232V378.329Z" fill="#E0E0E0"/>
<path d="M378.67 378.329H384.556V253.939H378.67V378.329Z" fill="#E0E0E0"/>
<path d="M368.099 378.329H373.984V253.939H368.099V378.329Z" fill="#E0E0E0"/>
<path d="M358.057 378.329H363.942V253.939H358.057V378.329Z" fill="#E0E0E0"/>
<path d="M347.719 378.329H353.604V253.939H347.719V378.329Z" fill="#E0E0E0"/>
<path d="M337.165 378.329H343.051V253.939H337.165V378.329Z" fill="#E0E0E0"/>
<path d="M325.949 378.329H331.835V253.939H325.949V378.329Z" fill="#E0E0E0"/>
<path d="M315.387 378.329H321.272V253.939H315.387V378.329Z" fill="#E0E0E0"/>
<path d="M305.103 378.329H310.988V253.939H305.103V378.329Z" fill="#E0E0E0"/>
<path d="M399.419 246.468H405.305V180.901H399.419V246.468Z" fill="#E0E0E0"/>
<path d="M388.856 246.468H394.742V180.901H388.856V246.468Z" fill="#E0E0E0"/>
<path d="M378.294 246.468H384.18V180.901H378.294V246.468Z" fill="#E0E0E0"/>
<path d="M367.74 246.468H373.626V180.901H367.74V246.468Z" fill="#E0E0E0"/>
<path d="M357.698 246.468H363.584V180.901H357.698V246.468Z" fill="#E0E0E0"/>
<path d="M347.351 246.468H353.236V180.901H347.351V246.468Z" fill="#E0E0E0"/>
<path d="M336.788 246.468H342.674V180.901H336.788V246.468Z" fill="#E0E0E0"/>
<path d="M324.963 246.468H330.849V180.901H324.963V246.468Z" fill="#E0E0E0"/>
<path d="M314.401 246.468H320.287V180.901H314.401V246.468Z" fill="#E0E0E0"/>
<path d="M304.386 246.468H310.271V180.901H304.386V246.468Z" fill="#E0E0E0"/>
<path d="M291.798 226.894H208.062V385.604H291.798V226.894Z" fill="#F5F5F5"/>
<path d="M278.227 378.329H284.112V253.939H278.227V378.329Z" fill="#E0E0E0"/>
<path d="M267.655 378.329H273.541V253.939H267.655V378.329Z" fill="#E0E0E0"/>
<path d="M257.102 378.329H262.987V253.939H257.102V378.329Z" fill="#E0E0E0"/>
<path d="M246.541 378.329H252.427L252.427 253.939H246.541L246.541 378.329Z" fill="#E0E0E0"/>
<path d="M236.498 378.329H242.384L242.384 253.939H236.498L236.498 378.329Z" fill="#E0E0E0"/>
<path d="M226.159 378.329H232.045L232.045 253.939H226.159L226.159 378.329Z" fill="#E0E0E0"/>
<path d="M215.588 378.329H221.474L221.474 253.939H215.588L215.588 378.329Z" fill="#E0E0E0"/>
<path d="M277.859 246.468H283.745V234.706H277.859V246.468Z" fill="#E0E0E0"/>
<path d="M267.297 246.468H273.183V234.706H267.297V246.468Z" fill="#E0E0E0"/>
<path d="M256.727 246.468H262.612V234.706H256.727V246.468Z" fill="#E0E0E0"/>
<path d="M246.164 246.468H252.05V234.706H246.164V246.468Z" fill="#E0E0E0"/>
<path d="M236.13 246.468H242.016V234.706H236.13V246.468Z" fill="#E0E0E0"/>
<path d="M225.792 246.468H231.678V234.706H225.792V246.468Z" fill="#E0E0E0"/>
<path d="M215.229 246.468H221.115V234.706H215.229V246.468Z" fill="#E0E0E0"/>
<path d="M295.131 386.643C295.006 386.643 294.898 337.46 294.898 276.811C294.898 216.161 295.006 166.961 295.131 166.961C295.257 166.961 295.364 216.134 295.364 276.811C295.364 337.487 295.266 386.643 295.131 386.643Z" fill="#E0E0E0"/>
<path d="M402.365 97.0483H312.502V166.961H402.365V97.0483Z" fill="#F5F5F5"/>
<path d="M334.334 157.053H340.22V111.866H334.334V157.053Z" fill="#E0E0E0"/>
<path d="M323.78 157.053H329.666V111.866H323.78V157.053Z" fill="#E0E0E0"/>
<path d="M356.265 157.053H362.15V111.866H356.265V157.053Z" fill="#E0E0E0"/>
<path d="M345.703 157.053H351.589V111.866H345.703V157.053Z" fill="#E0E0E0"/>
<path d="M378.187 157.053H384.072V111.866H378.187V157.053Z" fill="#E0E0E0"/>
<path d="M367.624 157.053H373.51V111.866H367.624V157.053Z" fill="#E0E0E0"/>
<path d="M389.563 157.053H395.449V111.866H389.563V157.053Z" fill="#E0E0E0"/>
<path d="M176.412 243.278H92.6768V386.123H176.412V243.278Z" fill="#F5F5F5"/>
<path d="M106.25 281.872H100.364V380.371H106.25V281.872Z" fill="#E0E0E0"/>
<path d="M116.812 281.872H110.926V380.371H116.812V281.872Z" fill="#E0E0E0"/>
<path d="M127.373 281.872H121.487V380.371H127.373V281.872Z" fill="#E0E0E0"/>
<path d="M137.936 281.872H132.05V380.371H137.936V281.872Z" fill="#E0E0E0"/>
<path d="M147.979 281.872H142.093V380.371H147.979V281.872Z" fill="#E0E0E0"/>
<path d="M158.315 281.872H152.43V380.371H158.315V281.872Z" fill="#E0E0E0"/>
<path d="M168.878 281.872H162.992V380.371H168.878V281.872Z" fill="#E0E0E0"/>
<path d="M106.617 252.192H100.731V275.95H106.617V252.192Z" fill="#E0E0E0"/>
<path d="M117.178 252.192H111.292V275.95H117.178V252.192Z" fill="#E0E0E0"/>
<path d="M127.74 252.192H121.854V275.95H127.74V252.192Z" fill="#E0E0E0"/>
<path d="M138.303 252.192H132.417V275.95H138.303V252.192Z" fill="#E0E0E0"/>
<path d="M148.345 252.192H142.459V275.95H148.345V252.192Z" fill="#E0E0E0"/>
<path d="M158.684 252.192H152.798V275.95H158.684V252.192Z" fill="#E0E0E0"/>
<path d="M169.246 252.192H163.36V275.95H169.246V252.192Z" fill="#E0E0E0"/>
<path d="M97.1292 113.613H7.82129V386.123H97.1292V113.613Z" fill="#F5F5F5"/>
<path d="M64.6446 32.5015H42.7051V36.6045H64.6446V32.5015Z" fill="#F5F5F5"/>
<path d="M55.2927 0H51.7988V33.7021H55.2927V0Z" fill="#F5F5F5"/>
<path d="M84.659 36.6045H22.6836V114.947H84.659V36.6045Z" fill="#F5F5F5"/>
<path d="M36.5608 46.2529H30.4062V109.554H36.5608V46.2529Z" fill="#E0E0E0"/>
<path d="M47.5969 46.2529H41.4424V109.554H47.5969V46.2529Z" fill="#E0E0E0"/>
<path d="M58.6438 46.2529H52.4893V109.554H58.6438V46.2529Z" fill="#E0E0E0"/>
<path d="M69.6809 46.2529H63.5264V109.554H69.6809V46.2529Z" fill="#E0E0E0"/>
<path d="M80.1799 46.2529H74.0254V109.554H80.1799V46.2529Z" fill="#E0E0E0"/>
<path d="M22.2985 124.793H16.0186V375.14H22.2985V124.793Z" fill="#E0E0E0"/>
<path d="M33.568 124.793H27.2881V375.14H33.568V124.793Z" fill="#E0E0E0"/>
<path d="M44.8288 124.793H38.5488V375.14H44.8288V124.793Z" fill="#E0E0E0"/>
<path d="M56.0905 124.793H49.8105V375.14H56.0905V124.793Z" fill="#E0E0E0"/>
<path d="M66.8044 124.793H60.5244V375.14H66.8044V124.793Z" fill="#E0E0E0"/>
<path d="M77.8327 124.793H71.5527V375.14H77.8327V124.793Z" fill="#E0E0E0"/>
<path d="M89.0934 124.793H82.8135V375.14H89.0934V124.793Z" fill="#E0E0E0"/>
<path d="M416 386.956C416 387.082 322.831 387.189 208.009 387.189C93.187 387.189 0 387.082 0 386.956C0 386.831 93.1153 386.706 208 386.706C322.885 386.706 416 386.831 416 386.956Z" fill="#263238"/>
<path d="M288.008 70.1006L279.534 71.6146C275.277 76.4217 269.376 79.4629 262.991 80.1403C256.606 80.8177 250.199 79.0824 245.028 75.2755C239.858 71.4685 236.298 65.8652 235.049 59.567C233.8 53.2688 234.952 46.7312 238.278 41.2392C241.605 35.7471 246.865 31.6979 253.025 29.8874C259.186 28.0769 265.8 28.6361 271.569 31.455C277.338 34.2739 281.844 39.1487 284.202 45.1212C286.559 51.0937 286.597 57.7319 284.309 63.7311L288.008 70.1006Z" fill="white"/>
<path d="M288.009 70.1008C288.009 70.1008 287.91 69.9574 287.74 69.6797L287.014 68.4524L284.228 63.7671H284.38C284.362 63.7841 284.338 63.7935 284.313 63.7935C284.288 63.7935 284.264 63.7841 284.246 63.7671C284.234 63.7502 284.227 63.7298 284.227 63.7088C284.227 63.6879 284.234 63.6675 284.246 63.6506C285.724 59.7079 286.213 55.4632 285.67 51.2878C285.498 49.9751 285.222 48.6781 284.846 47.4087C284.417 46.0615 283.884 44.7496 283.252 43.4849C281.898 40.6692 280.033 38.1297 277.751 35.9955C275.125 33.5457 272.013 31.674 268.619 30.5012C265.224 29.3284 261.621 28.8807 258.042 29.187C254.083 29.5795 250.267 30.876 246.889 32.9765C243.339 35.1771 240.398 38.2326 238.333 41.8634C235.206 47.3317 234.213 53.764 235.545 59.921C236.878 66.078 240.441 71.5241 245.55 75.2099C250.659 78.8957 256.951 80.5604 263.214 79.8834C269.477 79.2064 275.268 76.2355 279.471 71.5431C279.471 71.5431 279.471 71.5431 279.525 71.5431L285.796 70.4949L287.435 70.2262L288.009 70.1366L287.48 70.2531L285.885 70.5576L279.552 71.7491H279.614C276.792 74.9761 273.203 77.4408 269.178 78.916C264.183 80.7461 258.746 80.9917 253.607 79.6193C248.467 78.2469 243.876 75.3233 240.459 71.2469C237.042 67.1705 234.965 62.1395 234.51 56.8397C234.056 51.5398 235.247 46.2288 237.921 41.6304L238.754 40.2419C239.059 39.8029 239.382 39.346 239.695 38.9429C240.335 38.0924 241.023 37.2788 241.756 36.5061C242.105 36.112 242.526 35.7805 242.902 35.4221C243.275 35.052 243.67 34.705 244.085 34.383C244.896 33.7307 245.749 33.1322 246.638 32.5912C250.077 30.4568 253.96 29.1418 257.988 28.748C261.631 28.4416 265.298 28.9045 268.751 30.1068C272.203 31.3091 275.364 33.2238 278.029 35.7267C280.333 37.8995 282.213 40.4816 283.574 43.3415C284.201 44.6415 284.722 45.9896 285.133 47.3729C285.508 48.6598 285.777 49.9751 285.939 51.3057C286.464 55.5267 285.931 59.8119 284.389 63.776L284.228 63.6864C284.247 63.6712 284.271 63.6628 284.295 63.6628C284.32 63.6628 284.343 63.6712 284.362 63.6864L287.05 68.4972L287.74 69.7155L288.009 70.1008Z" fill="#263238"/>
<path d="M260.014 65.0842L247.418 56.6632L250.356 52.2735L258.804 57.9174L269.304 44.0137L273.523 47.2029L260.014 65.0842Z" fill="#C53030"/>
<path d="M142.234 67.6192L146.454 59.3146C144.714 54.6124 144.261 49.5307 145.143 44.595C146.025 39.6594 148.209 35.0488 151.47 31.2401C154.731 27.4314 158.949 24.5627 163.69 22.9308C168.431 21.2988 173.522 20.9627 178.436 21.9573C182.829 22.8359 186.949 24.7501 190.454 27.5408C193.958 30.3315 196.746 33.9182 198.586 38.0029C200.426 42.0876 201.265 46.5524 201.033 51.0264C200.801 55.5004 199.505 59.8544 197.252 63.7268C194.999 67.5991 191.854 70.878 188.08 73.291C184.305 75.704 180.009 77.1814 175.549 77.6006C171.088 78.0198 166.592 77.3686 162.434 75.7012C158.276 74.0337 154.576 71.3981 151.641 68.0133L142.234 67.6192Z" fill="white"/>
<path d="M142.234 67.6193H142.861L144.653 67.673L151.605 67.9059L151.515 68.0493C151.501 68.0267 151.496 67.9994 151.502 67.9733C151.508 67.9473 151.524 67.9247 151.547 67.9104C151.569 67.8961 151.597 67.8914 151.623 67.8973C151.649 67.9032 151.671 67.9192 151.686 67.9418C154.774 71.4603 158.691 74.1543 163.081 75.7805C164.441 76.2906 165.84 76.6891 167.265 76.972C168.794 77.2576 170.342 77.4313 171.896 77.4916C175.771 77.6427 179.635 76.9841 183.241 75.5578C186.847 74.1314 190.116 71.9687 192.839 69.2077C195.562 66.4467 197.679 63.1482 199.056 59.5228C200.432 55.8974 201.037 52.0247 200.832 48.1523C200.788 47.6058 200.788 47.0504 200.725 46.5039C200.662 45.9574 200.555 45.411 200.465 44.8645L200.34 44.0403C200.286 43.7715 200.205 43.5028 200.143 43.234L199.721 41.6036C199.578 41.0661 199.345 40.5465 199.166 40.0179C198.991 39.4819 198.788 38.9556 198.557 38.4412C198.095 37.4015 197.572 36.3904 196.989 35.4132C196.685 34.9294 196.416 34.4278 196.093 33.953L195.081 32.5823L194.561 31.9462L193.997 31.3191L192.868 30.056C191.297 28.4816 189.551 27.0928 187.663 25.9171C184.002 23.6542 179.877 22.2485 175.596 21.8051C171.711 21.4428 167.793 21.8928 164.092 23.1267C160.39 24.3605 156.986 26.3512 154.096 28.972C151.568 31.2605 149.482 33.9933 147.941 37.0347C147.61 37.7603 147.197 38.4502 146.947 39.1848L146.158 41.3438C145.754 42.7394 145.431 44.1573 145.191 45.5901C144.496 50.2216 144.976 54.9534 146.588 59.3505C146.597 59.3766 146.597 59.405 146.588 59.4311C145.2 62.1187 144.134 64.1433 143.408 65.5498L142.575 67.1355C142.387 67.4938 142.279 67.682 142.279 67.682L142.53 67.1624C142.709 66.7861 142.969 66.2665 143.309 65.5767L146.409 59.3057V59.3863C144.74 54.9661 144.219 50.1947 144.895 45.5185C145.129 44.0681 145.446 42.6324 145.845 41.2184L146.642 39.0325C146.931 38.2868 147.26 37.5571 147.627 36.8466C149.18 33.761 151.284 30.9858 153.836 28.6584C159.278 23.7245 166.415 21.0814 173.759 21.28C181.102 21.4786 188.085 24.5036 193.253 29.7245L194.4 31.0056L194.982 31.6417L195.493 32.3315L196.443 33.738C196.765 34.2128 197.052 34.7234 197.339 35.2251C197.935 36.1877 198.471 37.1871 198.942 38.2172C199.211 38.7279 199.354 39.2923 199.569 39.8208C199.784 40.3494 199.99 40.8869 200.134 41.4334L200.555 43.0907C200.617 43.3595 200.707 43.6372 200.761 43.9149L200.886 44.748C200.976 45.3035 201.056 45.8589 201.146 46.4143C201.236 46.9698 201.218 47.5341 201.253 48.0896C201.457 52.0154 200.84 55.9406 199.441 59.6146C198.043 63.2886 195.894 66.6307 193.132 69.4276C190.369 72.2246 187.054 74.4149 183.398 75.8589C179.741 77.3029 175.824 77.9688 171.896 77.8141C170.323 77.7549 168.756 77.5722 167.211 77.2676C161.119 76.0236 155.614 72.7903 151.56 68.0761L151.721 67.9686C151.737 67.9877 151.745 68.0114 151.745 68.0358C151.745 68.0603 151.737 68.0839 151.721 68.103H151.668L144.653 67.7357L142.861 67.6372L142.234 67.6193Z" fill="#263238"/>
<path d="M174.002 62.9251H160.232V34.8579H174.002V62.9251ZM161.128 62.0292H173.106V35.7538H161.128V62.0292Z" fill="#263238"/>
<path d="M166.074 38.9971H163.243V42.4192H166.074V38.9971Z" fill="#263238"/>
<path d="M170.992 38.9971H168.161V42.4192H170.992V38.9971Z" fill="#263238"/>
<path d="M166.074 44.3359H163.243V47.7581H166.074V44.3359Z" fill="#263238"/>
<path d="M170.992 44.3359H168.161V47.7581H170.992V44.3359Z" fill="#263238"/>
<path d="M166.074 49.6846H163.243V53.1067H166.074V49.6846Z" fill="#263238"/>
<path d="M170.992 49.6846H168.161V53.1067H170.992V49.6846Z" fill="#263238"/>
<path d="M166.074 55.1938H163.243V58.616H166.074V55.1938Z" fill="#263238"/>
<path d="M170.992 55.1938H168.161V58.616H170.992V55.1938Z" fill="#263238"/>
<path d="M178.741 52.1123H175.91V55.5345H178.741V52.1123Z" fill="#263238"/>
<path d="M183.659 52.1123H180.828V55.5345H183.659V52.1123Z" fill="#263238"/>
<path d="M178.741 56.9048H175.91V60.327H178.741V56.9048Z" fill="#263238"/>
<path d="M183.659 56.9048H180.828V60.327H183.659V56.9048Z" fill="#263238"/>
<path d="M186.499 62.9247H173.062V48.9673H186.499V62.9247ZM173.957 62.0289H185.604V49.8631H173.957V62.0289Z" fill="#263238"/>
<path d="M183.982 38.1729H177.666V47.1583H183.982V38.1729Z" fill="#455A64"/>
<path d="M180.82 39.7046H176.313L178.571 36.8737L180.82 34.0518L183.077 36.8737L185.335 39.7046H180.82Z" fill="#455A64"/>
<path d="M325.018 374.809V375.83C325.018 375.83 307.88 382.898 307.728 386.168L341.878 385.667L341.25 374.307C338.739 375.551 335.99 376.24 333.189 376.326C330.388 376.413 327.601 375.895 325.018 374.809Z" fill="#263238"/>
<path d="M341.887 385.667L341.735 382.979L309.063 384.458C309.063 384.458 307.549 385.139 307.737 386.249L341.887 385.667Z" fill="#455A64"/>
<path d="M324.91 375.956C324.91 376.117 325.752 376.18 326.576 376.708C327.4 377.237 327.848 377.927 328 377.855C328.153 377.783 327.893 376.825 326.881 376.216C325.868 375.606 324.865 375.777 324.91 375.956Z" fill="white"/>
<path d="M321.345 377.46C321.345 377.621 322.035 377.89 322.617 378.589C323.199 379.287 323.36 380.031 323.513 380.022C323.665 380.013 323.773 379.063 323.038 378.23C322.303 377.397 321.345 377.299 321.345 377.46Z" fill="white"/>
<path d="M319.374 381.778C319.526 381.778 319.75 380.972 319.302 380.067C318.854 379.163 318.075 378.804 318.012 378.948C317.95 379.091 318.433 379.566 318.783 380.318C319.132 381.071 319.213 381.761 319.374 381.778Z" fill="white"/>
<path d="M349.439 364.516L334.899 368.583L338.527 376.825L334.756 397.689C334.652 398.261 334.763 398.852 335.067 399.348C335.371 399.843 335.847 400.21 336.404 400.377C336.837 400.499 337.296 400.497 337.728 400.372C338.16 400.247 338.549 400.004 338.85 399.669C342.057 396.086 353.793 382.773 353.515 381.152L353.049 376.816C352.951 375.92 352.082 373.779 352.082 373.582L349.439 364.516Z" fill="#263238"/>
<path d="M336.834 400.484L353.38 379.664L353.461 380.614C353.52 381.004 353.49 381.402 353.374 381.779C353.257 382.156 353.058 382.502 352.789 382.791C351.49 384.887 347.799 389.644 338.912 399.695C338.655 399.984 338.331 400.206 337.969 400.344C337.608 400.481 337.218 400.529 336.834 400.484Z" fill="#455A64"/>
<path d="M341.197 390.217C340.577 389.564 339.838 389.034 339.02 388.659C338.147 388.411 337.236 388.326 336.332 388.408C336.332 388.354 336.583 388.148 337.12 388.031C337.817 387.887 338.541 387.943 339.208 388.193C339.874 388.435 340.455 388.864 340.883 389.429C341.179 389.859 341.25 390.19 341.197 390.217Z" fill="white"/>
<path d="M339.826 393.362C339.134 393.061 338.425 392.801 337.703 392.583C336.949 392.517 336.193 392.493 335.437 392.511C335.773 392.262 336.163 392.096 336.575 392.024C336.987 391.952 337.41 391.978 337.811 392.099C339.199 392.368 339.943 393.29 339.826 393.362Z" fill="white"/>
<path d="M343.893 386.087C342.863 385.54 341.794 385.07 340.695 384.681C339.546 384.444 338.381 384.288 337.21 384.215C338.369 383.805 339.634 383.805 340.793 384.215C342.016 384.451 343.115 385.115 343.893 386.087Z" fill="white"/>
<path d="M338.357 373.994C338.502 374.921 338.559 375.86 338.527 376.798C338.348 378.007 338.088 379.557 337.801 381.232C337.452 383.212 337.112 385.004 336.843 386.303C336.741 387.011 336.567 387.708 336.323 388.381C336.326 387.665 336.401 386.95 336.547 386.249C336.735 384.941 337.022 383.14 337.371 381.152C337.667 379.476 337.954 377.935 338.196 376.744C338.175 375.824 338.229 374.905 338.357 373.994Z" fill="#455A64"/>
<path d="M359.041 239.678C360.188 234.15 363.091 224.153 361.953 219.548C359.265 208.878 354.652 202.706 348.3 189.16H343.579L298.266 188.372L294.558 196.596C290.437 207.678 287.624 214.289 286.495 222.397C285.16 231.732 287.498 245.259 292.694 258.921C303.892 288.403 310.145 311.982 310.611 318.334C311.077 324.686 311.713 331.243 317.608 351.355C321.899 366.038 325.079 374.809 325.079 374.809C329.559 377.335 334.28 378.016 338.589 375.561L351.74 370.491C351.74 370.491 347.709 335.866 343.005 326.674C339.619 320.063 334.047 316.927 336.663 308.309C339.279 299.691 355.53 256.654 359.041 239.678Z" fill="#263238"/>
<path d="M306.008 211.718C306.074 211.79 306.134 211.868 306.187 211.951L306.689 212.641L308.606 215.373L315.773 225.702V225.747V225.792C315.423 229.662 315.289 234.15 315.047 239.158C314.805 244.166 314.545 249.666 314.268 255.579C313.99 261.492 313.623 267.816 313.282 274.437C312.942 281.057 312.548 287.991 311.885 295.113C311.195 301.035 310.586 306.858 311.087 312.448C311.222 313.845 311.392 315.225 311.652 316.578C311.881 317.918 312.21 319.238 312.637 320.529C313.533 323.037 314.662 325.474 315.692 327.839C319.876 337.308 323.755 345.756 327.052 352.878L334.863 369.684L336.969 374.271C337.193 374.782 337.372 375.167 337.506 375.462C337.641 375.758 337.676 375.875 337.676 375.875C337.676 375.875 337.596 375.749 337.461 375.48L336.888 374.307C336.377 373.25 335.652 371.718 334.711 369.765L326.819 352.985C323.522 345.89 319.571 337.442 315.37 327.982C314.33 325.608 313.237 323.207 312.279 320.645C311.848 319.337 311.515 317.998 311.284 316.64C311.016 315.27 310.836 313.881 310.702 312.475C310.191 306.822 310.801 300.963 311.49 295.041C312.153 287.955 312.494 281.012 312.897 274.437C313.3 267.861 313.605 261.492 313.918 255.579C314.232 249.666 314.501 244.157 314.76 239.158C315.02 234.159 315.181 229.662 315.558 225.792V225.872C312.53 221.393 310.129 217.89 308.471 215.471L306.608 212.703L306.142 211.987C306.088 211.902 306.042 211.812 306.008 211.718Z" fill="#455A64"/>
<path d="M312.045 114.921L314.831 107.888L331.414 106.992L338.186 107.888L338.93 109.841L343.526 191.167C343.526 191.167 327.463 194.41 319.436 193.281C311.409 192.152 301.958 188.488 301.958 188.488V142.235L312.045 114.921Z" fill="#F5F5F5"/>
<path d="M337.004 118.226C337.004 118.226 337.004 118.28 336.887 118.37L336.529 118.773C336.216 119.122 335.741 119.669 335.114 120.242C333.404 121.939 331.591 123.527 329.685 124.999L329.604 125.062L329.541 124.981C327.748 123.016 326.084 120.936 324.56 118.755C324.39 118.513 324.229 118.262 324.068 118.038H324.274C322.849 119.946 321.506 121.756 320.287 123.413C320.13 123.625 319.943 123.812 319.732 123.969C319.624 124.054 319.501 124.117 319.368 124.154C319.236 124.191 319.098 124.201 318.961 124.184C318.707 124.129 318.476 123.997 318.298 123.808C318.119 123.628 317.985 123.44 317.842 123.27L316.265 121.299L314.007 118.441L313.407 117.662C313.334 117.575 313.268 117.482 313.21 117.384L313.443 117.635L314.079 118.388L316.399 121.192L317.994 123.145C318.281 123.485 318.567 123.897 318.997 123.969C319.427 124.04 319.812 123.664 320.108 123.279L324.077 117.904L324.175 117.761L324.274 117.904L324.758 118.612C326.279 120.784 327.931 122.864 329.703 124.838H329.55C331.461 123.386 333.289 121.828 335.024 120.17C335.66 119.561 336.144 119.077 336.484 118.746L336.87 118.37C336.908 118.317 336.954 118.269 337.004 118.226Z" fill="#263238"/>
<g opacity="0.3">
<path d="M318.058 123.386C318.058 123.386 320.163 125.975 320.745 125.321C321.327 124.668 324.454 119.848 324.821 119.651C325.189 119.454 328.96 126.208 330.438 125.743C331.917 125.277 337.184 120 337.184 120L337.283 117.931L329.614 124.909L324.176 117.949L319.59 123.906C319.59 123.906 318.622 124.694 318.058 123.386Z" fill="black"/>
</g>
<path d="M321.587 193.774C321.565 193.521 321.565 193.266 321.587 193.013C321.587 192.475 321.587 191.74 321.658 190.827C321.739 188.892 321.846 186.159 321.981 182.764C322.267 175.982 322.653 166.639 323.011 156.274C323.369 145.908 323.629 136.565 323.817 129.774C323.907 126.415 323.987 123.682 324.041 121.711C324.077 120.798 324.104 120.072 324.122 119.534C324.121 119.279 324.142 119.025 324.185 118.773C324.206 119.026 324.206 119.281 324.185 119.534V121.72C324.185 123.664 324.14 126.397 324.104 129.783C324.005 136.565 323.79 145.908 323.441 156.291C323.092 166.674 322.644 176 322.276 182.782C322.079 186.132 321.918 188.865 321.802 190.845C321.739 191.74 321.685 192.484 321.64 193.031C321.639 193.279 321.621 193.528 321.587 193.774Z" fill="#263238"/>
<g opacity="0.3">
<path d="M306.974 160.95L298.267 218.114L298.938 224.305C299.7 225.201 301.232 224.887 302.002 224.027C302.699 223.094 303.116 221.981 303.203 220.82C306.544 201.048 308.336 180.945 306.974 160.95Z" fill="black"/>
</g>
<path d="M294.72 115.136C293.121 115.651 291.672 116.546 290.495 117.744C289.319 118.943 288.45 120.408 287.965 122.016L277.591 158.612L286.101 183.696L294.988 168.574L301.259 113.846L294.72 115.136Z" fill="#C53030"/>
<path d="M306.707 112.788L296.852 114.714L294.093 167.024C294.093 167.669 294.738 177.774 294.738 177.774L277.717 215.776C281.515 222.549 291.782 225.729 299.02 227.422C299.02 227.422 306.348 175.463 306.823 164.013C307.298 152.564 314.653 108.049 314.653 108.049L306.707 112.788Z" fill="#C53030"/>
<path d="M279.849 211.467L279.911 211.297L280.126 210.795L280.951 208.878C281.676 207.202 282.742 204.784 284.05 201.765L294.657 177.684V177.738C294.577 175.149 294.478 172.461 294.353 169.675C294.066 163.485 293.725 157.581 293.501 152.215C293.278 146.849 293.134 142.002 293.089 137.935C293.045 133.868 293.089 130.58 293.089 128.313C293.089 127.185 293.134 126.307 293.152 125.697C293.152 125.402 293.152 125.178 293.152 125.017C293.152 124.855 293.152 124.784 293.152 124.784C293.152 124.784 293.152 124.864 293.152 125.017V125.697C293.152 126.307 293.152 127.185 293.152 128.313C293.152 130.58 293.152 133.877 293.215 137.935C293.278 141.993 293.43 146.831 293.681 152.206C293.932 157.581 294.236 163.476 294.577 169.666C294.702 172.416 294.8 175.113 294.872 177.729V177.783L284.194 201.836C282.85 204.837 281.775 207.211 281.022 208.914C280.655 209.738 280.359 210.374 280.126 210.813C280.028 211.028 279.956 211.189 279.893 211.306C279.885 211.361 279.87 211.415 279.849 211.467Z" fill="#263238"/>
<path d="M306.357 158.334C306.357 158.334 306.357 158.289 306.312 158.208L306.222 157.841C306.142 157.501 306.034 157.035 305.9 156.435C305.64 155.207 305.282 153.424 304.941 151.194C304.601 148.963 304.278 146.32 304.045 143.355C303.813 140.39 303.58 137.138 303.418 133.716C303.365 132.435 303.302 131.18 303.248 129.953L303.168 128.161C303.168 127.866 303.168 127.57 303.168 127.265V126.818V126.594C303.168 126.594 303.168 126.522 303.168 126.477C303.168 126.432 303.168 126.477 303.168 126.396V126.343C303.168 126.343 303.275 126.298 303.293 126.343C303.311 126.388 303.356 126.343 303.383 126.414H303.212L305.846 124.569V124.766L302.961 123.324H302.881V123.243C303.311 121.622 303.83 120.17 304.278 118.898C304.726 117.626 305.174 116.515 305.506 115.61C305.837 114.706 306.142 114.007 306.339 113.523C306.437 113.299 306.518 113.12 306.572 112.977C306.626 112.833 306.661 112.797 306.661 112.797C306.649 112.865 306.628 112.932 306.599 112.994L306.402 113.55C306.213 114.052 305.954 114.759 305.613 115.655C305.273 116.551 304.879 117.671 304.44 118.952C304.001 120.233 303.499 121.639 303.078 123.297L303.024 123.18L305.891 124.497L306.07 124.578L305.909 124.694L303.284 126.54H303.114C303.114 126.54 303.203 126.477 303.194 126.477C303.201 126.481 303.209 126.483 303.217 126.483C303.225 126.483 303.232 126.481 303.239 126.477H303.284V126.809V127.248L303.329 128.143C303.329 128.735 303.383 129.344 303.409 129.935C303.463 131.162 303.526 132.417 303.58 133.698C303.741 137.12 303.938 140.372 304.189 143.328C304.44 146.284 304.744 148.945 305.085 151.167C305.425 153.389 305.739 155.171 305.981 156.408C306.097 157.008 306.196 157.483 306.258 157.823C306.258 157.975 306.312 158.101 306.33 158.19C306.348 158.28 306.357 158.334 306.357 158.334Z" fill="#263238"/>
<path d="M355.154 182.513L361.425 119.221L343.804 112.762C343.804 112.762 339.674 108.963 337.479 107.001L336.7 116.928C336.7 116.928 334.317 157.555 338.07 178.016C341.824 198.477 341.296 197.779 344.037 211.091C346.035 220.775 346.366 229.232 349.412 230.083C352.458 230.934 367.652 225.371 367.652 225.371L355.154 182.513Z" fill="#C53030"/>
<path d="M361.417 119.221C361.417 119.221 368.315 121.846 369.354 130.723C370.115 137.281 374.147 174.737 369.927 179.404C364.881 184.829 359.362 189.794 353.435 194.24L343.58 181.42L352.933 171.136L358.209 125.76L361.417 119.221Z" fill="#C53030"/>
<path d="M341.859 156.157C341.855 156.115 341.855 156.073 341.859 156.031C341.859 155.942 341.859 155.825 341.921 155.682C341.987 155.359 342.077 154.911 342.19 154.338C342.405 153.174 342.728 151.48 343.023 149.375C343.65 145.165 344.188 139.315 344.493 132.829C344.564 131.3 344.636 129.807 344.708 128.349C344.708 127.624 344.77 126.916 344.806 126.217L344.86 125.187C344.86 125.017 344.86 124.847 344.86 124.676V124.434C344.865 124.396 344.865 124.357 344.86 124.318C344.883 124.326 344.908 124.326 344.932 124.318H345.003H344.842L342.217 122.464L342.065 122.365L342.235 122.284L345.102 120.967L345.048 121.075C344.796 119.921 344.601 118.755 344.466 117.581C344.331 116.542 344.206 115.655 344.063 114.938C343.919 114.222 343.767 113.666 343.659 113.29L343.516 112.869C343.516 112.779 343.471 112.726 343.516 112.726C343.54 112.769 343.561 112.814 343.579 112.86C343.579 112.959 343.677 113.093 343.74 113.272C343.93 113.807 344.083 114.355 344.197 114.911C344.358 115.637 344.502 116.524 344.654 117.554C344.801 118.723 345.008 119.883 345.272 121.03V121.102H345.2L342.378 122.508V122.329L345.012 124.166H344.842C344.867 124.143 344.898 124.128 344.932 124.121C344.961 124.114 344.992 124.114 345.021 124.121C345.021 124.121 345.021 124.175 345.021 124.202V124.596C345.021 124.766 345.021 124.936 345.021 125.106C345.021 125.447 345.021 125.787 344.976 126.137C344.976 126.835 344.914 127.543 344.887 128.269C344.815 129.711 344.752 131.207 344.681 132.748C344.451 138.293 343.934 143.821 343.131 149.312C342.808 151.418 342.459 153.102 342.235 154.266C342.101 154.831 342.002 155.279 341.921 155.601C341.886 155.745 341.859 155.861 341.841 155.951C341.877 156.121 341.868 156.157 341.859 156.157Z" fill="#263238"/>
<path d="M366.128 172.649C366.128 172.649 365.51 172.237 364.453 171.753C363.83 171.452 363.183 171.203 362.518 171.01C361.701 170.783 360.864 170.633 360.019 170.562C359.173 170.508 358.324 170.532 357.483 170.634C356.796 170.722 356.119 170.872 355.459 171.082C354.33 171.431 353.667 171.798 353.667 171.753C353.802 171.64 353.953 171.547 354.115 171.476C354.292 171.379 354.474 171.292 354.661 171.216C354.906 171.1 355.157 170.998 355.414 170.911C356.081 170.68 356.767 170.512 357.465 170.41C359.181 170.161 360.931 170.292 362.59 170.795C363.26 171.002 363.911 171.268 364.534 171.592C364.775 171.715 365.008 171.853 365.233 172.004C365.41 172.107 365.58 172.221 365.743 172.345C365.883 172.431 366.012 172.533 366.128 172.649Z" fill="#263238"/>
<g opacity="0.3">
<path d="M343.812 113.576C343.812 113.576 346.992 120.994 346.5 121.639C346.007 122.284 344.386 122.696 344.386 122.696C344.386 122.696 347.127 123.887 347.127 124.936C347.127 127.032 344.179 139.431 344.179 139.431L344.905 124.282L342.28 122.49L345.147 121.155L343.812 113.576Z" fill="black"/>
</g>
<path d="M356.498 134.459C356.522 134.632 356.522 134.807 356.498 134.979C356.498 135.364 356.445 135.875 356.409 136.457C356.31 137.81 356.167 139.646 355.997 141.895C355.594 146.545 355.056 152.851 354.456 159.812C354.25 161.98 354.062 164.085 353.873 166.083C353.778 167.087 353.67 168.063 353.551 169.013C353.463 169.941 353.302 170.861 353.067 171.763L346.232 178.867L344.297 180.802C344.081 181.047 343.841 181.269 343.58 181.465C343.765 181.198 343.975 180.949 344.207 180.722L346.053 178.697L352.718 171.611V171.682C352.928 170.798 353.075 169.9 353.157 168.995C353.264 168.054 353.363 167.078 353.461 166.074C353.641 164.068 353.829 161.962 354.026 159.803C354.68 152.842 355.271 146.536 355.701 141.886C355.934 139.638 356.131 137.801 356.265 136.457C356.337 135.866 356.4 135.373 356.445 134.988C356.44 134.81 356.458 134.633 356.498 134.459Z" fill="#263238"/>
<path d="M279.454 152.045L272.619 167.274L266.169 160.045L257.56 166.119L267.674 182.343C270.854 186.419 273.891 189.196 277.349 188.757C278.045 188.661 278.729 188.496 279.392 188.264C284.14 186.643 287.41 183.454 288.646 178.589L292.561 158.961L279.454 152.045Z" fill="#C53030"/>
<path d="M280.162 179.244C280.103 179.032 280.058 178.816 280.027 178.599C279.956 178.186 279.83 177.586 279.66 176.852C279.49 176.117 279.257 175.257 278.952 174.307C278.648 173.358 278.262 172.337 277.805 171.288C277.349 170.24 276.838 169.264 276.354 168.395C275.87 167.526 275.378 166.773 274.957 166.155C274.536 165.537 274.168 165.035 273.917 164.704C273.778 164.536 273.649 164.36 273.532 164.175C273.693 164.323 273.84 164.485 273.971 164.659C274.249 164.982 274.625 165.465 275.064 166.075C275.503 166.684 275.96 167.445 276.506 168.305C277.048 169.247 277.541 170.216 277.985 171.208C278.442 172.265 278.818 173.304 279.122 174.254C279.427 175.203 279.642 176.045 279.794 176.825C279.947 177.604 280.045 178.169 280.099 178.616C280.138 178.823 280.159 179.033 280.162 179.244Z" fill="#263238"/>
<path d="M317.851 55.0503L317.797 55.2832C317.842 55.2384 317.842 55.1309 317.851 55.0503Z" fill="#263238"/>
<path d="M301.286 98.8669C301.402 96.4301 300.489 94.074 299.718 91.7538C298.948 89.4335 298.312 86.9251 298.966 84.5869C299.79 81.6306 302.451 79.5701 303.884 76.8467C305.317 74.1233 305.425 70.9072 305.676 67.8344C305.927 64.7616 306.446 61.5007 308.489 59.1804C311.069 56.242 317.824 55.7134 321.031 57.98C321.523 75.4671 321.371 92.784 317.626 109.877C309.089 110.244 304.762 108.578 297.317 104.403C299.691 103.893 301.17 101.313 301.286 98.8669Z" fill="#263238"/>
<path d="M337.9 109.949L340.991 67.4852C341.035 66.5478 340.727 65.6278 340.126 64.9065C339.526 64.1852 338.677 63.7148 337.747 63.5882L318.039 58.007C311.696 57.1112 307.244 64.8693 306.661 71.2389C306.016 78.3161 305.506 86.988 306.195 92.3004C307.584 102.988 315.7 104.574 315.7 104.574C315.53 109.841 315.593 109.949 315.593 109.949L324.292 117.904L337.9 109.949Z" fill="#FFBF9D"/>
<path d="M309.537 80.484C309.523 80.8394 309.647 81.1864 309.885 81.4509C310.123 81.7154 310.455 81.8764 310.809 81.8995C310.983 81.918 311.158 81.9017 311.325 81.8515C311.492 81.8014 311.647 81.7183 311.781 81.6073C311.916 81.4963 312.027 81.3596 312.107 81.2052C312.188 81.0507 312.237 80.8817 312.252 80.708C312.264 80.3533 312.139 80.0075 311.901 79.7435C311.664 79.4795 311.334 79.3179 310.98 79.2926C310.806 79.274 310.631 79.2904 310.464 79.3405C310.297 79.3907 310.142 79.4737 310.008 79.5847C309.873 79.6957 309.762 79.8325 309.682 79.9869C309.601 80.1413 309.552 80.3104 309.537 80.484Z" fill="#263238"/>
<path d="M308.4 75.8435C308.561 76.0226 309.618 75.288 311.087 75.3328C312.556 75.3776 313.614 76.1481 313.775 75.9689C313.936 75.7897 313.694 75.5658 313.237 75.2074C312.612 74.7506 311.861 74.4972 311.087 74.4818C310.325 74.4576 309.575 74.6773 308.946 75.1089C308.48 75.4045 308.337 75.727 308.4 75.8435Z" fill="#263238"/>
<path d="M322.062 80.7438C322.047 81.0991 322.172 81.4461 322.409 81.7106C322.647 81.9751 322.979 82.1362 323.334 82.1593C323.507 82.1778 323.682 82.1615 323.849 82.1113C324.016 82.0611 324.171 81.9781 324.306 81.8671C324.44 81.7561 324.551 81.6193 324.632 81.4649C324.713 81.3105 324.762 81.1414 324.776 80.9678C324.791 80.6124 324.666 80.2654 324.428 80.0009C324.191 79.7364 323.859 79.5754 323.504 79.5523C323.331 79.5325 323.155 79.5479 322.987 79.5976C322.82 79.6473 322.664 79.7302 322.53 79.8415C322.395 79.9527 322.284 80.0899 322.204 80.245C322.123 80.4 322.075 80.5697 322.062 80.7438Z" fill="#263238"/>
<path d="M322.823 76.488C322.993 76.6672 324.05 75.9326 325.511 75.9774C326.971 76.0222 328.037 76.7926 328.198 76.6134C328.359 76.4343 328.118 76.2103 327.661 75.8609C327.037 75.3998 326.286 75.1432 325.511 75.1263C324.748 75.1022 323.998 75.3219 323.369 75.7534C322.913 76.0849 322.742 76.4074 322.823 76.488Z" fill="#263238"/>
<path d="M317.187 87.2299C316.421 86.9598 315.623 86.7912 314.813 86.7283C314.437 86.6835 314.087 86.5939 314.034 86.3341C314.01 85.9469 314.107 85.5618 314.311 85.2322C314.688 84.3363 315.091 83.4405 315.503 82.4102C317.16 78.3878 318.37 75.0821 318.19 75.0105C318.011 74.9388 316.551 78.1549 314.894 82.1773C314.499 83.1627 314.114 84.1124 313.756 85.0172C313.504 85.4627 313.418 85.9835 313.514 86.4864C313.567 86.6185 313.648 86.7375 313.752 86.835C313.855 86.9325 313.979 87.0061 314.114 87.0508C314.321 87.1127 314.535 87.1488 314.75 87.1583C315.557 87.2806 316.375 87.3046 317.187 87.2299Z" fill="#263238"/>
<path d="M315.683 104.574C320.683 104.787 325.644 103.612 330.017 101.178C330.653 99.7091 327.168 106.491 315.603 107.36L315.683 104.574Z" fill="#FF9A6C"/>
<path d="M317.295 90.7232C317.637 90.2454 318.091 89.8591 318.618 89.5982C319.144 89.3373 319.727 89.2099 320.314 89.2271C320.698 89.2439 321.073 89.3537 321.405 89.5472C321.737 89.7407 322.018 90.0121 322.222 90.338C322.423 90.7058 322.519 91.1215 322.5 91.54C322.481 91.9585 322.348 92.3639 322.115 92.712C321.838 93.0696 321.46 93.3359 321.031 93.4765C320.601 93.617 320.139 93.6253 319.705 93.5004C318.896 93.2094 318.169 92.7304 317.582 92.1028C317.394 91.948 317.242 91.7558 317.134 91.5384C317.08 91.4184 317.06 91.2864 317.074 91.1558C317.088 91.0252 317.136 90.9006 317.214 90.7949" fill="#FF9A6C"/>
<path d="M321.479 88.3853C321.237 88.3853 321.192 89.953 319.794 91.0728C318.397 92.1926 316.713 91.9687 316.686 92.1658C316.659 92.3629 317.062 92.4883 317.779 92.5241C318.71 92.5628 319.626 92.2744 320.368 91.7089C321.078 91.1603 321.547 90.3572 321.676 89.4692C321.774 88.7615 321.586 88.3853 321.479 88.3853Z" fill="#263238"/>
<path d="M322.348 70.4684C322.482 70.8715 323.951 70.7282 325.671 70.979C327.391 71.2299 328.771 71.7495 329.004 71.4001C329.111 71.2299 328.878 70.8447 328.332 70.4415C327.596 69.9523 326.755 69.6452 325.877 69.5457C325 69.413 324.103 69.4897 323.261 69.7696C322.616 69.9309 322.294 70.2355 322.348 70.4684Z" fill="#E0E0E0"/>
<path d="M309.062 70.764C309.313 71.1045 310.335 70.764 311.544 70.764C312.753 70.764 313.784 71.0507 314.034 70.7103C314.142 70.5401 313.99 70.2086 313.551 69.8771C312.961 69.4702 312.26 69.2572 311.544 69.268C310.828 69.2645 310.127 69.4802 309.537 69.8861C309.098 70.2624 308.955 70.6028 309.062 70.764Z" fill="#263238"/>
<path d="M315.674 57.9262C317.466 53.5544 321.452 52.6317 325.689 52.1748C329.927 51.7179 336.216 53.4738 339.719 55.7582C342.631 57.5325 345.249 59.7511 347.477 62.3338C349.358 64.7616 350.164 67.5298 351.365 70.3248C353.156 74.6787 353.067 79.4894 353.318 84.1658C353.643 90.0411 354.582 95.8661 356.122 101.545C356.677 103.588 357.242 106.025 354.33 107.198C353.789 107.408 353.223 107.546 352.646 107.61C348.167 108.148 343.831 109.608 338.841 109.922H335.768C331.871 109.922 329.873 107.413 330.008 104.233C330.411 94.6205 335.096 78.8355 335.616 75.8075C335.642 75.8433 337.264 55.0953 315.674 57.9262Z" fill="#263238"/>
<path d="M317.081 57.8369C317.731 58.3794 318.265 59.048 318.65 59.8025C319.035 60.5569 319.263 61.3815 319.321 62.2266C319.554 63.9018 319.455 65.6219 319.769 67.2792C320.097 68.9447 320.82 70.5069 321.879 71.8338C322.938 73.1607 324.3 74.2134 325.851 74.9029C326.846 75.324 328.199 75.5032 328.817 74.6163C328.78 75.7974 329.103 76.9619 329.743 77.9553C330.383 78.9488 331.31 79.7245 332.4 80.1795C333.977 80.8156 335.742 80.7081 337.399 81.0754C339.056 81.4427 340.794 82.5804 340.884 84.2825L341.583 72.4662L338.259 62.0205L328.046 55.9556L317.081 57.8369Z" fill="#263238"/>
<path d="M335.212 77.3126C334.868 77.0737 334.542 76.8103 334.235 76.5243C333.467 75.6732 332.914 74.6502 332.623 73.5411C332.215 71.8946 331.978 70.2105 331.915 68.5153C331.836 66.4242 331.593 64.3425 331.19 62.2891C330.778 60.2145 329.819 58.2877 328.412 56.7079C327.783 56.0307 327.024 55.4856 326.182 55.1043C325.445 54.7781 324.657 54.5841 323.853 54.531C322.688 54.4371 321.524 54.7163 320.529 55.3283C320.372 55.4178 320.225 55.5229 320.09 55.6419C319.982 55.7201 319.882 55.8103 319.794 55.9106C319.714 55.9889 319.639 56.0727 319.57 56.1614C319.878 55.8752 320.211 55.6173 320.565 55.391C321.558 54.8197 322.703 54.5694 323.844 54.6743C325.557 54.7974 327.159 55.5696 328.323 56.8333C329.685 58.3996 330.612 60.2965 331.01 62.3339C331.409 64.3762 331.654 66.4454 331.745 68.5243C331.815 70.234 332.071 71.9311 332.506 73.5859C332.812 74.709 333.394 75.7377 334.2 76.578C334.493 76.8783 334.835 77.1267 335.212 77.3126Z" fill="white"/>
<path d="M344.046 75.8884C343.511 75.8258 342.987 75.6932 342.487 75.4942C341.16 74.8518 340.033 73.8609 339.226 72.6275C338.643 71.8005 338.142 70.9183 337.73 69.9937C337.288 68.9179 337.008 67.7829 336.897 66.6253C336.745 65.4069 336.7 64.1079 336.556 62.7641C336.476 62.1012 336.386 61.4114 336.234 60.7305C336.072 60.0384 335.844 59.3634 335.553 58.7148C334.405 56.2292 332.365 54.2658 329.838 53.2143C327.78 52.3718 325.504 52.2178 323.352 52.7753C321.906 53.132 320.55 53.7881 319.374 54.7014C318.944 55.0322 318.548 55.4042 318.191 55.8123C318.223 55.7937 318.25 55.7694 318.272 55.7406L318.505 55.5346C318.604 55.436 318.729 55.3195 318.881 55.1941C319.034 55.0687 319.213 54.9075 319.428 54.7641C320.607 53.8844 321.955 53.2563 323.387 52.9187C325.509 52.3934 327.743 52.5565 329.766 53.3845C332.232 54.4237 334.226 56.3383 335.365 58.7596C335.646 59.398 335.868 60.0607 336.028 60.7395C336.17 61.4055 336.277 62.0782 336.35 62.7552C336.494 64.081 336.548 65.38 336.7 66.6163C336.828 67.7893 337.13 68.9366 337.596 70.0206C338.017 70.9642 338.531 71.8643 339.128 72.7081C339.962 73.9494 341.121 74.9379 342.478 75.5659C342.853 75.7081 343.244 75.8044 343.643 75.8526H343.956L344.046 75.8884Z" fill="#455A64"/>
<path d="M328.815 74.6161C328.815 74.6161 328.815 74.6161 328.815 74.7147C328.815 74.8132 328.815 74.8849 328.815 75.0013C328.815 75.1178 328.815 75.297 328.878 75.4851C328.941 75.6732 328.959 75.8882 329.013 76.1301C329.157 76.7199 329.384 77.2867 329.684 77.8143C330.093 78.5158 330.642 79.1257 331.297 79.606C333.109 80.7913 335.269 81.3252 337.425 81.12C338.708 81.0574 339.981 80.8592 341.223 80.5288C342.578 80.1892 343.881 79.6647 345.093 78.97L345.335 78.8266H345.057C343.501 78.6069 341.989 78.1412 340.578 77.447H340.497L340.435 77.6351C343.6 78.1455 346.844 77.5642 349.635 75.9868L349.823 75.8793L349.617 75.8166C347.649 75.2244 345.802 74.2871 344.161 73.0484C342.88 72.0723 341.894 70.7608 341.313 69.2589C340.976 68.2675 340.818 67.2239 340.847 66.1771C340.847 65.8278 340.892 65.55 340.909 65.344V65.0932V65.0215C340.912 65.0453 340.912 65.0693 340.909 65.0932V65.3082C340.909 65.5052 340.856 65.783 340.811 66.1413C340.759 67.2004 340.902 68.2601 341.232 69.2678C341.828 70.8135 342.846 72.1607 344.17 73.1559C345.824 74.4125 347.686 75.3678 349.671 75.9778V75.8076C346.915 77.3539 343.716 77.9222 340.596 77.4201L339.906 77.3037L340.533 77.6083H340.614C342.024 78.3063 343.536 78.7779 345.093 79.0058V78.8177C343.893 79.503 342.607 80.0243 341.268 80.3675C340.041 80.6984 338.783 80.8967 337.514 80.9588C335.396 81.173 333.268 80.6647 331.476 79.5164C330.823 79.0371 330.277 78.4269 329.873 77.7247C329.573 77.2029 329.338 76.6463 329.174 76.0674C329.12 75.8255 329.066 75.6195 329.03 75.4313C328.995 75.2432 328.977 75.082 328.95 74.9565C328.923 74.8311 328.95 74.7415 328.905 74.6699C328.877 74.6493 328.847 74.6313 328.815 74.6161Z" fill="#455A64"/>
<path d="M350.657 103.696C350.711 103.696 350.066 97.9981 349.215 90.9925C348.364 83.9869 347.62 78.3071 347.567 78.3071C347.513 78.3071 348.158 84.0048 349.009 91.0104C349.86 98.016 350.595 103.696 350.657 103.696Z" fill="#455A64"/>
<path d="M329.084 184.09C328.241 183.915 327.371 183.919 326.528 184.099C325.686 184.28 324.891 184.633 324.193 185.138C321.971 186.768 318.164 188.936 314.339 188.184C308.399 187.01 305.174 181.438 306.5 174.746C307.826 168.054 312.905 164.058 318.854 165.232C322.697 165.984 325.402 169.424 326.845 171.781C327.302 172.508 327.903 173.134 328.612 173.619C329.321 174.105 330.122 174.439 330.966 174.602C331.78 174.763 332.618 174.761 333.431 174.597C334.244 174.434 335.018 174.112 335.707 173.649C336.395 173.186 336.986 172.593 337.446 171.902C337.905 171.211 338.224 170.436 338.383 169.621L344.977 129.971L282.876 119.122L240.43 111.767L233.801 149.393C233.129 152.815 236.005 155.852 239.427 156.56C240.27 156.733 241.139 156.728 241.98 156.546C242.82 156.364 243.614 156.009 244.309 155.503C246.531 153.872 250.348 151.704 254.164 152.457C260.112 153.63 263.337 159.203 262.012 165.94C260.686 172.676 255.597 176.627 249.649 175.454C245.814 174.701 243.1 171.261 241.658 168.905C241.202 168.176 240.601 167.548 239.892 167.061C239.183 166.574 238.381 166.238 237.537 166.074C236.723 165.909 235.884 165.907 235.069 166.069C234.255 166.23 233.48 166.552 232.791 167.016C232.102 167.479 231.511 168.075 231.054 168.768C230.597 169.461 230.282 170.239 230.128 171.055L222.173 215.364L284.632 226.356L321.273 232.806L325.752 233.604L334.038 191.561C334.213 190.744 334.223 189.901 334.068 189.081C333.912 188.26 333.594 187.479 333.133 186.783C332.671 186.087 332.075 185.491 331.38 185.028C330.685 184.566 329.905 184.246 329.084 184.09Z" fill="#455A64"/>
<path d="M267.226 158.907C267.235 158.683 267.197 158.46 267.115 158.251C267.033 158.043 266.908 157.854 266.749 157.696C266.59 157.539 266.399 157.416 266.19 157.336C265.98 157.256 265.757 157.221 265.533 157.232C265.013 157.232 264.341 157.295 263.517 157.375C261.376 157.59 255.042 160.708 254.872 161.962C254.757 162.411 254.76 162.882 254.881 163.329C255.002 163.777 255.237 164.185 255.562 164.515C255.562 164.515 254.326 166.155 254.774 167.516C255.168 168.672 257.031 169.075 257.031 169.075C257.031 169.075 255.652 170.679 257.031 171.826C257.524 172.22 258.518 172.981 258.742 173.241C258.832 173.585 258.965 173.916 259.136 174.226C259.447 174.663 259.848 175.028 260.311 175.297C260.775 175.566 261.291 175.732 261.824 175.785H262.182C262.869 175.853 263.555 175.654 264.099 175.23C266.572 173.34 273.578 167.857 273.712 166.334C273.712 166.334 275.047 165.295 274.527 164.211C274.008 163.127 272.01 163.593 272.01 163.593C272.282 163.374 272.477 163.075 272.567 162.739C272.657 162.402 272.638 162.045 272.512 161.72C272.055 160.574 268.516 160.672 266.912 160.887C265.631 161.048 262.066 161.631 262.066 161.631C262.066 161.631 266.814 160 267.092 159.194C267.149 159.105 267.194 159.008 267.226 158.907Z" fill="#FFBF9D"/>
<path d="M273.783 166.37C273.634 166.482 273.475 166.581 273.309 166.665C272.995 166.835 272.538 167.077 271.956 167.364C270.809 167.937 269.179 168.654 267.351 169.362C265.524 170.07 263.83 170.634 262.603 171.028C261.994 171.225 261.501 171.369 261.152 171.476C260.976 171.533 260.796 171.578 260.614 171.61C260.782 171.529 260.956 171.46 261.134 171.404L262.567 170.912C263.786 170.491 265.452 169.899 267.288 169.201C269.125 168.502 270.737 167.794 271.902 167.257L273.282 166.603C273.444 166.514 273.611 166.436 273.783 166.37Z" fill="#FF9A6C"/>
<path d="M272.296 163.584C272.128 163.642 271.954 163.681 271.777 163.7C271.445 163.763 270.961 163.853 270.361 163.987C269.17 164.247 267.548 164.695 265.774 165.259C264.878 165.537 264.036 165.788 263.275 166.048C262.513 166.307 261.841 166.594 261.286 166.827C260.731 167.06 260.283 167.284 259.969 167.427C259.815 167.515 259.653 167.587 259.485 167.642L259.602 167.562L259.942 167.365C260.238 167.203 260.677 166.97 261.232 166.719C261.788 166.469 262.46 166.173 263.221 165.895C263.983 165.618 264.834 165.367 265.721 165.089C267.239 164.6 268.782 164.19 270.343 163.862C270.934 163.745 271.427 163.674 271.768 163.629L272.296 163.584Z" fill="#FF9A6C"/>
<path d="M262.138 161.667C261.899 161.828 261.644 161.963 261.376 162.07C260.892 162.294 260.212 162.58 259.459 162.894C258.707 163.207 258.044 163.503 257.56 163.727C257.305 163.86 257.041 163.977 256.771 164.076C256.996 163.894 257.243 163.74 257.506 163.619C258.118 163.284 258.749 162.985 259.396 162.724C260.149 162.41 260.83 162.141 261.322 161.944C261.586 161.828 261.858 161.735 262.138 161.667Z" fill="#FF9A6C"/>
<path d="M271.553 169.147C271.457 169.282 271.349 169.408 271.23 169.523C271.006 169.747 270.675 170.07 270.254 170.419C269.411 171.198 268.193 172.211 266.867 173.313C266.545 173.59 266.231 173.886 265.9 174.137C265.592 174.387 265.269 174.618 264.932 174.827C264.363 175.191 263.74 175.463 263.087 175.633C262.646 175.752 262.188 175.791 261.734 175.749C261.611 175.744 261.488 175.729 261.367 175.705H261.241C261.405 175.695 261.57 175.695 261.734 175.705C262.18 175.715 262.624 175.655 263.051 175.525C263.685 175.344 264.289 175.07 264.843 174.71C265.172 174.498 265.489 174.268 265.792 174.02C266.115 173.77 266.419 173.483 266.751 173.196C268.077 172.067 269.313 171.091 270.173 170.347L271.176 169.452C271.294 169.341 271.42 169.239 271.553 169.147Z" fill="#FF9A6C"/>
<path d="M341.796 183.937C341.796 183.937 339.575 181.554 337.702 181.169C335.83 180.784 333.223 181.115 332.784 180.793C332.345 180.47 331.36 179.198 330.473 179.987C329.586 180.775 328.152 183.919 331.942 185.46L334.63 185.899C334.275 187.166 333.734 188.374 333.026 189.483C332.202 190.441 321.12 200.528 321.12 200.528C321.12 200.528 319.785 201.496 320.17 202.741C320.556 203.986 323.127 203.727 323.127 203.727C323.556 204.246 324.109 204.649 324.736 204.896C325.363 205.144 326.042 205.228 326.71 205.142C327.744 204.96 328.754 204.659 329.72 204.246C330.278 204.836 331.014 205.226 331.815 205.357C332.616 205.488 333.438 205.353 334.155 204.972C336.735 203.619 347.736 193.801 347.736 193.801L344.968 184.045L341.796 183.937Z" fill="#FFBF9D"/>
<path d="M344.368 182.02L341.608 183.946C345.031 187.395 347.629 190.459 346.921 194.598L352.242 192.439C352.242 192.439 352.699 184.161 344.368 182.02Z" fill="#FFBF9D"/>
<path d="M331.485 198.235C330.442 199.546 329.171 200.657 327.731 201.514C326.378 202.494 324.862 203.225 323.252 203.673C323.198 203.539 325.214 202.625 327.48 201.12C329.747 199.615 331.386 198.137 331.485 198.235Z" fill="#FF9A6C"/>
<path d="M335.347 200.368C334.64 201.47 333.722 202.422 332.646 203.167C331.57 203.913 330.356 204.438 329.076 204.713C329.031 204.578 330.644 203.987 332.364 202.777C334.084 201.568 335.213 200.296 335.347 200.368Z" fill="#FF9A6C"/>
<path d="M177.246 132.981L180.615 130.965L185.049 142.916L181.457 145.138L177.246 132.981Z" fill="#F5F5F5"/>
<path d="M118.244 55.9015C118.052 51.2698 116.125 46.8797 112.846 43.6035C109.566 40.3272 105.174 38.4045 100.542 38.2173H99.5925C89.2543 38.3875 83.6373 47.2654 84.0942 57.5857L85.4022 99.1535L101.734 105.424L108.049 99.6193C108.049 96.7078 108.049 90.6607 108.112 90.6607C108.175 90.6607 118.083 89.532 118.612 79.6327C118.871 74.7503 118.594 64.8511 118.244 55.9015Z" fill="#FFBF9D"/>
<path d="M108.112 90.5622C103.534 90.3663 99.109 88.8581 95.3643 86.2173C95.3643 86.2173 98.1593 93.7962 108.085 93.3125L108.112 90.5622Z" fill="#FF9A6C"/>
<path d="M114.831 64.4482C114.821 64.8181 114.667 65.1694 114.4 65.426C114.133 65.6825 113.776 65.8237 113.406 65.8189C113.226 65.8274 113.045 65.7991 112.876 65.7358C112.707 65.6726 112.552 65.5756 112.422 65.4508C112.291 65.326 112.187 65.1759 112.116 65.0098C112.045 64.8436 112.009 64.6647 112.009 64.484C112.018 64.1157 112.172 63.7658 112.436 63.5094C112.701 63.2531 113.056 63.1109 113.424 63.1134C113.605 63.1062 113.785 63.1353 113.954 63.1989C114.123 63.2625 114.278 63.3594 114.409 63.4838C114.54 63.6083 114.645 63.7577 114.718 63.9234C114.79 64.089 114.828 64.2675 114.831 64.4482Z" fill="#263238"/>
<path d="M115.96 60.1928C115.772 60.372 114.732 59.5299 113.209 59.4761C111.686 59.4224 110.522 60.1301 110.387 59.933C110.253 59.7359 110.504 59.5209 111.006 59.1895C111.681 58.7593 112.473 58.5495 113.272 58.5892C114.065 58.6194 114.828 58.9018 115.449 59.3955C115.906 59.7718 116.049 60.1122 115.96 60.1928Z" fill="#263238"/>
<path d="M101.591 64.4482C101.579 64.8173 101.423 65.1673 101.157 65.4234C100.891 65.6795 100.536 65.8214 100.166 65.8189C99.9856 65.8261 99.8054 65.797 99.6362 65.7334C99.467 65.6697 99.3123 65.5728 99.1812 65.4484C99.0501 65.324 98.9452 65.1745 98.8729 65.0089C98.8005 64.8432 98.762 64.6648 98.7598 64.484C98.7737 64.1157 98.9299 63.767 99.1955 63.5114C99.4611 63.2558 99.8155 63.1131 100.184 63.1134C100.365 63.1062 100.545 63.1353 100.714 63.1989C100.883 63.2625 101.038 63.3594 101.169 63.4838C101.3 63.6083 101.405 63.7577 101.478 63.9234C101.55 64.089 101.588 64.2675 101.591 64.4482Z" fill="#263238"/>
<path d="M101.018 59.9331C100.838 60.1033 99.7993 59.2701 98.2763 59.2074C96.7534 59.1447 95.5888 59.8704 95.4454 59.6733C95.3021 59.4762 95.5619 59.2612 96.0636 58.9297C96.7419 58.4994 97.5368 58.2897 98.339 58.3295C99.1296 58.3643 99.89 58.6428 100.516 59.1268C100.964 59.512 101.107 59.8524 101.018 59.9331Z" fill="#263238"/>
<path d="M105.997 71.8568C106.809 71.6344 107.646 71.517 108.488 71.5074C108.882 71.5074 109.249 71.4268 109.33 71.158C109.376 70.7599 109.301 70.3573 109.115 70.0024C108.792 69.0438 108.443 68.0404 108.085 66.9923C106.66 62.7101 105.648 59.1983 105.827 59.1356C106.006 59.0729 107.287 62.504 108.712 66.7862C109.052 67.8433 109.384 68.8467 109.688 69.8142C109.919 70.2911 109.969 70.8349 109.832 71.3461C109.769 71.4806 109.676 71.5994 109.562 71.6939C109.447 71.7884 109.313 71.8563 109.169 71.8926C108.951 71.9373 108.728 71.9583 108.506 71.9553C107.669 72.0237 106.827 71.9906 105.997 71.8568Z" fill="#263238"/>
<path d="M101.707 55.1846C101.483 55.5698 100.023 55.095 98.2311 54.9875C96.4394 54.88 94.9164 55.0861 94.7552 54.6829C94.6835 54.4858 94.997 54.1454 95.651 53.8587C96.5045 53.5153 97.4253 53.3715 98.3429 53.4383C99.2605 53.505 100.151 53.7806 100.946 54.2439C101.546 54.6292 101.806 55.0054 101.707 55.1846Z" fill="#263238"/>
<path d="M116.211 55.7223C115.889 56.0538 114.661 55.6685 113.165 55.6058C111.669 55.5431 110.406 55.7671 110.128 55.3998C110.003 55.2206 110.209 54.8802 110.773 54.5666C111.545 54.1917 112.4 54.0188 113.257 54.0642C114.114 54.1097 114.945 54.3719 115.674 54.8264C116.193 55.2385 116.354 55.5521 116.211 55.7223Z" fill="#263238"/>
<path d="M84.6055 64.8779C84.4353 64.7973 77.8776 62.5845 77.8149 69.3572C77.7522 76.1299 84.5696 74.804 84.5876 74.6069C84.6055 74.4098 84.6055 64.8779 84.6055 64.8779Z" fill="#FFBF9D"/>
<path d="M82.5804 72.0272C82.5804 72.0272 82.4639 72.1079 82.2668 72.1975C82.1251 72.2576 81.9728 72.2886 81.8189 72.2886C81.665 72.2886 81.5126 72.2576 81.371 72.1975C80.9348 71.9169 80.5818 71.5246 80.3487 71.0614C80.1155 70.5983 80.0107 70.0811 80.0451 69.5636C80.0321 68.9839 80.1484 68.4086 80.3855 67.8794C80.4531 67.6697 80.5695 67.4791 80.7253 67.3234C80.8811 67.1676 81.0717 67.0511 81.2814 66.9836C81.4169 66.9517 81.5593 66.9671 81.6848 67.0275C81.8103 67.0878 81.9114 67.1893 81.9712 67.315C82.0608 67.5121 81.9712 67.6465 82.0518 67.6555C82.1324 67.6644 82.1951 67.539 82.1504 67.2613C82.1125 67.0914 82.0177 66.9397 81.8816 66.8313C81.6978 66.6904 81.4667 66.6262 81.2366 66.6521C80.9564 66.7049 80.6946 66.8292 80.4764 67.0128C80.2583 67.1964 80.0912 67.4332 79.9913 67.7003C79.6961 68.2827 79.5484 68.9287 79.5613 69.5816C79.5613 70.9522 80.278 72.2691 81.2545 72.5289C81.4364 72.5832 81.6282 72.5962 81.8158 72.5667C82.0034 72.5372 82.182 72.4662 82.3385 72.3587C82.5266 72.1885 82.5804 72.0452 82.5804 72.0272Z" fill="#FF9A6C"/>
<path d="M101.214 72.798C101.447 72.798 101.456 74.3389 102.8 75.4856C104.143 76.6323 105.792 76.3814 105.801 76.6233C105.81 76.8652 105.433 76.9279 104.735 76.9458C103.819 76.9542 102.93 76.6367 102.226 76.05C101.545 75.4999 101.105 74.7063 100.999 73.8372C100.936 73.1564 101.106 72.7891 101.214 72.798Z" fill="#263238"/>
<path d="M131.932 46.9789C131.812 46.5941 131.545 46.2722 131.189 46.0831C130.402 45.7116 129.529 45.557 128.662 45.6351C126.501 45.5737 124.383 45.0159 122.472 44.0047C123.146 43.6847 123.765 43.2615 124.309 42.7505C124.894 42.2263 125.322 41.5505 125.546 40.7979C125.771 40.0452 125.783 39.2451 125.581 38.4862C125.554 38.3432 125.492 38.2089 125.402 38.0949C125.311 37.981 125.194 37.8908 125.061 37.8322C124.622 37.6889 124.228 38.1189 123.914 38.4593C123.517 38.9854 122.986 39.3951 122.376 39.6457C121.766 39.8963 121.1 39.9785 120.447 39.8837C119.544 39.8141 118.668 39.5416 117.885 39.0864C117.851 39.058 117.821 39.0248 117.796 38.9879L116.774 37.9308C114.248 35.3686 112.071 33.5948 109.823 32.6542C106.526 31.2835 100.998 30.6833 97.5314 31.5523C94.0645 32.4212 90.9379 35.1357 90.4183 38.7191C88.5012 37.0528 85.5897 37.0349 83.2515 37.9576H83.1888C80.555 38.8535 79.032 41.6217 78.2257 44.2913C78.2257 44.4347 78.1451 44.587 78.1003 44.7303C77.197 46.1391 75.9679 47.3098 74.5169 48.1435C74.266 48.2869 73.9704 48.466 73.9346 48.7617C73.9473 48.9056 73.9947 49.0444 74.0727 49.1661C74.1507 49.2877 74.257 49.3887 74.3825 49.4604C75.0136 49.9094 75.7352 50.2151 76.4967 50.3563C76.249 50.9777 75.9493 51.577 75.6009 52.148C75.3052 52.6497 74.9469 53.2499 75.1977 53.7695C75.303 53.9664 75.4656 54.1266 75.664 54.229C75.8624 54.3313 76.0871 54.3711 76.3086 54.3429C76.7505 54.2506 77.1684 54.0675 77.5359 53.8053L76.6401 55.9016C77.5923 56.0689 78.5704 56.0137 79.4978 55.7404C80.0264 58.2488 80.3937 62.9072 81.0208 64.6004C82.8125 64.6542 83.2604 64.466 84.1653 64.7706C85.3388 65.1738 84.864 67.2521 86.3959 66.6788C87.1753 66.3832 88.4116 63.4537 88.6804 62.6564C90.471 57.3949 91.1125 51.8106 90.5617 46.2801C91.6703 45.1478 92.9835 44.2359 94.4318 43.5926L94.3153 43.7001C97.1014 42.8042 100.246 41.8546 102.862 43.1805C104.895 44.2197 106.069 46.3518 107.574 48.0539C108.843 49.6116 110.427 50.8825 112.223 51.7828C114.019 52.6831 115.986 53.1923 117.993 53.2768C118.351 56.2689 118.405 61.1693 118.521 63.9644L120.976 58.4011C121.173 58.0696 121.334 57.7382 121.496 57.4156L121.549 57.3171C121.788 56.7783 122.054 56.2521 122.347 55.7404C122.675 55.965 123.069 56.0737 123.467 56.0494C123.864 56.0251 124.242 55.8692 124.541 55.6063C124.84 55.3434 125.043 54.9884 125.117 54.5974C125.192 54.2064 125.134 53.8016 124.954 53.447C124.724 53.1073 124.443 52.8051 124.12 52.5511C124.458 52.888 124.878 53.1312 125.338 53.2568C125.798 53.3825 126.283 53.3863 126.745 53.2678C127.197 53.1273 127.59 52.8428 127.865 52.4579C128.14 52.0729 128.282 51.6086 128.268 51.1357C128.237 50.8137 128.121 50.5058 127.932 50.2431C127.743 49.9804 127.488 49.7722 127.193 49.6396C128.434 49.7563 129.682 49.5006 130.777 48.905C131.466 48.5108 132.165 47.8658 131.932 46.9789Z" fill="#263238"/>
<path d="M93.528 39.8926C93.1701 40.1638 92.8345 40.4634 92.5247 40.7884C91.7302 41.7281 91.1931 42.8579 90.9659 44.0673C90.7823 44.894 90.6862 45.7378 90.6792 46.5846C90.6792 47.4805 90.733 48.4838 90.7867 49.5141C90.8545 50.597 90.8545 51.6831 90.7867 52.766C90.7501 53.3447 90.6693 53.9198 90.5448 54.4861C90.449 55.09 90.2025 55.66 89.8281 56.1434C89.6534 56.3349 89.4319 56.4777 89.1853 56.5578C88.9387 56.6379 88.6756 56.6525 88.4216 56.6003C87.9366 56.4991 87.4969 56.2447 87.1674 55.8747C86.6527 55.1222 86.3438 54.2482 86.2716 53.3394H86.4866C86.1782 54.0833 85.7616 54.7776 85.2503 55.3999C84.7608 55.9828 84.0635 56.3523 83.3063 56.4301C82.9552 56.4598 82.6025 56.3948 82.285 56.242C81.9973 56.0812 81.7611 55.842 81.6042 55.5521C81.4533 55.2786 81.3819 54.9683 81.3981 54.6563C81.4155 54.3687 81.5327 54.0962 81.7296 53.8859L81.8281 53.9844C81.2313 54.6564 80.4984 55.1938 79.6781 55.5611C79.4004 55.6865 79.1674 55.7582 79.0151 55.8119C78.939 55.8359 78.8611 55.8539 78.7822 55.8657L79.0062 55.7672C79.1495 55.7134 79.3735 55.6238 79.6512 55.4894C80.4434 55.1018 81.1501 54.5597 81.7296 53.8948L81.8281 53.9844C81.6609 54.191 81.5631 54.445 81.5486 54.7104C81.5341 54.9758 81.6037 55.239 81.7475 55.4626C81.8917 55.72 82.1061 55.9313 82.3657 56.0717C82.6454 56.2017 82.954 56.2573 83.2615 56.233C83.961 56.1467 84.6015 55.7976 85.0532 55.2565C85.545 54.6436 85.9435 53.9613 86.2358 53.2319L86.388 52.9183L86.4508 53.2588C86.529 54.1331 86.8382 54.9709 87.3466 55.6865C87.6398 56.0176 88.033 56.244 88.4664 56.3315C88.6827 56.3781 88.9075 56.367 89.1182 56.2994C89.3288 56.2318 89.5181 56.11 89.6669 55.9463C90.0163 55.4947 90.2445 54.9612 90.3298 54.3965C90.4499 53.8445 90.5307 53.2847 90.5717 52.7212C90.6393 51.6443 90.6393 50.5642 90.5717 49.4872C90.5179 48.457 90.4642 47.4715 90.4911 46.5488C90.5065 45.6891 90.6116 44.8334 90.8046 43.9956C91.0513 42.7813 91.6137 41.6535 92.4351 40.7257C92.7472 40.3855 93.1172 40.1034 93.528 39.8926Z" fill="#455A64"/>
<path d="M124.131 49.8637L124.05 49.9264L123.799 50.1056C123.664 50.2031 123.524 50.2928 123.378 50.3744C123.181 50.4866 122.977 50.5883 122.769 50.679C121.433 51.2704 119.97 51.5168 118.514 51.3956C116.346 51.2323 114.273 50.4416 112.547 49.1202C110.463 47.4895 108.735 45.45 107.468 43.1269C106.76 41.9175 106.178 40.6812 105.551 39.5435C104.969 38.4304 104.233 37.405 103.365 36.4976C102.584 35.6708 101.607 35.0545 100.525 34.7058C100.036 34.5657 99.5284 34.5022 99.02 34.5177C98.548 34.539 98.081 34.6234 97.6314 34.7685C96.8589 35.0261 96.1482 35.441 95.5441 35.9869C95.0917 36.4029 94.7104 36.8901 94.4153 37.4292C94.1741 37.8994 93.9964 38.3995 93.8867 38.9164C93.8867 38.9164 93.8867 38.9164 93.8867 38.8089C93.8867 38.7014 93.8867 38.6297 93.9315 38.5043C94.0179 38.1166 94.1502 37.7407 94.3257 37.3844C94.6149 36.8283 94.9966 36.3254 95.4545 35.8973C96.0649 35.3308 96.7885 34.9003 97.5776 34.6342C98.0416 34.4822 98.5235 34.3918 99.011 34.3654C99.5402 34.3454 100.069 34.4089 100.579 34.5535C101.692 34.8965 102.702 35.5124 103.517 36.3453C104.403 37.265 105.154 38.3055 105.748 39.436C106.393 40.5827 106.966 41.8189 107.665 43.0194C108.923 45.3151 110.625 47.3373 112.673 48.9679C114.364 50.2735 116.394 51.0664 118.523 51.2523C119.957 51.3818 121.401 51.1636 122.733 50.6162C123.213 50.3913 123.679 50.1401 124.131 49.8637Z" fill="#455A64"/>
<path d="M125.079 45.5458C125.079 45.5458 124.963 45.6444 124.721 45.7877C124.383 45.9911 124.029 46.1678 123.664 46.3163C123.121 46.5384 122.56 46.7152 121.988 46.8448C121.283 46.9913 120.567 47.0782 119.847 47.1046C119.127 47.1102 118.408 47.0532 117.697 46.9344C117.121 46.8275 116.554 46.6717 116.004 46.4686C115.634 46.3375 115.275 46.1787 114.929 45.9938C114.793 45.9344 114.666 45.856 114.553 45.7608C114.553 45.7608 115.117 46.0117 116.058 46.3163C116.608 46.4923 117.171 46.627 117.742 46.7194C118.438 46.8278 119.143 46.8788 119.847 46.8717C120.552 46.8505 121.253 46.7695 121.944 46.6298C122.507 46.5149 123.06 46.3592 123.601 46.164C124.524 45.8146 125.061 45.51 125.079 45.5458Z" fill="#455A64"/>
<path d="M114.293 356.247L114.437 375.463C114.437 375.463 134.011 381.734 134.388 385.318L97.1378 386.93L95.6865 357L114.293 356.247Z" fill="#263238"/>
<path d="M102.845 374.37C102.49 374.496 102.195 374.749 102.015 375.079C101.835 375.41 101.783 375.795 101.868 376.161C101.981 376.526 102.23 376.833 102.565 377.017C102.899 377.201 103.292 377.247 103.66 377.147C104.035 377.014 104.347 376.748 104.537 376.399C104.727 376.05 104.782 375.643 104.69 375.257C104.537 374.893 104.249 374.604 103.886 374.45C103.523 374.296 103.114 374.29 102.746 374.432" fill="#E0E0E0"/>
<path d="M97.1387 386.957V383.938L132.865 383.517C132.865 383.517 134.55 384.171 134.415 385.308L97.1387 386.957Z" fill="#455A64"/>
<path d="M115.027 375.275C115.027 375.454 114.131 375.579 113.236 376.17C112.34 376.762 111.928 377.577 111.757 377.514C111.587 377.452 111.811 376.385 112.877 375.651C113.943 374.916 115.063 375.104 115.027 375.275Z" fill="white"/>
<path d="M119.006 376.717C119.06 376.896 118.281 377.236 117.698 378.034C117.116 378.831 116.973 379.646 116.802 379.646C116.632 379.646 116.462 378.625 117.215 377.648C117.967 376.672 118.997 376.546 119.006 376.717Z" fill="white"/>
<path d="M121.425 381.331C121.263 381.375 120.977 380.48 121.425 379.467C121.872 378.455 122.679 378.016 122.768 378.159C122.858 378.303 122.347 378.867 122.007 379.709C121.666 380.551 121.613 381.268 121.425 381.331Z" fill="white"/>
<path d="M114.509 370.894C114.446 371.064 113.613 370.849 112.574 370.966C111.535 371.082 110.782 371.44 110.657 371.288C110.531 371.136 111.302 370.455 112.511 370.33C113.721 370.204 114.599 370.751 114.509 370.894Z" fill="white"/>
<path d="M71.1052 360.358L69.0806 383.525L72.7715 402.338C72.8342 402.659 72.8304 402.989 72.7601 403.308C72.6899 403.627 72.5548 403.928 72.3632 404.193C72.1717 404.458 71.9278 404.68 71.6466 404.846C71.3655 405.013 71.0531 405.12 70.729 405.16C70.3517 405.208 69.9685 405.165 69.6115 405.034C69.2545 404.903 68.9341 404.688 68.6775 404.408C65.3628 400.824 53.206 387.386 53.4479 385.711C53.7256 383.758 53.9496 361.147 53.9496 361.147L71.1052 360.358Z" fill="#263238"/>
<path d="M70.7287 405.125L53.5462 384.117L53.4835 385.093C53.4271 385.942 53.6748 386.784 54.1822 387.467C55.5439 389.259 59.414 394.258 68.6145 404.372C68.877 404.663 69.2076 404.884 69.5767 405.015C69.9457 405.146 70.3415 405.184 70.7287 405.125Z" fill="#455A64"/>
<g opacity="0.6">
<path d="M58.7855 376.931C59.0576 377.16 59.2356 377.482 59.2852 377.834C59.3349 378.186 59.2526 378.544 59.0542 378.84C58.8374 379.12 58.5211 379.306 58.1709 379.359C57.8207 379.413 57.4633 379.329 57.1729 379.126C56.8862 378.884 56.6993 378.544 56.648 378.172C56.5968 377.8 56.6848 377.422 56.8952 377.111C57.1505 376.84 57.5015 376.68 57.8732 376.665C58.2448 376.65 58.6076 376.781 58.884 377.03" fill="white"/>
</g>
<path d="M66.0786 394.643C66.6876 393.954 67.4237 393.388 68.2466 392.977C69.1121 392.691 70.0247 392.576 70.9341 392.636C70.9341 392.574 70.6743 392.377 70.1368 392.269C69.4274 392.139 68.6955 392.22 68.0316 392.502C67.3569 392.783 66.7825 393.261 66.3832 393.873C66.0786 394.285 66.0159 394.625 66.0786 394.643Z" fill="white"/>
<path d="M67.5307 397.859C68.2203 397.519 68.9293 397.22 69.6539 396.963C70.4122 396.874 71.1748 396.826 71.9383 396.82C71.5954 396.573 71.1983 396.413 70.7805 396.352C70.3626 396.291 69.9363 396.332 69.5374 396.47C68.1399 396.811 67.4142 397.787 67.5307 397.859Z" fill="white"/>
<path d="M63.2568 390.468C64.2821 389.869 65.3512 389.348 66.455 388.909C67.6035 388.628 68.7714 388.434 69.9489 388.327C68.748 388.013 67.4823 388.047 66.3002 388.426C65.1182 388.806 64.0687 389.514 63.2748 390.468H63.2568Z" fill="white"/>
<path d="M63.2832 383.373C63.337 383.517 64.6539 383.069 66.3202 383.114C67.9864 383.158 69.2854 383.642 69.3482 383.508C68.4812 382.858 67.4102 382.54 66.3291 382.612C65.2561 382.503 64.1789 382.773 63.2832 383.373Z" fill="white"/>
<path d="M63.7041 376.565C64.733 376.297 65.7947 376.176 66.8575 376.206C67.9063 376.389 68.9251 376.714 69.8855 377.174C69.8855 377.129 69.6884 376.815 69.1778 376.475C68.4938 376.041 67.7174 375.774 66.9113 375.696C66.1055 375.611 65.2912 375.722 64.5372 376.018C63.9639 376.251 63.6683 376.511 63.7041 376.565Z" fill="white"/>
<path d="M66.9037 374.907C66.9951 374.618 67.0256 374.313 66.9933 374.011C66.9662 373.2 66.7773 372.402 66.4378 371.664C66.2399 371.104 65.8618 370.625 65.3628 370.303C65.188 370.211 64.9893 370.176 64.7937 370.201C64.5981 370.227 64.4151 370.313 64.2699 370.446C64.0084 370.724 63.8557 371.086 63.8398 371.467C63.8411 372.25 64.1157 373.008 64.6162 373.61C65.1167 374.212 65.8117 374.62 66.5812 374.764C67.3446 374.894 68.1293 374.792 68.8347 374.473C69.5402 374.154 70.1343 373.631 70.5408 372.972C70.6445 372.807 70.7111 372.622 70.7358 372.428C70.7606 372.235 70.743 372.038 70.6842 371.852C70.6031 371.673 70.4682 371.523 70.298 371.423C70.1278 371.324 69.9309 371.28 69.7346 371.297C69.1543 371.383 68.6071 371.621 68.1489 371.987C67.4856 372.446 66.9118 373.023 66.4557 373.689C66.2671 373.918 66.1269 374.183 66.0437 374.468C66.7064 373.636 67.4847 372.903 68.355 372.291C68.765 371.992 69.2413 371.795 69.7435 371.718C69.8516 371.704 69.9613 371.727 70.0553 371.782C70.1493 371.837 70.2224 371.922 70.2631 372.023C70.2936 372.146 70.2973 372.275 70.2741 372.4C70.251 372.525 70.2014 372.644 70.1288 372.748C69.7601 373.305 69.2388 373.745 68.6271 374.013C68.0154 374.282 67.3393 374.368 66.6797 374.262C66.0301 374.139 65.4415 373.799 65.0103 373.298C64.579 372.797 64.3306 372.164 64.3057 371.503C64.3119 371.234 64.4099 370.975 64.5834 370.768C64.6618 370.693 64.7623 370.644 64.8703 370.63C64.9783 370.615 65.0881 370.636 65.1836 370.688C65.5906 370.968 65.9031 371.364 66.0795 371.826C66.5342 372.796 66.8133 373.839 66.9037 374.907Z" fill="white"/>
<path d="M133.993 196.972C135.784 204.932 136.388 213.113 135.785 221.25C135.382 226.41 117.975 369.147 117.975 369.147H94.477L101.079 234.992L99.1624 235.413C99.1624 235.413 86.3247 292.64 85.2676 301.895C84.3718 310.217 72.8152 375.668 72.8152 375.668L50.6338 375.426L58.8846 290.947L66.8757 214.172L69.8768 191.776L133.993 196.972Z" fill="#263238"/>
<path d="M177.273 130.965L154.437 142.262L141.519 108.614C140.343 105.734 138.484 103.184 136.102 101.183C133.721 99.1819 130.888 97.7906 127.848 97.129C127.069 96.9662 126.278 96.8614 125.483 96.8154L134.72 150.567C136.534 154.965 138.946 159.092 141.887 162.831C143.813 165.151 147.647 167.588 156.131 164.927L183.418 146.661L177.273 130.965Z" fill="#263238"/>
<path d="M84.2377 90.2671L95.5434 99.6646L101.313 104.144L104.233 103.732L105.846 99.3242L108.023 90.7329L111.069 94.7553L119.31 112.251L128.565 196.883C128.565 196.883 112.439 201.613 104.072 202.177C95.7047 202.742 82.4012 200.466 82.4012 200.466V155.933L77.6621 111.83L83.3866 94.9345L84.2377 90.2671Z" fill="#F5F5F5"/>
<path d="M108.129 201.613C108.118 201.536 108.118 201.457 108.129 201.38C108.129 201.201 108.129 200.977 108.129 200.681C108.129 200.045 108.075 199.149 108.031 197.994C107.95 195.638 107.842 192.278 107.699 188.139C107.412 179.808 106.956 168.305 106.302 155.611C105.648 142.916 104.904 131.423 104.331 123.109L103.65 113.255C103.569 112.108 103.507 111.212 103.471 110.567C103.471 110.271 103.471 110.048 103.471 109.868C103.471 109.689 103.471 109.635 103.471 109.626C103.48 109.707 103.48 109.788 103.471 109.868C103.471 110.039 103.471 110.271 103.551 110.558C103.605 111.194 103.686 112.09 103.793 113.246C103.999 115.566 104.277 118.925 104.591 123.1C105.227 131.405 105.997 142.89 106.651 155.593C107.305 168.296 107.726 179.781 107.95 188.13C108.066 192.296 108.147 195.665 108.174 197.985C108.174 199.14 108.174 200.036 108.174 200.672V201.371C108.138 201.532 108.129 201.613 108.129 201.613Z" fill="#263238"/>
<path d="M78.6382 98.9564L79.4445 98.5264L63.3191 106.974L69.4109 148.685L72.7973 170.186L60.1836 221.178C60.1836 221.178 69.6618 227.368 74.4098 226.15C76.9451 225.496 79.113 220.399 80.7883 216.385C84.1413 208.38 86.3169 199.931 87.2474 191.301C88.1433 182.62 89.0391 171.592 88.421 164.049C87.2385 150.011 85.384 126.853 85.2138 120.762C85.0436 114.67 83.6102 92.2285 83.6102 92.2285L78.6382 98.9564Z" fill="#263238"/>
<path d="M108.399 90.3296L117.77 95.4091L125.994 96.8156L137.085 121.093L134.971 164.99L146.043 219.181C146.043 219.181 137.927 222.056 134.711 220.874C131.495 219.691 127.105 212.417 126.935 208.018C126.764 203.62 120.511 161.013 120.511 161.013L115.19 110.925C114.687 106.15 113.353 101.499 111.248 97.1829L108.399 90.3296Z" fill="#263238"/>
<path d="M117.77 96.8154C117.876 96.9214 117.975 97.0352 118.065 97.1558L118.907 98.1771L122.007 102.065L122.07 102.146L121.989 102.208L119.355 104.206V103.991L122.446 104.968H122.535V105.075C122.482 110.567 122.41 117.492 122.329 124.999C122.195 134.164 122.07 142.45 121.98 148.488C121.926 151.472 121.873 153.864 121.837 155.602C121.837 156.417 121.837 157.071 121.783 157.537C121.783 157.743 121.783 157.904 121.783 158.038C121.783 158.173 121.783 158.208 121.783 158.208C121.783 158.208 121.783 158.155 121.783 158.038C121.783 157.922 121.783 157.743 121.783 157.537C121.783 157.062 121.783 156.417 121.783 155.602C121.783 153.89 121.783 151.463 121.783 148.479C121.846 142.45 121.926 134.146 122.025 124.99C122.132 117.492 122.231 110.567 122.303 105.066L122.401 105.201L119.328 104.197L119.095 104.126L119.292 103.982L121.98 102.011V102.164L118.952 98.2219L118.155 97.1648C118.018 97.0582 117.889 96.9414 117.77 96.8154Z" fill="#455A64"/>
<path d="M87.6951 155.315C87.6659 155.265 87.6448 155.21 87.6324 155.154L87.4712 154.661L86.853 152.762C86.3155 151.122 85.5092 148.748 84.479 145.828L82.7769 141.062C82.1043 139.242 81.5271 137.388 81.0479 135.508C80.0076 131.194 79.1972 126.828 78.6201 122.428C77.787 116.336 77.2405 110.585 76.918 105.649V105.577L76.9717 105.523L79.6593 102.961V103.176L77.133 101.259L77.0434 101.178L77.1151 101.08L81.666 94.9074L82.9113 93.2412L83.2517 92.8201C83.2871 92.7697 83.326 92.7218 83.3681 92.6768C83.3681 92.6768 83.3681 92.7395 83.2785 92.838L82.974 93.2859L81.7735 94.997L77.2942 101.268V101.089L79.8295 102.988L79.9639 103.087L79.8474 103.194L77.1598 105.783L77.2046 105.658C77.563 110.594 78.1005 116.336 78.9964 122.419C79.567 126.814 80.3624 131.176 81.3793 135.49C81.893 137.467 82.4574 139.312 83.0725 141.026L84.7388 145.81C85.7422 148.739 86.5305 151.122 87.0053 152.78C87.2562 153.613 87.4443 154.258 87.5607 154.697C87.6145 154.903 87.6593 155.073 87.6862 155.199C87.713 155.324 87.6951 155.315 87.6951 155.315Z" fill="#455A64"/>
<path d="M129.155 185.89L131.171 192.152L142.584 191.104L139.028 185.111L129.155 185.89Z" fill="#263238"/>
<path d="M129.165 185.89C129.165 185.89 129.389 185.89 129.846 185.801L131.844 185.604C133.573 185.442 136.063 185.209 139.011 184.958H139.1L139.154 185.048L142.737 191.023L142.872 191.256H142.603L142.012 191.31L131.19 192.305H131.082V192.206C130.464 190.244 129.989 188.623 129.667 187.565C129.523 187.055 129.398 186.67 129.299 186.32C129.254 186.182 129.218 186.042 129.192 185.899C129.262 186.047 129.322 186.2 129.371 186.356L129.81 187.619C130.195 188.739 130.706 190.307 131.342 192.098L131.199 192L142.021 190.961L142.603 190.907L142.469 191.167L138.93 185.173L139.073 185.254C136.189 185.469 133.698 185.621 131.996 185.729L129.953 185.845C129.443 185.89 129.165 185.899 129.165 185.89Z" fill="#455A64"/>
<g opacity="0.3">
<path d="M122.365 105.093L124.246 107.691C124.246 107.691 123.717 147.055 121.72 156.828L122.365 105.093Z" fill="black"/>
</g>
<path d="M84.2373 98.5176C84.4346 98.8259 84.6726 99.1062 84.945 99.3507C85.4288 99.8614 86.1365 100.587 87.0234 101.483C88.8151 103.275 91.2608 105.684 94.0201 108.336L95.8118 110.128L96.1164 110.424L96.2597 110.029C97.1556 107.539 98.0514 105.281 98.6964 103.418L98.365 103.49L100.694 105.586C100.962 105.858 101.263 106.096 101.59 106.294C101.377 105.963 101.121 105.662 100.829 105.398C100.318 104.869 99.5654 104.108 98.6248 103.176L98.4098 102.961L98.2933 103.248C97.5766 105.102 96.6987 107.342 95.7311 109.814L96.1791 109.716L94.3874 107.924C91.6281 105.237 89.1108 102.889 87.2653 101.187C86.3694 100.291 85.599 99.6464 85.0705 99.1895C84.8229 98.9305 84.5429 98.7046 84.2373 98.5176Z" fill="#263238"/>
<path d="M105.371 105.461C106.025 104.315 106.583 103.116 107.037 101.877L106.67 101.94C108.008 103.684 109.111 105.597 109.949 107.629C110.101 107.978 110.227 108.327 110.352 108.659L110.657 109.483L110.89 108.641C111.486 106.446 111.814 104.187 111.866 101.913C111.934 100.989 111.874 100.061 111.687 99.1538C111.573 100.063 111.507 100.979 111.49 101.895C111.325 104.125 110.941 106.334 110.343 108.489H110.881C110.755 108.148 110.621 107.79 110.469 107.432C109.613 105.351 108.447 103.411 107.011 101.68L106.769 101.393L106.634 101.734C106.114 102.94 105.691 104.186 105.371 105.461Z" fill="#263238"/>
<path d="M107.405 107.736L105.174 111.024H101.824L100.032 107.736L101.743 104.125L104.664 103.713L107.405 107.736Z" fill="#C53030"/>
<path d="M105.299 109.348L115.404 185.648L106.768 197.357L98.123 184.941L101.948 109.348H105.299Z" fill="#C53030"/>
<path d="M124.972 192.305C124.959 192.869 124.995 193.432 125.08 193.989C125.214 195.172 125.384 196.677 125.59 198.549C125.796 200.422 126.11 202.796 126.424 205.313C126.818 208.085 127.499 210.808 128.457 213.438C129.505 216.189 130.867 218.894 133.187 220.328C134.283 220.934 135.518 221.243 136.771 221.223C137.84 221.231 138.907 221.141 139.96 220.955C141.479 220.703 142.977 220.335 144.439 219.853C144.986 219.705 145.515 219.498 146.016 219.235C145.462 219.339 144.914 219.476 144.376 219.647C142.902 220.031 141.406 220.33 139.897 220.543C138.866 220.698 137.823 220.764 136.78 220.74C135.606 220.756 134.448 220.465 133.42 219.898C131.315 218.581 129.962 215.956 128.941 213.25C126.854 207.741 126.576 202.33 125.94 198.513C125.662 196.668 125.429 195.145 125.25 193.971C125.203 193.409 125.11 192.852 124.972 192.305Z" fill="#455A64"/>
<path d="M87.8474 194.544C87.8445 194.715 87.8173 194.884 87.7668 195.046L87.4174 196.479C87.1128 197.716 86.629 199.499 86.0019 201.693C84.4044 207.42 82.4689 213.047 80.2057 218.544C79.5418 220.114 78.7788 221.64 77.9213 223.113C77.5103 223.822 77.0334 224.491 76.4969 225.111L76.0758 225.541C75.9146 225.675 75.7444 225.792 75.5831 225.917C75.4055 226.032 75.2163 226.128 75.0187 226.204C74.8306 226.267 74.6335 226.285 74.4454 226.329C72.9986 226.544 71.5226 226.443 70.1184 226.034C68.8928 225.714 67.6946 225.298 66.535 224.789C64.8813 224.068 63.2799 223.232 61.7421 222.289C61.1957 221.958 60.7746 221.68 60.5058 221.492C60.3566 221.404 60.2183 221.299 60.0938 221.178C60.2553 221.236 60.4088 221.314 60.5506 221.411L61.8317 222.128C63.396 223.005 65.0081 223.795 66.6604 224.493C67.8014 224.965 68.975 225.355 70.1721 225.658C71.5184 226.034 72.9292 226.119 74.311 225.908C75.0296 225.79 75.673 225.394 76.1027 224.806C76.618 224.205 77.0769 223.557 77.4734 222.871C78.3128 221.427 79.0608 219.931 79.713 218.392C81.968 212.909 83.9414 207.315 85.6257 201.631C86.2707 199.499 86.7992 197.752 87.1845 196.462C87.3577 195.9 87.501 195.434 87.6145 195.064C87.6727 194.883 87.7508 194.709 87.8474 194.544Z" fill="#455A64"/>
<path d="M70.1276 103.615C70.1276 103.615 56.2687 106.723 54.5039 118.638C52.4703 132.354 50.6875 163.745 50.6875 163.745L74.4456 131.933" fill="#263238"/>
<path d="M65.7109 106.347C65.7109 106.347 66.3201 106.894 67.2339 107.834C69.6236 110.298 71.2801 113.378 72.0178 116.73C72.2955 118.011 72.3582 118.826 72.4119 118.826C72.4437 118.634 72.4437 118.437 72.4119 118.244C72.386 117.721 72.3231 117.2 72.2238 116.685C71.5948 113.251 69.9025 110.102 67.3862 107.682C67.009 107.315 66.608 106.974 66.1857 106.661C66.0419 106.536 65.8822 106.43 65.7109 106.347Z" fill="#263238"/>
<path d="M136.637 113.317C136.484 113.317 136.001 124.399 135.571 138.079C135.141 151.759 134.908 162.849 135.069 162.849C135.23 162.849 135.696 151.777 136.135 138.097C136.574 124.417 136.789 113.326 136.637 113.317Z" fill="#455A64"/>
<path d="M63.3467 106.975C63.3467 106.975 56.8965 111.328 56.1798 114.849C55.5706 117.698 50.4732 160.538 49.8192 165.859C49.1653 171.181 46.63 182.271 53.1339 186.688C57.5057 189.653 71.3198 192.627 71.3198 192.627C69.9581 186.258 72.7442 181.599 79.5438 178.07L70.3075 169.353L74.4463 131.933L63.3467 106.975Z" fill="#263238"/>
<path d="M72.824 170.168C72.6628 170.168 70.4052 158.522 67.7804 144.108C65.1555 129.693 63.1488 117.949 63.3011 117.949C63.4534 117.949 65.7199 129.595 68.3537 144.009C70.9875 158.424 72.9763 170.132 72.824 170.168Z" fill="#455A64"/>
<path d="M71.0419 161.585C71.0877 162.326 71.0667 163.07 70.9792 163.807C70.8896 165.196 70.7284 167.14 70.5313 169.379L70.4686 169.191L72.2603 170.858C74.3118 172.802 76.1483 174.584 77.4652 175.892C78.2095 176.561 78.8985 177.289 79.5257 178.069C78.7147 177.482 77.9509 176.832 77.2412 176.125C75.8616 174.889 73.9893 173.142 71.9378 171.198L70.1461 169.523L70.0654 169.442V169.335C70.2894 167.104 70.4954 165.16 70.6657 163.78C70.7231 163.039 70.8491 162.304 71.0419 161.585Z" fill="#455A64"/>
<path d="M61.0801 174.88C62.0265 173.306 63.3994 172.033 65.0398 171.207C66.6025 170.244 68.4091 169.749 70.2447 169.783C68.5232 170.194 66.8526 170.795 65.2637 171.575C63.7532 172.521 62.3503 173.63 61.0801 174.88Z" fill="#455A64"/>
<path d="M92.4791 138.124C92.43 138.949 92.2185 139.756 91.8565 140.498C91.4946 141.241 90.9894 141.905 90.37 142.452C89.7507 142.999 89.0293 143.418 88.2474 143.685C87.4655 143.953 86.6385 144.063 85.8139 144.009C84.9514 143.965 84.1077 143.741 83.3365 143.352C82.5653 142.964 81.8835 142.419 81.3346 141.752C79.6056 139.62 76.4791 136.574 72.5911 136.377C66.5709 136.001 62.0647 140.56 61.6347 147.387C61.2047 154.213 65.1196 159.293 71.1487 159.669C75.0367 159.911 78.5127 157.277 80.4925 155.378C81.1142 154.787 81.8515 154.332 82.6579 154.041C83.4643 153.749 84.3223 153.628 85.1778 153.685C86.0027 153.734 86.8097 153.945 87.5526 154.307C88.2954 154.669 88.9594 155.174 89.5063 155.794C90.0533 156.413 90.4724 157.134 90.7397 157.916C91.0069 158.698 91.117 159.525 91.0636 160.35L88.3761 202.939L183.149 206.97L185.2 162.177C185.249 161.353 185.461 160.546 185.823 159.803C186.185 159.06 186.69 158.396 187.309 157.849C187.929 157.302 188.65 156.883 189.432 156.616C190.214 156.348 191.041 156.238 191.865 156.292C192.728 156.336 193.572 156.56 194.343 156.949C195.114 157.337 195.796 157.882 196.345 158.549C198.074 160.681 201.2 163.727 205.088 163.969C211.108 164.345 215.624 159.785 216.045 152.959C216.466 146.133 212.56 141.053 206.54 140.677C202.652 140.435 199.167 143.069 197.187 144.968C196.566 145.559 195.829 146.015 195.022 146.307C194.215 146.598 193.357 146.719 192.501 146.661C189.035 146.446 185.809 143.821 186.024 140.39L187.637 102.37L93.787 98.3745L92.4791 138.124Z" fill="#C53030"/>
<path d="M80.9226 181.169C80.9226 181.169 83.7177 179.001 85.796 178.912C87.8744 178.822 90.5799 179.637 91.1174 179.369C91.655 179.1 92.9092 177.908 93.7333 178.903C94.5575 179.897 95.5251 183.516 91.207 184.511H88.2328C88.3851 185.94 88.7504 187.338 89.3168 188.659C90.0335 189.832 100.139 202.553 100.139 202.553C100.139 202.553 101.402 203.816 100.775 205.08C100.148 206.343 97.4332 205.617 97.4332 205.617C96.888 206.098 96.2296 206.432 95.5198 206.589C94.81 206.746 94.0719 206.72 93.375 206.513C92.3014 206.152 91.2732 205.668 90.3112 205.071C89.612 205.607 88.7555 205.897 87.8744 205.897C86.9934 205.897 86.1369 205.607 85.4377 205.071C82.9114 203.18 72.833 190.737 72.833 190.737L77.4915 180.784L80.9226 181.169Z" fill="#FFBF9D"/>
<path d="M78.1008 178.867L80.9676 181.151C76.7123 184.251 74.4995 188.049 74.5264 192.609L70.8623 190.074C70.8623 190.074 70.1994 180.721 78.1008 178.867Z" fill="#F5F5F5"/>
<path d="M89.6299 197.357C89.7463 197.268 91.2603 199.292 93.4194 201.505C95.5784 203.718 97.603 205.25 97.5045 205.375C96.9976 205.146 96.5268 204.844 96.1069 204.479C95.0367 203.677 94.0276 202.797 93.0879 201.846C92.1543 200.889 91.292 199.865 90.5078 198.782C90.1426 198.356 89.8464 197.875 89.6299 197.357Z" fill="#FF9A6C"/>
<path d="M84.623 199.883C84.7395 199.785 85.8593 201.138 87.5167 202.473C88.6077 203.206 89.5703 204.114 90.3655 205.16C89.2624 204.462 88.2141 203.68 87.23 202.822C86.1565 202.045 85.2666 201.042 84.623 199.883Z" fill="#FF9A6C"/>
<path d="M182.477 121.738C182.477 121.738 182.925 118.674 189.366 119.713C193.407 120.367 191.292 122.983 191.292 122.983C191.594 123.244 191.828 123.574 191.974 123.945C192.12 124.316 192.174 124.717 192.131 125.114C192.088 125.51 191.949 125.891 191.726 126.222C191.504 126.553 191.204 126.825 190.853 127.014L191.274 127.328C191.274 127.328 194.491 128.94 191.713 131.807C191.995 132.318 192.111 132.903 192.045 133.483C191.979 134.062 191.735 134.607 191.346 135.041C189.967 136.43 186.5 134.584 186.5 134.584C186.5 134.584 181.599 134.504 181.322 133.205C181.235 132.81 181.285 132.399 181.462 132.036C181.64 131.673 181.934 131.381 182.298 131.207C183.426 130.998 184.566 130.86 185.711 130.795C185.711 130.795 181.429 130.75 181.044 129.899C180.354 128.403 180.533 126.871 185.711 127.068C185.711 127.068 181.859 126.987 181.42 126.172C180.981 125.357 181.519 124.121 182.907 123.485C183.725 123.093 184.626 122.906 185.532 122.938C185.532 122.938 181.931 123.673 182.477 121.738Z" fill="#FFBF9D"/>
<path d="M191.096 123.001C189.939 123.138 188.774 123.18 187.611 123.127C186.451 123.212 185.286 123.212 184.126 123.127C185.243 122.741 186.422 122.571 187.602 122.625C188.78 122.533 189.964 122.661 191.096 123.001Z" fill="#FF9A6C"/>
<path d="M190.925 127.167C189.831 127.255 188.732 127.255 187.637 127.167C186.541 127.231 185.442 127.207 184.35 127.095C185.412 126.748 186.532 126.614 187.646 126.701C188.76 126.631 189.876 126.79 190.925 127.167Z" fill="#FF9A6C"/>
<path d="M191.795 132.022C191.741 132.148 190.281 131.512 188.373 131.207C186.465 130.903 184.888 131.019 184.87 130.876C186.033 130.521 187.268 130.475 188.454 130.741C189.661 130.865 190.815 131.307 191.795 132.022Z" fill="#FF9A6C"/>
</svg>
