<svg width="26" height="26" viewBox="0 0 26 26" fill="none" xmlns="http://www.w3.org/2000/svg">
<path d="M25.1787 13.4138L13.9287 0.913752C13.455 0.386252 12.545 0.386252 12.0712 0.913752L0.82123 13.4138C0.6593 13.5932 0.553011 13.8159 0.515285 14.0547C0.47756 14.2935 0.510023 14.5381 0.60873 14.7588C0.80873 15.21 1.25623 15.5 1.74998 15.5H4.24998V24.25C4.24998 24.5815 4.38168 24.8995 4.6161 25.1339C4.85052 25.3683 5.16846 25.5 5.49998 25.5H9.24998C9.5815 25.5 9.89944 25.3683 10.1339 25.1339C10.3683 24.8995 10.5 24.5815 10.5 24.25V19.25H15.5V24.25C15.5 24.5815 15.6317 24.8995 15.8661 25.1339C16.1005 25.3683 16.4185 25.5 16.75 25.5H20.5C20.8315 25.5 21.1494 25.3683 21.3839 25.1339C21.6183 24.8995 21.75 24.5815 21.75 24.25V15.5H24.25C24.4921 15.501 24.7292 15.4316 24.9325 15.3002C25.1358 15.1688 25.2965 14.981 25.395 14.7599C25.4934 14.5387 25.5254 14.2937 25.487 14.0547C25.4486 13.8156 25.3415 13.593 25.1787 13.4138Z" fill="#67728A"/>
</svg>
