<svg width="30" height="30" viewBox="0 0 30 30" fill="none" xmlns="http://www.w3.org/2000/svg">
<path d="M14.0498 13.4917C17.023 13.4917 19.4332 11.0815 19.4332 8.10833C19.4332 5.1352 17.023 2.725 14.0498 2.725C11.0767 2.725 8.6665 5.1352 8.6665 8.10833C8.6665 11.0815 11.0767 13.4917 14.0498 13.4917Z" fill="#67728A"/>
<path d="M17.5 23.3333H23.3333V24.5H17.5V23.3333Z" fill="#67728A"/>
<path d="M12.4999 25V27.5C12.4999 27.721 12.5877 27.933 12.744 28.0893C12.9002 28.2455 13.1122 28.3333 13.3332 28.3333H27.4999C27.7209 28.3333 27.9329 28.2455 28.0891 28.0893C28.2454 27.933 28.3332 27.721 28.3332 27.5V19.1667C28.3332 18.9457 28.2454 18.7337 28.0891 18.5774C27.9329 18.4211 27.7209 18.3333 27.4999 18.3333H21.6666V17.1083C21.6666 16.8873 21.5788 16.6754 21.4225 16.5191C21.2662 16.3628 21.0542 16.275 20.8332 16.275C20.6122 16.275 20.4002 16.3628 20.244 16.5191C20.0877 16.6754 19.9999 16.8873 19.9999 17.1083V18.3333H18.3332V15.35C16.9171 15.1187 15.4847 15.0017 14.0499 15C10.8856 14.9865 7.75667 15.6664 4.88322 16.9917C4.41029 17.2148 4.01131 17.569 3.73361 18.0121C3.45592 18.4553 3.31118 18.9687 3.31655 19.4917V25H12.4999ZM26.6666 26.6667H14.1666V20H19.9999V20.35C19.9999 20.571 20.0877 20.783 20.244 20.9393C20.4002 21.0955 20.6122 21.1833 20.8332 21.1833C21.0542 21.1833 21.2662 21.0955 21.4225 20.9393C21.5788 20.783 21.6666 20.571 21.6666 20.35V20H26.6666V26.6667Z" fill="#67728A"/>
</svg>
